G04 #@! TF.GenerationSoftware,KiCad,Pcbnew,9.0.2*
G04 #@! TF.CreationDate,2025-10-21T21:35:44+02:00*
G04 #@! TF.ProjectId,quacken,71756163-6b65-46e2-9e6b-696361645f70,v1.0.0*
G04 #@! TF.SameCoordinates,Original*
G04 #@! TF.FileFunction,Legend,Top*
G04 #@! TF.FilePolarity,Positive*
%FSLAX46Y46*%
G04 Gerber Fmt 4.6, Leading zero omitted, Abs format (unit mm)*
G04 Created by KiCad (PCBNEW 9.0.2) date 2025-10-21 21:35:44*
%MOMM*%
%LPD*%
G01*
G04 APERTURE LIST*
G04 Aperture macros list*
%AMRoundRect*
0 Rectangle with rounded corners*
0 $1 Rounding radius*
0 $2 $3 $4 $5 $6 $7 $8 $9 X,Y pos of 4 corners*
0 Add a 4 corners polygon primitive as box body*
4,1,4,$2,$3,$4,$5,$6,$7,$8,$9,$2,$3,0*
0 Add four circle primitives for the rounded corners*
1,1,$1+$1,$2,$3*
1,1,$1+$1,$4,$5*
1,1,$1+$1,$6,$7*
1,1,$1+$1,$8,$9*
0 Add four rect primitives between the rounded corners*
20,1,$1+$1,$2,$3,$4,$5,0*
20,1,$1+$1,$4,$5,$6,$7,0*
20,1,$1+$1,$6,$7,$8,$9,0*
20,1,$1+$1,$8,$9,$2,$3,0*%
%AMHorizOval*
0 Thick line with rounded ends*
0 $1 width*
0 $2 $3 position (X,Y) of the first rounded end (center of the circle)*
0 $4 $5 position (X,Y) of the second rounded end (center of the circle)*
0 Add line between two ends*
20,1,$1,$2,$3,$4,$5,0*
0 Add two circle primitives to create the rounded ends*
1,1,$1,$2,$3*
1,1,$1,$4,$5*%
G04 Aperture macros list end*
%ADD10C,0.250000*%
%ADD11C,0.500000*%
%ADD12C,0.300000*%
%ADD13C,0.000000*%
%ADD14C,0.120000*%
%ADD15C,0.200000*%
%ADD16C,0.150000*%
%ADD17C,0.254000*%
%ADD18C,0.127000*%
%ADD19RoundRect,0.165000X-0.145650X0.209847X-0.231061X-0.108908X0.145650X-0.209847X0.231061X0.108908X0*%
%ADD20RoundRect,0.050000X1.822551X-0.488168X-0.359844X1.852164X-1.822551X0.488168X0.359844X-1.852164X0*%
%ADD21RoundRect,0.050000X1.413352X-0.049355X0.049355X1.413352X-1.413352X0.049355X-0.049355X-1.413352X0*%
%ADD22C,2.100000*%
%ADD23C,1.600000*%
%ADD24C,1.801800*%
%ADD25C,3.529000*%
%ADD26C,2.400000*%
%ADD27RoundRect,0.050000X1.804300X0.551815X-1.286662X1.380036X-1.804300X-0.551815X1.286662X-1.380036X0*%
%ADD28RoundRect,0.050000X1.224745X0.707107X-0.707107X1.224745X-1.224745X-0.707107X0.707107X-1.224745X0*%
%ADD29RoundRect,0.160000X0.161433X-0.208900X0.244255X0.100196X-0.161433X0.208900X-0.244255X-0.100196X0*%
%ADD30RoundRect,0.187500X0.700529X0.006408X-0.603471X0.355814X-0.700529X-0.006408X0.603471X-0.355814X0*%
%ADD31RoundRect,0.050000X1.286662X1.380036X-1.804300X0.551815X-1.286662X-1.380036X1.804300X-0.551815X0*%
%ADD32RoundRect,0.050000X0.707107X1.224745X-1.224745X0.707107X-0.707107X-1.224745X1.224745X-0.707107X0*%
%ADD33RoundRect,0.050000X0.359844X1.852164X-1.822551X-0.488168X-0.359844X-1.852164X1.822551X0.488168X0*%
%ADD34RoundRect,0.050000X-0.049355X1.413352X-1.413352X-0.049355X0.049355X-1.413352X1.413352X0.049355X0*%
%ADD35RoundRect,0.175000X-0.537500X-0.175000X0.537500X-0.175000X0.537500X0.175000X-0.537500X0.175000X0*%
%ADD36RoundRect,0.160000X-0.210000X0.160000X-0.210000X-0.160000X0.210000X-0.160000X0.210000X0.160000X0*%
%ADD37RoundRect,0.165000X0.145650X-0.209847X0.231061X0.108908X-0.145650X0.209847X-0.231061X-0.108908X0*%
%ADD38RoundRect,0.160000X0.244255X-0.100196X0.161433X0.208900X-0.244255X0.100196X-0.161433X-0.208900X0*%
%ADD39RoundRect,0.160000X-0.161433X0.208900X-0.244255X-0.100196X0.161433X-0.208900X0.244255X0.100196X0*%
%ADD40HorizOval,1.700000X-0.077646X0.289778X0.077646X-0.289778X0*%
%ADD41C,0.750000*%
%ADD42RoundRect,0.050000X0.300000X0.725000X-0.300000X0.725000X-0.300000X-0.725000X0.300000X-0.725000X0*%
%ADD43RoundRect,0.050000X0.150000X0.725000X-0.150000X0.725000X-0.150000X-0.725000X0.150000X-0.725000X0*%
%ADD44O,1.100000X1.700000*%
%ADD45O,1.100000X2.200000*%
%ADD46RoundRect,0.165000X-0.231061X0.108908X-0.145650X-0.209847X0.231061X-0.108908X0.145650X0.209847X0*%
%ADD47RoundRect,0.175000X-0.564478X-0.029922X0.473892X-0.308152X0.564478X0.029922X-0.473892X0.308152X0*%
%ADD48RoundRect,0.050000X0.639938X0.026532X0.567469X0.296992X-0.639938X-0.026532X-0.567469X-0.296992X0*%
%ADD49RoundRect,0.050000X-1.198863X0.610514X-0.732989X-1.128152X1.198863X-0.610514X0.732989X1.128152X0*%
%ADD50RoundRect,0.160000X0.210000X-0.160000X0.210000X0.160000X-0.210000X0.160000X-0.210000X-0.160000X0*%
%ADD51RoundRect,0.270833X0.560975X0.242230X-0.364704X0.490265X-0.560975X-0.242230X0.364704X-0.490265X0*%
%ADD52RoundRect,0.075000X0.417856X-0.034318X-0.379033X0.179207X-0.417856X0.034318X0.379033X-0.179207X0*%
%ADD53RoundRect,0.075000X0.179207X0.379033X0.034318X0.417856X-0.179207X-0.379033X-0.034318X-0.417856X0*%
%ADD54RoundRect,0.050000X1.959592X1.131371X-1.131371X1.959592X-1.959592X-1.131371X1.131371X-1.959592X0*%
%ADD55RoundRect,0.102000X0.397138X0.256528X-0.472195X0.023591X-0.397138X-0.256528X0.472195X-0.023591X0*%
%ADD56RoundRect,0.102000X0.023591X0.472195X-0.256528X0.397138X-0.023591X-0.472195X0.256528X-0.397138X0*%
%ADD57RoundRect,0.102000X-0.472195X0.023591X-0.397138X-0.256528X0.472195X-0.023591X0.397138X0.256528X0*%
%ADD58RoundRect,0.102000X-0.256528X0.397138X-0.023591X-0.472195X0.256528X-0.397138X0.023591X0.472195X0*%
%ADD59RoundRect,0.102000X1.060660X1.837117X-1.837117X1.060660X-1.060660X-1.837117X1.837117X-1.060660X0*%
%ADD60RoundRect,0.050000X-0.567469X0.296992X-0.639938X0.026532X0.567469X-0.296992X0.639938X-0.026532X0*%
%ADD61RoundRect,0.050000X0.732989X-1.128152X1.198863X0.610514X-0.732989X1.128152X-1.198863X-0.610514X0*%
%ADD62RoundRect,0.050000X1.000000X-0.525000X1.000000X0.525000X-1.000000X0.525000X-1.000000X-0.525000X0*%
%ADD63C,2.300000*%
%ADD64RoundRect,0.165000X-0.209847X-0.145650X0.108908X-0.231061X0.209847X0.145650X-0.108908X0.231061X0*%
%ADD65HorizOval,1.700000X-0.077646X-0.289778X0.077646X0.289778X0*%
G04 APERTURE END LIST*
D10*
X247789319Y-128924099D02*
X247580684Y-128881404D01*
X247580684Y-128881404D02*
X247347399Y-128746717D01*
X247347399Y-128746717D02*
X246997472Y-128544687D01*
X246997472Y-128544687D02*
X246788837Y-128501993D01*
X246788837Y-128501993D02*
X246604851Y-128551292D01*
X246820091Y-128986607D02*
X246611456Y-128943913D01*
X246611456Y-128943913D02*
X246378171Y-128809226D01*
X246378171Y-128809226D02*
X246187580Y-128465904D01*
X246187580Y-128465904D02*
X246015034Y-127821953D01*
X246015034Y-127821953D02*
X246008429Y-127429332D01*
X246008429Y-127429332D02*
X246143116Y-127196047D01*
X246143116Y-127196047D02*
X246302453Y-127054755D01*
X246302453Y-127054755D02*
X246670425Y-126956158D01*
X246670425Y-126956158D02*
X246879060Y-126998852D01*
X246879060Y-126998852D02*
X247112345Y-127133539D01*
X247112345Y-127133539D02*
X247302935Y-127476861D01*
X247302935Y-127476861D02*
X247475481Y-128120812D01*
X247475481Y-128120812D02*
X247482086Y-128513433D01*
X247482086Y-128513433D02*
X247347399Y-128746717D01*
X247347399Y-128746717D02*
X247188063Y-128888009D01*
X247188063Y-128888009D02*
X246820091Y-128986607D01*
X248958808Y-127033171D02*
X249303900Y-128321072D01*
X248130872Y-127255016D02*
X248402015Y-128266938D01*
X248402015Y-128266938D02*
X248543307Y-128426275D01*
X248543307Y-128426275D02*
X248751943Y-128468969D01*
X248751943Y-128468969D02*
X249027921Y-128395021D01*
X249027921Y-128395021D02*
X249187258Y-128253729D01*
X249187258Y-128253729D02*
X249254601Y-128137086D01*
X251051766Y-127852733D02*
X250780622Y-126840811D01*
X250780622Y-126840811D02*
X250639331Y-126681474D01*
X250639331Y-126681474D02*
X250430695Y-126638780D01*
X250430695Y-126638780D02*
X250062723Y-126737378D01*
X250062723Y-126737378D02*
X249903387Y-126878670D01*
X251027117Y-127760740D02*
X250867780Y-127902032D01*
X250867780Y-127902032D02*
X250407816Y-128025279D01*
X250407816Y-128025279D02*
X250199180Y-127982585D01*
X250199180Y-127982585D02*
X250057888Y-127823249D01*
X250057888Y-127823249D02*
X250008590Y-127639263D01*
X250008590Y-127639263D02*
X250051284Y-127430627D01*
X250051284Y-127430627D02*
X250210620Y-127289336D01*
X250210620Y-127289336D02*
X250670585Y-127166088D01*
X250670585Y-127166088D02*
X250829921Y-127024797D01*
X252774983Y-127292401D02*
X252615646Y-127433693D01*
X252615646Y-127433693D02*
X252247674Y-127532290D01*
X252247674Y-127532290D02*
X252039039Y-127489596D01*
X252039039Y-127489596D02*
X251922397Y-127422253D01*
X251922397Y-127422253D02*
X251781105Y-127262916D01*
X251781105Y-127262916D02*
X251633208Y-126710959D01*
X251633208Y-126710959D02*
X251675902Y-126502323D01*
X251675902Y-126502323D02*
X251743246Y-126385681D01*
X251743246Y-126385681D02*
X251902582Y-126244389D01*
X251902582Y-126244389D02*
X252270554Y-126145792D01*
X252270554Y-126145792D02*
X252479189Y-126188486D01*
X253627569Y-127162549D02*
X253109931Y-125230697D01*
X253614359Y-126377306D02*
X254363512Y-126965353D01*
X254018420Y-125677452D02*
X253479672Y-126610591D01*
X255902743Y-126454320D02*
X255743407Y-126595612D01*
X255743407Y-126595612D02*
X255375435Y-126694209D01*
X255375435Y-126694209D02*
X255166800Y-126651515D01*
X255166800Y-126651515D02*
X255025508Y-126492179D01*
X255025508Y-126492179D02*
X254828312Y-125756235D01*
X254828312Y-125756235D02*
X254871006Y-125547600D01*
X254871006Y-125547600D02*
X255030343Y-125406308D01*
X255030343Y-125406308D02*
X255398315Y-125307711D01*
X255398315Y-125307711D02*
X255606950Y-125350405D01*
X255606950Y-125350405D02*
X255748242Y-125509741D01*
X255748242Y-125509741D02*
X255797541Y-125693727D01*
X255797541Y-125693727D02*
X254926910Y-126124207D01*
X256502230Y-125011917D02*
X256847322Y-126299818D01*
X256551529Y-125195903D02*
X256618872Y-125079261D01*
X256618872Y-125079261D02*
X256778209Y-124937969D01*
X256778209Y-124937969D02*
X257054188Y-124864021D01*
X257054188Y-124864021D02*
X257262823Y-124906715D01*
X257262823Y-124906715D02*
X257404115Y-125066051D01*
X257404115Y-125066051D02*
X257675259Y-126077974D01*
X259950433Y-125369745D02*
X260251061Y-125387789D01*
X260251061Y-125387789D02*
X260711026Y-125264542D01*
X260711026Y-125264542D02*
X260870363Y-125123250D01*
X260870363Y-125123250D02*
X260937706Y-125006608D01*
X260937706Y-125006608D02*
X260980400Y-124797973D01*
X260980400Y-124797973D02*
X260931101Y-124613987D01*
X260931101Y-124613987D02*
X260789809Y-124454650D01*
X260789809Y-124454650D02*
X260673167Y-124387307D01*
X260673167Y-124387307D02*
X260464532Y-124344613D01*
X260464532Y-124344613D02*
X260071911Y-124351218D01*
X260071911Y-124351218D02*
X259863275Y-124308523D01*
X259863275Y-124308523D02*
X259746633Y-124241180D01*
X259746633Y-124241180D02*
X259605341Y-124081844D01*
X259605341Y-124081844D02*
X259556042Y-123897858D01*
X259556042Y-123897858D02*
X259598736Y-123689222D01*
X259598736Y-123689222D02*
X259666080Y-123572580D01*
X259666080Y-123572580D02*
X259825416Y-123431288D01*
X259825416Y-123431288D02*
X260285381Y-123308041D01*
X260285381Y-123308041D02*
X260586009Y-123326086D01*
X261561842Y-123656198D02*
X262079480Y-125588050D01*
X261586492Y-123748191D02*
X261745828Y-123606900D01*
X261745828Y-123606900D02*
X262113800Y-123508302D01*
X262113800Y-123508302D02*
X262322435Y-123550996D01*
X262322435Y-123550996D02*
X262439078Y-123618339D01*
X262439078Y-123618339D02*
X262580369Y-123777676D01*
X262580369Y-123777676D02*
X262728266Y-124329633D01*
X262728266Y-124329633D02*
X262685572Y-124538269D01*
X262685572Y-124538269D02*
X262618228Y-124654911D01*
X262618228Y-124654911D02*
X262458892Y-124796203D01*
X262458892Y-124796203D02*
X262090920Y-124894801D01*
X262090920Y-124894801D02*
X261882285Y-124852107D01*
X263930779Y-124401812D02*
X263722144Y-124359118D01*
X263722144Y-124359118D02*
X263580852Y-124199781D01*
X263580852Y-124199781D02*
X263137162Y-122543909D01*
X264666723Y-124204616D02*
X264321631Y-122916715D01*
X264149084Y-122272765D02*
X264081741Y-122389407D01*
X264081741Y-122389407D02*
X264198383Y-122456751D01*
X264198383Y-122456751D02*
X264265727Y-122340108D01*
X264265727Y-122340108D02*
X264149084Y-122272765D01*
X264149084Y-122272765D02*
X264198383Y-122456751D01*
X264965581Y-122744169D02*
X265701525Y-122546974D01*
X265069014Y-122026270D02*
X265512704Y-123682143D01*
X265512704Y-123682143D02*
X265653995Y-123841480D01*
X265653995Y-123841480D02*
X265862631Y-123884174D01*
X265862631Y-123884174D02*
X266046617Y-123834875D01*
X267633377Y-122029336D02*
X268438433Y-123193990D01*
X268438433Y-123193990D02*
X268553306Y-121782841D01*
X269484676Y-120843097D02*
X269668661Y-120793799D01*
X269668661Y-120793799D02*
X269877297Y-120836493D01*
X269877297Y-120836493D02*
X269993939Y-120903836D01*
X269993939Y-120903836D02*
X270135231Y-121063173D01*
X270135231Y-121063173D02*
X270325822Y-121406495D01*
X270325822Y-121406495D02*
X270449069Y-121866460D01*
X270449069Y-121866460D02*
X270455674Y-122259081D01*
X270455674Y-122259081D02*
X270412979Y-122467716D01*
X270412979Y-122467716D02*
X270345636Y-122584358D01*
X270345636Y-122584358D02*
X270186300Y-122725650D01*
X270186300Y-122725650D02*
X270002314Y-122774949D01*
X270002314Y-122774949D02*
X269793678Y-122732255D01*
X269793678Y-122732255D02*
X269677036Y-122664912D01*
X269677036Y-122664912D02*
X269535744Y-122505575D01*
X269535744Y-122505575D02*
X269345154Y-122162253D01*
X269345154Y-122162253D02*
X269221906Y-121702288D01*
X269221906Y-121702288D02*
X269215302Y-121309667D01*
X269215302Y-121309667D02*
X269257996Y-121101032D01*
X269257996Y-121101032D02*
X269325339Y-120984389D01*
X269325339Y-120984389D02*
X269484676Y-120843097D01*
D11*
X274631673Y-62606081D02*
X277679293Y-63820367D01*
X277679293Y-63820367D02*
X274631673Y-65034653D01*
X280155483Y-65439414D02*
X279774531Y-65237034D01*
X279774531Y-65237034D02*
X279584054Y-65034653D01*
X279584054Y-65034653D02*
X279393578Y-64629891D01*
X279393578Y-64629891D02*
X279393578Y-63415605D01*
X279393578Y-63415605D02*
X279584054Y-63010843D01*
X279584054Y-63010843D02*
X279774531Y-62808462D01*
X279774531Y-62808462D02*
X280155483Y-62606081D01*
X280155483Y-62606081D02*
X280726912Y-62606081D01*
X280726912Y-62606081D02*
X281107864Y-62808462D01*
X281107864Y-62808462D02*
X281298340Y-63010843D01*
X281298340Y-63010843D02*
X281488816Y-63415605D01*
X281488816Y-63415605D02*
X281488816Y-64629891D01*
X281488816Y-64629891D02*
X281298340Y-65034653D01*
X281298340Y-65034653D02*
X281107864Y-65237034D01*
X281107864Y-65237034D02*
X280726912Y-65439414D01*
X280726912Y-65439414D02*
X280155483Y-65439414D01*
X282250722Y-65844176D02*
X285298341Y-65844176D01*
X289107864Y-60987034D02*
X285679293Y-66451319D01*
D12*
X183778572Y-127749757D02*
X183635715Y-127678328D01*
X183635715Y-127678328D02*
X183421429Y-127678328D01*
X183421429Y-127678328D02*
X183207143Y-127749757D01*
X183207143Y-127749757D02*
X183064286Y-127892614D01*
X183064286Y-127892614D02*
X182992857Y-128035471D01*
X182992857Y-128035471D02*
X182921429Y-128321185D01*
X182921429Y-128321185D02*
X182921429Y-128535471D01*
X182921429Y-128535471D02*
X182992857Y-128821185D01*
X182992857Y-128821185D02*
X183064286Y-128964042D01*
X183064286Y-128964042D02*
X183207143Y-129106900D01*
X183207143Y-129106900D02*
X183421429Y-129178328D01*
X183421429Y-129178328D02*
X183564286Y-129178328D01*
X183564286Y-129178328D02*
X183778572Y-129106900D01*
X183778572Y-129106900D02*
X183850000Y-129035471D01*
X183850000Y-129035471D02*
X183850000Y-128535471D01*
X183850000Y-128535471D02*
X183564286Y-128535471D01*
X184707143Y-127678328D02*
X184707143Y-128035471D01*
X184350000Y-127892614D02*
X184707143Y-128035471D01*
X184707143Y-128035471D02*
X185064286Y-127892614D01*
X184492857Y-128321185D02*
X184707143Y-128035471D01*
X184707143Y-128035471D02*
X184921429Y-128321185D01*
X185850000Y-127678328D02*
X185850000Y-128035471D01*
X185492857Y-127892614D02*
X185850000Y-128035471D01*
X185850000Y-128035471D02*
X186207143Y-127892614D01*
X185635714Y-128321185D02*
X185850000Y-128035471D01*
X185850000Y-128035471D02*
X186064286Y-128321185D01*
X186992857Y-127678328D02*
X186992857Y-128035471D01*
X186635714Y-127892614D02*
X186992857Y-128035471D01*
X186992857Y-128035471D02*
X187350000Y-127892614D01*
X186778571Y-128321185D02*
X186992857Y-128035471D01*
X186992857Y-128035471D02*
X187207143Y-128321185D01*
D13*
G04 #@! TO.C,G\u002A\u002A\u002A*
G36*
X195011899Y-105727634D02*
G01*
X194989951Y-105873709D01*
X194949915Y-106099555D01*
X194893777Y-106395571D01*
X194823521Y-106752157D01*
X194741133Y-107159715D01*
X194648597Y-107608644D01*
X194547898Y-108089345D01*
X194441020Y-108592219D01*
X194329950Y-109107665D01*
X194216671Y-109626085D01*
X194103169Y-110137878D01*
X193991428Y-110633445D01*
X193951979Y-110806187D01*
X193032542Y-114590959D01*
X192015822Y-118347439D01*
X190902281Y-122074224D01*
X189692383Y-125769913D01*
X188386593Y-129433105D01*
X186985375Y-133062398D01*
X185489191Y-136656390D01*
X185100146Y-137549700D01*
X184722569Y-138402906D01*
X184357537Y-139214408D01*
X183995417Y-140004758D01*
X183626580Y-140794510D01*
X183241392Y-141604216D01*
X182830223Y-142454429D01*
X182383442Y-143365702D01*
X182213555Y-143709580D01*
X181875046Y-144392314D01*
X181578626Y-144987373D01*
X181322376Y-145498432D01*
X181104382Y-145929167D01*
X180922725Y-146283254D01*
X180775489Y-146564367D01*
X180660757Y-146776184D01*
X180576614Y-146922378D01*
X180521141Y-147006627D01*
X180492422Y-147032604D01*
X180487195Y-147020114D01*
X180491218Y-146942571D01*
X180502837Y-146782797D01*
X180520577Y-146559550D01*
X180542959Y-146291588D01*
X180561059Y-146082190D01*
X180632065Y-145185542D01*
X180683896Y-144322501D01*
X180718062Y-143457235D01*
X180736074Y-142553912D01*
X180739890Y-141837462D01*
X180699175Y-139765571D01*
X180575786Y-137732011D01*
X180367740Y-135721102D01*
X180073050Y-133717166D01*
X179689734Y-131704524D01*
X179215807Y-129667497D01*
X179183210Y-129539321D01*
X179093201Y-129186529D01*
X179010444Y-128861065D01*
X178938599Y-128577401D01*
X178881322Y-128350010D01*
X178842272Y-128193363D01*
X178825742Y-128124874D01*
X178798662Y-128003242D01*
X177956815Y-128037568D01*
X176291464Y-128139702D01*
X174572945Y-128311444D01*
X172819606Y-128550522D01*
X171049793Y-128854660D01*
X170498802Y-128962174D01*
X168652879Y-129369059D01*
X166836164Y-129844134D01*
X165032823Y-130392424D01*
X163227019Y-131018954D01*
X161402918Y-131728748D01*
X160259945Y-132211058D01*
X160225014Y-132208159D01*
X160264560Y-132136886D01*
X160378383Y-131997448D01*
X160566280Y-131790060D01*
X160828047Y-131514932D01*
X161163484Y-131172276D01*
X161572387Y-130762304D01*
X162054555Y-130285228D01*
X162609784Y-129741260D01*
X162738910Y-129615369D01*
X163795876Y-128592728D01*
X164805293Y-127631181D01*
X165785036Y-126714354D01*
X166752980Y-125825873D01*
X167727001Y-124949365D01*
X168724974Y-124068457D01*
X169764775Y-123166776D01*
X169994665Y-122969355D01*
X171173518Y-121985229D01*
X179918601Y-121985229D01*
X181535402Y-121985229D01*
X183152203Y-121985229D01*
X183649951Y-123518806D01*
X184147700Y-125052382D01*
X184525513Y-123886370D01*
X184638879Y-123536524D01*
X184748851Y-123197207D01*
X184849259Y-122887446D01*
X184933936Y-122626267D01*
X184996715Y-122432699D01*
X185018531Y-122365468D01*
X185133736Y-122010578D01*
X186740366Y-121985229D01*
X188346995Y-121959879D01*
X187141761Y-121088206D01*
X186831233Y-120863534D01*
X186544339Y-120655797D01*
X186292247Y-120473096D01*
X186086128Y-120323533D01*
X185937152Y-120215207D01*
X185856490Y-120156221D01*
X185848504Y-120150281D01*
X185825878Y-120126230D01*
X185814044Y-120088119D01*
X185815634Y-120025722D01*
X185833280Y-119928816D01*
X185869616Y-119787173D01*
X185927274Y-119590569D01*
X186008887Y-119328778D01*
X186117086Y-118991575D01*
X186254506Y-118568733D01*
X186260048Y-118551731D01*
X186759614Y-117019431D01*
X186601563Y-117130954D01*
X186518745Y-117190184D01*
X186366546Y-117299810D01*
X186157646Y-117450669D01*
X185904724Y-117633596D01*
X185620460Y-117839427D01*
X185335919Y-118045667D01*
X185040561Y-118259101D01*
X184770549Y-118452791D01*
X184537181Y-118618745D01*
X184351759Y-118748973D01*
X184225584Y-118835481D01*
X184169956Y-118870278D01*
X184169851Y-118870317D01*
X184115956Y-118846764D01*
X183990929Y-118769874D01*
X183805099Y-118646690D01*
X183568793Y-118484258D01*
X183292338Y-118289621D01*
X182986063Y-118069824D01*
X182831237Y-117957268D01*
X182517058Y-117728464D01*
X182230835Y-117521074D01*
X181982351Y-117342103D01*
X181781390Y-117198556D01*
X181637733Y-117097437D01*
X181561166Y-117045753D01*
X181551097Y-117040644D01*
X181566126Y-117091474D01*
X181608691Y-117226933D01*
X181675014Y-117435208D01*
X181761313Y-117704488D01*
X181863810Y-118022961D01*
X181978724Y-118378815D01*
X182032734Y-118545695D01*
X182152079Y-118915281D01*
X182260656Y-119253600D01*
X182354673Y-119548668D01*
X182430336Y-119788501D01*
X182483853Y-119961117D01*
X182511431Y-120054532D01*
X182514371Y-120067428D01*
X182474854Y-120104551D01*
X182362844Y-120193519D01*
X182188151Y-120326955D01*
X181960585Y-120497479D01*
X181689958Y-120697712D01*
X181386078Y-120920276D01*
X181216486Y-121043611D01*
X179918601Y-121985229D01*
X171173518Y-121985229D01*
X172942315Y-120508608D01*
X175956838Y-118123569D01*
X179038691Y-115813912D01*
X182188332Y-113579311D01*
X185406218Y-111419438D01*
X188692806Y-109333968D01*
X191183832Y-107829886D01*
X191651739Y-107554518D01*
X192120131Y-107281062D01*
X192580732Y-107014184D01*
X193025270Y-106758546D01*
X193445471Y-106518813D01*
X193833062Y-106299649D01*
X194179768Y-106105717D01*
X194477318Y-105941682D01*
X194717436Y-105812206D01*
X194891851Y-105721954D01*
X194992287Y-105675589D01*
X195013775Y-105670928D01*
X195011899Y-105727634D01*
G37*
G36*
X172677097Y-131298787D02*
G01*
X172478018Y-131417910D01*
X172277540Y-131568561D01*
X172188608Y-131649241D01*
X172044177Y-131810946D01*
X171918752Y-131992901D01*
X171809941Y-132204560D01*
X171715356Y-132455374D01*
X171632606Y-132754795D01*
X171559302Y-133112275D01*
X171493052Y-133537268D01*
X171431468Y-134039224D01*
X171372160Y-134627596D01*
X171337639Y-135014770D01*
X171285063Y-135593784D01*
X171228174Y-136160357D01*
X171168411Y-136703667D01*
X171107215Y-137212887D01*
X171046024Y-137677193D01*
X170986279Y-138085761D01*
X170929421Y-138427766D01*
X170876888Y-138692384D01*
X170830122Y-138868790D01*
X170821900Y-138891720D01*
X170813351Y-138938525D01*
X170851681Y-138936720D01*
X170952378Y-138882692D01*
X171009999Y-138847851D01*
X171275544Y-138695705D01*
X171624251Y-138512768D01*
X172044600Y-138304536D01*
X172525074Y-138076509D01*
X173054152Y-137834183D01*
X173620317Y-137583056D01*
X174037537Y-137402836D01*
X174648967Y-137139653D01*
X175173651Y-136908698D01*
X175619307Y-136705355D01*
X175993655Y-136525008D01*
X176304416Y-136363039D01*
X176559307Y-136214833D01*
X176766048Y-136075773D01*
X176932360Y-135941243D01*
X177065961Y-135806625D01*
X177174571Y-135667304D01*
X177265909Y-135518663D01*
X177301825Y-135450676D01*
X177396939Y-135227531D01*
X177479528Y-134972774D01*
X177516542Y-134816943D01*
X177579334Y-134482434D01*
X177664791Y-134761277D01*
X177771851Y-135194292D01*
X177846644Y-135670984D01*
X177883633Y-136145653D01*
X177879871Y-136535728D01*
X177789834Y-137222388D01*
X177610776Y-137861844D01*
X177343384Y-138452579D01*
X176988342Y-138993077D01*
X176550008Y-139478319D01*
X176312342Y-139693361D01*
X176043519Y-139912839D01*
X175736923Y-140140840D01*
X175385937Y-140381448D01*
X174983944Y-140638750D01*
X174524326Y-140916832D01*
X174000466Y-141219779D01*
X173405747Y-141551676D01*
X172733553Y-141916609D01*
X171977267Y-142318665D01*
X171791616Y-142416352D01*
X170835724Y-142921915D01*
X169967060Y-143388682D01*
X169180445Y-143819600D01*
X168470702Y-144217618D01*
X167832652Y-144585682D01*
X167261118Y-144926740D01*
X166750919Y-145243739D01*
X166296880Y-145539627D01*
X166255083Y-145567685D01*
X166060089Y-145697063D01*
X165934303Y-145774878D01*
X165864315Y-145808344D01*
X165836711Y-145804678D01*
X165834530Y-145793942D01*
X165846465Y-145741258D01*
X165879884Y-145604672D01*
X165931205Y-145398530D01*
X165996848Y-145137181D01*
X166073233Y-144834971D01*
X166109705Y-144691247D01*
X166239956Y-144164548D01*
X166365128Y-143627899D01*
X166488111Y-143067142D01*
X166611794Y-142468121D01*
X166739068Y-141816677D01*
X166872822Y-141098652D01*
X167015947Y-140299888D01*
X167075897Y-139957883D01*
X167233904Y-139059848D01*
X167378861Y-138255118D01*
X167512456Y-137536680D01*
X167636380Y-136897519D01*
X167752321Y-136330620D01*
X167861968Y-135828969D01*
X167967012Y-135385552D01*
X168069140Y-134993354D01*
X168170043Y-134645362D01*
X168271410Y-134334559D01*
X168374929Y-134053933D01*
X168482291Y-133796469D01*
X168595184Y-133555151D01*
X168638740Y-133468462D01*
X168833751Y-133153208D01*
X169098556Y-132819022D01*
X169410462Y-132488537D01*
X169746775Y-132184382D01*
X170084802Y-131929187D01*
X170331294Y-131780644D01*
X170876029Y-131531905D01*
X171440527Y-131341435D01*
X171999167Y-131216170D01*
X172526327Y-131163043D01*
X172618349Y-131161676D01*
X172952243Y-131161676D01*
X172677097Y-131298787D01*
G37*
G36*
X177296197Y-140111362D02*
G01*
X177925498Y-140307963D01*
X178612242Y-140495031D01*
X179312497Y-140660799D01*
X179485129Y-140697661D01*
X180030139Y-140811336D01*
X180029903Y-142108362D01*
X180014380Y-143292930D01*
X179968992Y-144435861D01*
X179900139Y-145446007D01*
X179885478Y-145606718D01*
X179863141Y-145718267D01*
X179818857Y-145783535D01*
X179738353Y-145805403D01*
X179607357Y-145786754D01*
X179411599Y-145730468D01*
X179136805Y-145639429D01*
X179063852Y-145614863D01*
X177840963Y-145152648D01*
X176637032Y-144597448D01*
X175467961Y-143957628D01*
X174349650Y-143241551D01*
X173794875Y-142842884D01*
X173564319Y-142668557D01*
X173365071Y-142514085D01*
X173210223Y-142389929D01*
X173112863Y-142306551D01*
X173085084Y-142275594D01*
X173127458Y-142239319D01*
X173242750Y-142166278D01*
X173414000Y-142066639D01*
X173624246Y-141950570D01*
X173652954Y-141935129D01*
X174268578Y-141594860D01*
X174862748Y-141246867D01*
X175419979Y-140900965D01*
X175924780Y-140566970D01*
X176361665Y-140254697D01*
X176611766Y-140059998D01*
X176767644Y-139933254D01*
X177296197Y-140111362D01*
G37*
G36*
X172890550Y-142460577D02*
G01*
X172910620Y-142472031D01*
X172994022Y-142530127D01*
X173137392Y-142635432D01*
X173320600Y-142772979D01*
X173523074Y-142927459D01*
X174513064Y-143634660D01*
X175571775Y-144289913D01*
X176673693Y-144878703D01*
X177793306Y-145386516D01*
X177976846Y-145461065D01*
X178216096Y-145557351D01*
X178419678Y-145640675D01*
X178569985Y-145703725D01*
X178649408Y-145739186D01*
X178657052Y-145743580D01*
X178631429Y-145757387D01*
X178507661Y-145754898D01*
X178287660Y-145736249D01*
X177973339Y-145701574D01*
X177850099Y-145686742D01*
X176494592Y-145471136D01*
X175144192Y-145157930D01*
X173811802Y-144750621D01*
X172510327Y-144252705D01*
X172426223Y-144216909D01*
X171993722Y-144028878D01*
X171642888Y-143869850D01*
X171360364Y-143733447D01*
X171132792Y-143613293D01*
X171000650Y-143536422D01*
X170845564Y-143442109D01*
X171821506Y-142921329D01*
X172142861Y-142750596D01*
X172387487Y-142623298D01*
X172567696Y-142534356D01*
X172695796Y-142478691D01*
X172784098Y-142451225D01*
X172844913Y-142446880D01*
X172890550Y-142460577D01*
G37*
G36*
X198659269Y-133640246D02*
G01*
X198606173Y-133774927D01*
X198507497Y-133998607D01*
X198363524Y-134310641D01*
X198234425Y-134584484D01*
X197623528Y-135757569D01*
X196921484Y-136899068D01*
X196135994Y-137999980D01*
X195274764Y-139051301D01*
X194345494Y-140044026D01*
X193355889Y-140969153D01*
X192313651Y-141817679D01*
X191614770Y-142321718D01*
X190449102Y-143061088D01*
X189223246Y-143723344D01*
X187947939Y-144303831D01*
X186633920Y-144797897D01*
X185291928Y-145200890D01*
X184558344Y-145379235D01*
X184217889Y-145451239D01*
X183848703Y-145522560D01*
X183470364Y-145590053D01*
X183102453Y-145650571D01*
X182764548Y-145700970D01*
X182476228Y-145738104D01*
X182257072Y-145758826D01*
X182175462Y-145762081D01*
X182013998Y-145762873D01*
X182257904Y-145243213D01*
X182345015Y-145060350D01*
X182468879Y-144804165D01*
X182620982Y-144492069D01*
X182792811Y-144141472D01*
X182975854Y-143769786D01*
X183161597Y-143394420D01*
X183181313Y-143354690D01*
X183364885Y-142983987D01*
X183544941Y-142618736D01*
X183713359Y-142275532D01*
X183862019Y-141970971D01*
X183982801Y-141721649D01*
X184067585Y-141544160D01*
X184076078Y-141526078D01*
X184291341Y-141066327D01*
X185033442Y-141003274D01*
X186397691Y-140837215D01*
X187743437Y-140573917D01*
X189064845Y-140216089D01*
X190356078Y-139766445D01*
X191611301Y-139227694D01*
X192824677Y-138602549D01*
X193990371Y-137893720D01*
X195102546Y-137103919D01*
X196155367Y-136235858D01*
X196988822Y-135448970D01*
X197254152Y-135177654D01*
X197529567Y-134887666D01*
X197794136Y-134601618D01*
X198026933Y-134342124D01*
X198200127Y-134140156D01*
X198363712Y-133943690D01*
X198503085Y-133778708D01*
X198606207Y-133659277D01*
X198661039Y-133599466D01*
X198666502Y-133595209D01*
X198659269Y-133640246D01*
G37*
G36*
X194486784Y-111939471D02*
G01*
X194585454Y-112028988D01*
X194728023Y-112172684D01*
X194903762Y-112358889D01*
X195101939Y-112575933D01*
X195311824Y-112812144D01*
X195522686Y-113055853D01*
X195723796Y-113295389D01*
X195823168Y-113417165D01*
X196677448Y-114555724D01*
X197442104Y-115741338D01*
X198116546Y-116972543D01*
X198700184Y-118247871D01*
X199192427Y-119565859D01*
X199592686Y-120925039D01*
X199900370Y-122323946D01*
X200114891Y-123761115D01*
X200160144Y-124190618D01*
X200188846Y-124591222D01*
X200207326Y-125066873D01*
X200215775Y-125591756D01*
X200214385Y-126140055D01*
X200203348Y-126685957D01*
X200182854Y-127203646D01*
X200153097Y-127667308D01*
X200132677Y-127891616D01*
X200057817Y-128512090D01*
X199962191Y-129140105D01*
X199848963Y-129763131D01*
X199721297Y-130368642D01*
X199582356Y-130944109D01*
X199435305Y-131477004D01*
X199283308Y-131954800D01*
X199129528Y-132364967D01*
X198977129Y-132694979D01*
X198876213Y-132866743D01*
X198602718Y-133248828D01*
X198263900Y-133677485D01*
X197874450Y-134136998D01*
X197449054Y-134611652D01*
X197002402Y-135085733D01*
X196549182Y-135543525D01*
X196104084Y-135969311D01*
X195681794Y-136347378D01*
X195417165Y-136567581D01*
X194293493Y-137405033D01*
X193119870Y-138156409D01*
X191901089Y-138819521D01*
X190641941Y-139392182D01*
X189347219Y-139872204D01*
X188021716Y-140257400D01*
X186722355Y-140536366D01*
X186398930Y-140590524D01*
X186058902Y-140641389D01*
X185716879Y-140687425D01*
X185387470Y-140727096D01*
X185085283Y-140758866D01*
X184824925Y-140781198D01*
X184621007Y-140792556D01*
X184488135Y-140791403D01*
X184440918Y-140776312D01*
X184460753Y-140726162D01*
X184515191Y-140600997D01*
X184596631Y-140417999D01*
X184697472Y-140194349D01*
X184732434Y-140117360D01*
X185023951Y-139476506D01*
X185752239Y-139121011D01*
X186982510Y-138465173D01*
X188152124Y-137730067D01*
X189258344Y-136919650D01*
X190298438Y-136037878D01*
X191269668Y-135088708D01*
X192169301Y-134076097D01*
X192994602Y-133004002D01*
X193742835Y-131876378D01*
X194411266Y-130697183D01*
X194997159Y-129470373D01*
X195497780Y-128199906D01*
X195910394Y-126889737D01*
X196232266Y-125543824D01*
X196460660Y-124166122D01*
X196533495Y-123523662D01*
X196564816Y-123113314D01*
X196587355Y-122635429D01*
X196600934Y-122117146D01*
X196605375Y-121585606D01*
X196600499Y-121067948D01*
X196586130Y-120591313D01*
X196562088Y-120182840D01*
X196555894Y-120109380D01*
X196381771Y-118705575D01*
X196113848Y-117337153D01*
X195750382Y-115997793D01*
X195289631Y-114681172D01*
X194729852Y-113380969D01*
X194662656Y-113239720D01*
X194297492Y-112479241D01*
X194358420Y-112209220D01*
X194396191Y-112055417D01*
X194428500Y-111947184D01*
X194442744Y-111915805D01*
X194486784Y-111939471D01*
G37*
G36*
X166111016Y-130812879D02*
G01*
X166131009Y-130870286D01*
X166165704Y-131006932D01*
X166210276Y-131202560D01*
X166259899Y-131436910D01*
X166261423Y-131444365D01*
X166456035Y-132285972D01*
X166698033Y-133150244D01*
X166974959Y-133996158D01*
X167274352Y-134782692D01*
X167278186Y-134791980D01*
X167497088Y-135321682D01*
X167373603Y-135865332D01*
X167334181Y-136049654D01*
X167280255Y-136317366D01*
X167214892Y-136651993D01*
X167141158Y-137037062D01*
X167062118Y-137456098D01*
X166980838Y-137892628D01*
X166900384Y-138330178D01*
X166823822Y-138752273D01*
X166754218Y-139142440D01*
X166694637Y-139484205D01*
X166648145Y-139761093D01*
X166645003Y-139780438D01*
X166610636Y-139973012D01*
X166576743Y-140130287D01*
X166549980Y-140221816D01*
X166547261Y-140227504D01*
X166504180Y-140223996D01*
X166405458Y-140152082D01*
X166248332Y-140009316D01*
X166030037Y-139793247D01*
X165862243Y-139620861D01*
X164945489Y-138602613D01*
X164117316Y-137541088D01*
X163370365Y-136425819D01*
X162697276Y-135246337D01*
X162463043Y-134786626D01*
X162301021Y-134450202D01*
X162141342Y-134103345D01*
X161989192Y-133758893D01*
X161849761Y-133429681D01*
X161728237Y-133128548D01*
X161629808Y-132868332D01*
X161559662Y-132661868D01*
X161522987Y-132521994D01*
X161523775Y-132462586D01*
X161593218Y-132421810D01*
X161744543Y-132353621D01*
X161966377Y-132262111D01*
X162247346Y-132151369D01*
X162576077Y-132025485D01*
X162941195Y-131888551D01*
X163331327Y-131744656D01*
X163735099Y-131597891D01*
X164141137Y-131452347D01*
X164538067Y-131312113D01*
X164914515Y-131181279D01*
X165259109Y-131063938D01*
X165560472Y-130964177D01*
X165807233Y-130886089D01*
X165988017Y-130833764D01*
X166091451Y-130811291D01*
X166111016Y-130812879D01*
G37*
G36*
X166538654Y-131367678D02*
G01*
X166609627Y-131474601D01*
X166712050Y-131636491D01*
X166835613Y-131837328D01*
X166849841Y-131860759D01*
X167010477Y-132117540D01*
X167206588Y-132418831D01*
X167413590Y-132727448D01*
X167606897Y-133006205D01*
X167610487Y-133011266D01*
X168042931Y-133620558D01*
X167837559Y-134213114D01*
X167756527Y-134442487D01*
X167685373Y-134635710D01*
X167631513Y-134773204D01*
X167602361Y-134835388D01*
X167601581Y-134836275D01*
X167566965Y-134812700D01*
X167513536Y-134718252D01*
X167483476Y-134649308D01*
X167385977Y-134394644D01*
X167271003Y-134075208D01*
X167149727Y-133723495D01*
X167033322Y-133371999D01*
X166932960Y-133053214D01*
X166920564Y-133012175D01*
X166864381Y-132816319D01*
X166800397Y-132579492D01*
X166733182Y-132320373D01*
X166667306Y-132057641D01*
X166607338Y-131809974D01*
X166557849Y-131596053D01*
X166523409Y-131434555D01*
X166508587Y-131344161D01*
X166509440Y-131331743D01*
X166538654Y-131367678D01*
G37*
G36*
X175334483Y-108407360D02*
G01*
X175821960Y-108415264D01*
X176305654Y-108429116D01*
X176764592Y-108448496D01*
X177177802Y-108472982D01*
X177524313Y-108502154D01*
X177698003Y-108522621D01*
X178892638Y-108723500D01*
X180083523Y-108995101D01*
X181247473Y-109330931D01*
X182361301Y-109724498D01*
X183122754Y-110041553D01*
X183351198Y-110146527D01*
X183608359Y-110269758D01*
X183876626Y-110402221D01*
X184138389Y-110534891D01*
X184376035Y-110658743D01*
X184571954Y-110764752D01*
X184708535Y-110843892D01*
X184764331Y-110882818D01*
X184738775Y-110923067D01*
X184639338Y-111008121D01*
X184478046Y-111128915D01*
X184266922Y-111276386D01*
X184056155Y-111416665D01*
X183303408Y-111907581D01*
X182541324Y-111813221D01*
X182210612Y-111780933D01*
X181804295Y-111755027D01*
X181342521Y-111735635D01*
X180845437Y-111722887D01*
X180333190Y-111716914D01*
X179825928Y-111717845D01*
X179343797Y-111725813D01*
X178906945Y-111740948D01*
X178535519Y-111763380D01*
X178306387Y-111785757D01*
X177414274Y-111908631D01*
X176593320Y-112051553D01*
X175814197Y-112220999D01*
X175047579Y-112423441D01*
X174264139Y-112665354D01*
X174149101Y-112703524D01*
X172824187Y-113198509D01*
X171553968Y-113778658D01*
X170339328Y-114443399D01*
X169181151Y-115192163D01*
X168080323Y-116024380D01*
X167037727Y-116939477D01*
X166084528Y-117903991D01*
X165330795Y-118762959D01*
X164658171Y-119622110D01*
X164049454Y-120506461D01*
X163487443Y-121441027D01*
X162954936Y-122450824D01*
X162946989Y-122466866D01*
X162560066Y-123283531D01*
X162223348Y-124073593D01*
X161932378Y-124853494D01*
X161682704Y-125639680D01*
X161469871Y-126448595D01*
X161289426Y-127296681D01*
X161136913Y-128200384D01*
X161007878Y-129176148D01*
X160928284Y-129919560D01*
X160888466Y-130325149D01*
X160777664Y-129742115D01*
X160656482Y-129069268D01*
X160563188Y-128462649D01*
X160494898Y-127891875D01*
X160448726Y-127326560D01*
X160421788Y-126736317D01*
X160411198Y-126090763D01*
X160410781Y-125877788D01*
X160439981Y-124704810D01*
X160527718Y-123592315D01*
X160677286Y-122515762D01*
X160891976Y-121450609D01*
X161126865Y-120540319D01*
X161557493Y-119199402D01*
X162079138Y-117896812D01*
X162688366Y-116637483D01*
X163381741Y-115426349D01*
X164155828Y-114268344D01*
X165007190Y-113168403D01*
X165932393Y-112131459D01*
X166928000Y-111162446D01*
X167990578Y-110266299D01*
X168599235Y-109808472D01*
X168816114Y-109652450D01*
X168980625Y-109539157D01*
X169118226Y-109456244D01*
X169254373Y-109391360D01*
X169414524Y-109332156D01*
X169624135Y-109266281D01*
X169865069Y-109194371D01*
X171120410Y-108867161D01*
X172430078Y-108615487D01*
X173766179Y-108443660D01*
X174059070Y-108423556D01*
X174432066Y-108411085D01*
X174864194Y-108405827D01*
X175334483Y-108407360D01*
G37*
G36*
X170853692Y-114496756D02*
G01*
X170822527Y-114542504D01*
X170737762Y-114648614D01*
X170612494Y-114799075D01*
X170466155Y-114970536D01*
X169655847Y-115985107D01*
X168912033Y-117069968D01*
X168239073Y-118215279D01*
X167641324Y-119411203D01*
X167123145Y-120647900D01*
X166688895Y-121915533D01*
X166342932Y-123204262D01*
X166089614Y-124504250D01*
X166016509Y-125014998D01*
X165943220Y-125585884D01*
X165521915Y-125978271D01*
X165025202Y-126441491D01*
X164589353Y-126849411D01*
X164200484Y-127215242D01*
X163844710Y-127552194D01*
X163508144Y-127873480D01*
X163176902Y-128192309D01*
X162837098Y-128521893D01*
X162474848Y-128875442D01*
X162405200Y-128943612D01*
X162120307Y-129221880D01*
X161858797Y-129475992D01*
X161629375Y-129697592D01*
X161440747Y-129878322D01*
X161301618Y-130009828D01*
X161220694Y-130083754D01*
X161203581Y-130097005D01*
X161192955Y-130052498D01*
X161196166Y-129942053D01*
X161199354Y-129906885D01*
X161211791Y-129780520D01*
X161230806Y-129581651D01*
X161253698Y-129338749D01*
X161275161Y-129108382D01*
X161446719Y-127800964D01*
X161716013Y-126507228D01*
X162079673Y-125233164D01*
X162534332Y-123984764D01*
X163076619Y-122768021D01*
X163703166Y-121588924D01*
X164410602Y-120453467D01*
X165195560Y-119367640D01*
X166054670Y-118337435D01*
X166984562Y-117368844D01*
X167981868Y-116467858D01*
X168709802Y-115887024D01*
X168932709Y-115722524D01*
X169186596Y-115542255D01*
X169459115Y-115354222D01*
X169737922Y-115166432D01*
X170010669Y-114986892D01*
X170265012Y-114823607D01*
X170488603Y-114684583D01*
X170669096Y-114577826D01*
X170794147Y-114511344D01*
X170851407Y-114493142D01*
X170853692Y-114496756D01*
G37*
G36*
X194363473Y-113138323D02*
G01*
X194549232Y-113524722D01*
X194750587Y-113979664D01*
X194955670Y-114474083D01*
X195152613Y-114978915D01*
X195329550Y-115465093D01*
X195409381Y-115699890D01*
X195790787Y-117013316D01*
X196075868Y-118348178D01*
X196264836Y-119697894D01*
X196357901Y-121055880D01*
X196355276Y-122415552D01*
X196257171Y-123770326D01*
X196063798Y-125113619D01*
X195775368Y-126438848D01*
X195392092Y-127739428D01*
X194988043Y-128830086D01*
X194860714Y-129138687D01*
X194765842Y-129357771D01*
X194700297Y-129492769D01*
X194660951Y-129549114D01*
X194644675Y-129532235D01*
X194648340Y-129447563D01*
X194652498Y-129412574D01*
X194672041Y-129200979D01*
X194688450Y-128907801D01*
X194701514Y-128552811D01*
X194711028Y-128155780D01*
X194716780Y-127736482D01*
X194718565Y-127314686D01*
X194716172Y-126910165D01*
X194709393Y-126542690D01*
X194698021Y-126232034D01*
X194687775Y-126066138D01*
X194529280Y-124667215D01*
X194271477Y-123288065D01*
X193914888Y-121930691D01*
X193460032Y-120597099D01*
X192953392Y-119388923D01*
X192651885Y-118730699D01*
X192903280Y-117835709D01*
X193018448Y-117419875D01*
X193152182Y-116927203D01*
X193298791Y-116379307D01*
X193452587Y-115797804D01*
X193607880Y-115204308D01*
X193758981Y-114620434D01*
X193900201Y-114067798D01*
X194012910Y-113619959D01*
X194208902Y-112834131D01*
X194363473Y-113138323D01*
G37*
G36*
X181203794Y-105995010D02*
G01*
X182574427Y-106107862D01*
X183931918Y-106319182D01*
X184086027Y-106349657D01*
X185028854Y-106561768D01*
X185958378Y-106812632D01*
X186855190Y-107095877D01*
X187699875Y-107405134D01*
X188473023Y-107734031D01*
X188835354Y-107908197D01*
X189272591Y-108127904D01*
X187858052Y-109008007D01*
X187479596Y-109244056D01*
X187095753Y-109484515D01*
X186723781Y-109718499D01*
X186380935Y-109935122D01*
X186084476Y-110123497D01*
X185851658Y-110272738D01*
X185795459Y-110309125D01*
X185568509Y-110454793D01*
X185371378Y-110577976D01*
X185219652Y-110669197D01*
X185128912Y-110718979D01*
X185111027Y-110725346D01*
X185056815Y-110701722D01*
X184926643Y-110638580D01*
X184734627Y-110542963D01*
X184494886Y-110421913D01*
X184221533Y-110282471D01*
X184162075Y-110251970D01*
X182894355Y-109655770D01*
X181603342Y-109157684D01*
X180284895Y-108756475D01*
X178934873Y-108450904D01*
X177549137Y-108239735D01*
X177360518Y-108218544D01*
X176931926Y-108182249D01*
X176433781Y-108156429D01*
X175890863Y-108141093D01*
X175327951Y-108136253D01*
X174769824Y-108141918D01*
X174241262Y-108158100D01*
X173767045Y-108184807D01*
X173415554Y-108216889D01*
X172515731Y-108335016D01*
X171687843Y-108476166D01*
X170904072Y-108645184D01*
X170772889Y-108677119D01*
X170521693Y-108738043D01*
X170308259Y-108787453D01*
X170150515Y-108821381D01*
X170066392Y-108835859D01*
X170057481Y-108835458D01*
X170090232Y-108803876D01*
X170198495Y-108734483D01*
X170367396Y-108635419D01*
X170582058Y-108514825D01*
X170827608Y-108380840D01*
X171089170Y-108241605D01*
X171351868Y-108105259D01*
X171600828Y-107979943D01*
X171776112Y-107894993D01*
X173060499Y-107340951D01*
X174376303Y-106879783D01*
X175717159Y-106512287D01*
X177076702Y-106239263D01*
X178448566Y-106061509D01*
X179826385Y-105979825D01*
X181203794Y-105995010D01*
G37*
D14*
G04 #@! TO.C,C12*
X97990639Y-122708821D02*
X97934819Y-122917147D01*
X98686109Y-122895171D02*
X98630289Y-123103497D01*
G04 #@! TO.C,ROT1*
X153152811Y-153311554D02*
X155054333Y-151538358D01*
X156517034Y-150174362D02*
X158418558Y-148401166D01*
X155949002Y-156310104D02*
X153152811Y-153311554D01*
X159881264Y-147037167D02*
X161782782Y-145263974D01*
X161782782Y-145263974D02*
X164578976Y-148262524D01*
X158750135Y-159167320D02*
X161546323Y-162165869D01*
X161262309Y-154090022D02*
X161993663Y-153408024D01*
X161968981Y-154114698D02*
X161286988Y-153383346D01*
X161546323Y-162165869D02*
X170103160Y-154186486D01*
X163539824Y-161810961D02*
X163963829Y-161825765D01*
X163963829Y-161825765D02*
X163949019Y-162249769D01*
X163949019Y-162249769D02*
X163539824Y-161810961D01*
X167306970Y-151187935D02*
X170103160Y-154186486D01*
X164627984Y-153749021D02*
G75*
G02*
X158627986Y-153749021I-2999999J0D01*
G01*
X158627986Y-153749021D02*
G75*
G02*
X164627984Y-153749021I2999999J0D01*
G01*
D15*
G04 #@! TO.C,SW31*
X243345099Y-101285385D02*
X244885071Y-107032645D01*
X248657694Y-99861880D02*
X238032504Y-102708890D01*
D16*
X251918315Y-106235131D02*
X238395353Y-109858601D01*
X234771883Y-96335639D01*
X248294845Y-92712169D01*
X251918315Y-106235131D01*
D15*
G04 #@! TO.C,SW9*
X98054101Y-101560805D02*
X97123315Y-107437549D01*
X103486384Y-102421192D02*
X92621818Y-100700418D01*
D16*
X106062964Y-95742028D02*
X103872878Y-109569668D01*
X90045238Y-107379582D01*
X92235324Y-93551942D01*
X106062964Y-95742028D01*
D14*
G04 #@! TO.C,ROT2*
X119984906Y-137228215D02*
X120657840Y-134716805D01*
X121175475Y-132784955D02*
X121848409Y-130273547D01*
X122366044Y-128341693D02*
X123038976Y-125830286D01*
X123038976Y-125830286D02*
X126999272Y-126891453D01*
X123945206Y-138289372D02*
X119984906Y-137228215D01*
X127274677Y-133591011D02*
X127533498Y-132625084D01*
X127887049Y-133237459D02*
X126921129Y-132978640D01*
X130862967Y-127926725D02*
X134823273Y-128987875D01*
X127834788Y-139228053D02*
X131795091Y-140289214D01*
X131795091Y-140289214D02*
X134823273Y-128987875D01*
X133297598Y-138931841D02*
X133665023Y-138719709D01*
X133665023Y-138719709D02*
X133877151Y-139087130D01*
X133877151Y-139087130D02*
X133297598Y-138931841D01*
X130404092Y-133108043D02*
G75*
G02*
X124404090Y-133108043I-3000001J0D01*
G01*
X124404090Y-133108043D02*
G75*
G02*
X130404092Y-133108043I3000001J0D01*
G01*
G04 #@! TO.C,R5*
X116388979Y-127198069D02*
X116468515Y-126901260D01*
X117123081Y-127394766D02*
X117202617Y-127097957D01*
D15*
G04 #@! TO.C,SW4*
X78835213Y-76248249D02*
X78835213Y-82198247D01*
X84335212Y-76248248D02*
X73335214Y-76248250D01*
D16*
X85835213Y-83248249D02*
X71835213Y-83248249D01*
X71835213Y-69248249D01*
X85835213Y-69248249D01*
X85835213Y-83248249D01*
D15*
G04 #@! TO.C,SW23*
X294181648Y-96563240D02*
X305181646Y-96563238D01*
X299681647Y-96563239D02*
X299681647Y-90613241D01*
D16*
X306681647Y-103563239D02*
X292681647Y-103563239D01*
X292681647Y-89563239D01*
X306681647Y-89563239D01*
X306681647Y-103563239D01*
D15*
G04 #@! TO.C,SW21*
X127298530Y-133038352D02*
X125758554Y-138785608D01*
X132611122Y-134461859D02*
X121985938Y-131614845D01*
D16*
X135871743Y-128088604D02*
X132248278Y-141611565D01*
X118725317Y-137988100D01*
X122348782Y-124465139D01*
X135871743Y-128088604D01*
D14*
G04 #@! TO.C,U1*
X108947565Y-121290928D02*
X108877684Y-121551725D01*
X107518888Y-126622833D02*
X107588765Y-126362037D01*
X110184835Y-127337174D02*
X107518888Y-126622833D01*
X110184835Y-127337174D02*
X112850793Y-128051510D01*
X111613523Y-122005264D02*
X108947565Y-121290928D01*
X111613523Y-122005264D02*
X114279470Y-122719605D01*
X114279470Y-122719605D02*
X114209593Y-122980401D01*
X112850793Y-128051510D02*
X112920674Y-127790713D01*
X113806018Y-128369582D02*
X113342375Y-128245351D01*
X113659610Y-127988712D01*
X113806018Y-128369582D01*
G36*
X113806018Y-128369582D02*
G01*
X113342375Y-128245351D01*
X113659610Y-127988712D01*
X113806018Y-128369582D01*
G37*
G04 #@! TO.C,ROT4*
X225925410Y-128925768D02*
X229885701Y-127864609D01*
X226598335Y-131437170D02*
X225925410Y-128925768D01*
X227788903Y-135880434D02*
X227115976Y-133369027D01*
X228979474Y-140323693D02*
X228306537Y-137812284D01*
X233749409Y-126829335D02*
X237709703Y-125768178D01*
X233473995Y-133528893D02*
X233215178Y-132562971D01*
X233827551Y-132916523D02*
X232861627Y-133175343D01*
X232939771Y-139262532D02*
X228979474Y-140323693D01*
X236777588Y-138130666D02*
X240737886Y-137069501D01*
X240737886Y-137069501D02*
X237709703Y-125768178D01*
X241360411Y-135142731D02*
X241572547Y-134775303D01*
X241572547Y-134775303D02*
X241939966Y-134987443D01*
X241939966Y-134987443D02*
X241360411Y-135142731D01*
X236344590Y-133045935D02*
G75*
G02*
X230344584Y-133045935I-3000003J0D01*
G01*
X230344584Y-133045935D02*
G75*
G02*
X236344590Y-133045935I3000003J0D01*
G01*
G04 #@! TO.C,ROT3*
X190577364Y-154010962D02*
X193373556Y-151012417D01*
X192478881Y-155784158D02*
X190577364Y-154010962D01*
X196101549Y-148086999D02*
X198897744Y-145088448D01*
X195843106Y-158921352D02*
X193941592Y-157148157D01*
X199393538Y-153207816D02*
X198711538Y-153939173D01*
X199418216Y-153914497D02*
X198686859Y-153232494D01*
X199207337Y-162058542D02*
X197305816Y-160285349D01*
X202003528Y-159059990D02*
X199207337Y-162058542D01*
X204658386Y-156066382D02*
X207454580Y-153067828D01*
X206946672Y-150679940D02*
X207370677Y-150665131D01*
X206961479Y-151103945D02*
X206946672Y-150679940D01*
X207370677Y-150665131D02*
X206961479Y-151103945D01*
X207454580Y-153067828D02*
X198897744Y-145088448D01*
X202052536Y-153573498D02*
G75*
G02*
X196052542Y-153573498I-2999997J0D01*
G01*
X196052542Y-153573498D02*
G75*
G02*
X202052536Y-153573498I2999997J0D01*
G01*
G04 #@! TO.C,U5*
X84430353Y-64165531D02*
X83630354Y-64165528D01*
X84430353Y-64165531D02*
X85230350Y-64165527D01*
X84430349Y-67285529D02*
X83630352Y-67285533D01*
X84430349Y-67285529D02*
X85230348Y-67285532D01*
X83370353Y-63885531D02*
X83130349Y-64215532D01*
X82890351Y-63885530D01*
X83370353Y-63885531D01*
G36*
X83370353Y-63885531D02*
G01*
X83130349Y-64215532D01*
X82890351Y-63885530D01*
X83370353Y-63885531D01*
G37*
D15*
G04 #@! TO.C,SW33*
X234545265Y-68443919D02*
X236085236Y-74191167D01*
X239857859Y-67020416D02*
X229232671Y-69867422D01*
D16*
X243118481Y-73393665D02*
X229595519Y-77017135D01*
X225972049Y-63494173D01*
X239495011Y-59870703D01*
X243118481Y-73393665D01*
D14*
G04 #@! TO.C,C11*
X95587704Y-120082911D02*
X95531884Y-120291237D01*
X96283174Y-120269261D02*
X96227354Y-120477587D01*
G04 #@! TO.C,R13*
X82380354Y-59441890D02*
X82380345Y-59749169D01*
X83140349Y-59441899D02*
X83140340Y-59749178D01*
D15*
G04 #@! TO.C,SW25*
X281681640Y-110248243D02*
X281681640Y-116198241D01*
X287181639Y-110248242D02*
X276181641Y-110248244D01*
D16*
X288681640Y-117248243D02*
X274681640Y-117248243D01*
X274681640Y-103248243D01*
X288681640Y-103248243D01*
X288681640Y-117248243D01*
D14*
G04 #@! TO.C,C15*
X120869706Y-118511367D02*
X120813891Y-118719696D01*
X121565171Y-118697714D02*
X121509356Y-118906043D01*
D15*
G04 #@! TO.C,SW19*
X161575401Y-153633978D02*
X157223849Y-157691865D01*
X165326394Y-157656424D02*
X157824408Y-149611532D01*
D16*
X171468862Y-153979467D02*
X161229912Y-163527439D01*
X151681940Y-153288489D01*
X161920890Y-143740517D01*
X171468862Y-153979467D01*
D14*
G04 #@! TO.C,C4*
X101108407Y-111115886D02*
X101164231Y-110907563D01*
X101803877Y-111302237D02*
X101859701Y-111093914D01*
G04 #@! TO.C,C5*
X98485477Y-120859363D02*
X98429657Y-121067689D01*
X99180947Y-121045713D02*
X99125127Y-121254039D01*
G04 #@! TO.C,R7*
X254333555Y-122724890D02*
X254254023Y-122428079D01*
X255067659Y-122528191D02*
X254988127Y-122231380D01*
D15*
G04 #@! TO.C,SW15*
X133458422Y-110049316D02*
X131918450Y-115796575D01*
X138771020Y-111472821D02*
X128145824Y-108625811D01*
D16*
X142031638Y-105099572D02*
X138408166Y-118622532D01*
X124885206Y-114999060D01*
X128508678Y-101476100D01*
X142031638Y-105099572D01*
D15*
G04 #@! TO.C,SW38*
X200817222Y-102912880D02*
X211442412Y-100065870D01*
X206129817Y-101489375D02*
X204589845Y-95742115D01*
D16*
X214703033Y-106439121D02*
X201180071Y-110062591D01*
X197556601Y-96539629D01*
X211079563Y-92916159D01*
X214703033Y-106439121D01*
D15*
G04 #@! TO.C,SW39*
X196417306Y-86492130D02*
X207042496Y-83645120D01*
X201729901Y-85068625D02*
X200189929Y-79321365D01*
D16*
X210303117Y-90018371D02*
X196780155Y-93641841D01*
X193156685Y-80118879D01*
X206679647Y-76495409D01*
X210303117Y-90018371D01*
D15*
G04 #@! TO.C,SW6*
X78835214Y-110248242D02*
X78835214Y-116198240D01*
X84335213Y-110248241D02*
X73335215Y-110248243D01*
D16*
X85835214Y-117248242D02*
X71835214Y-117248242D01*
X71835214Y-103248242D01*
X85835214Y-103248242D01*
X85835214Y-117248242D01*
D14*
G04 #@! TO.C,R6*
X115131646Y-127640438D02*
X115052117Y-127937246D01*
X115865741Y-127837144D02*
X115786212Y-128133952D01*
G04 #@! TO.C,C1*
X116272465Y-115608026D02*
X116216641Y-115816349D01*
X116967935Y-115794377D02*
X116912111Y-116002700D01*
D15*
G04 #@! TO.C,SW18*
X144674514Y-116486599D02*
X155299696Y-119333609D01*
X149987105Y-117910104D02*
X151527079Y-112162841D01*
D16*
X158560321Y-112960360D02*
X154936849Y-126483320D01*
X141413889Y-122859848D01*
X145037361Y-109336888D01*
X158560321Y-112960360D01*
D15*
G04 #@! TO.C,SW22*
X294181638Y-113563246D02*
X305181636Y-113563244D01*
X299681637Y-113563245D02*
X299681637Y-107613247D01*
D16*
X306681637Y-120563245D02*
X292681637Y-120563245D01*
X292681637Y-106563245D01*
X306681637Y-106563245D01*
X306681637Y-120563245D01*
D15*
G04 #@! TO.C,SW5*
X78835211Y-93248242D02*
X78835211Y-99198240D01*
X84335210Y-93248241D02*
X73335212Y-93248243D01*
D16*
X85835211Y-100248242D02*
X71835211Y-100248242D01*
X71835211Y-86248242D01*
X85835211Y-86248242D01*
X85835211Y-100248242D01*
D15*
G04 #@! TO.C,SW11*
X121571671Y-84864657D02*
X120031697Y-90611920D01*
X126884262Y-86288162D02*
X116259080Y-83441152D01*
D16*
X130144887Y-79914913D02*
X126521415Y-93437873D01*
X112998455Y-89814401D01*
X116621927Y-76291441D01*
X130144887Y-79914913D01*
D15*
G04 #@! TO.C,SW14*
X137858344Y-93628579D02*
X136318372Y-99375838D01*
X143170942Y-95052084D02*
X132545746Y-92205074D01*
D16*
X146431560Y-88678835D02*
X142808088Y-102201795D01*
X129285128Y-98578323D01*
X132908600Y-85055363D01*
X146431560Y-88678835D01*
D15*
G04 #@! TO.C,SW17*
X149074436Y-100065857D02*
X159699618Y-102912867D01*
X154387027Y-101489362D02*
X155927001Y-95742099D01*
D16*
X162960243Y-96539618D02*
X159336771Y-110062578D01*
X145813811Y-106439106D01*
X149437283Y-92916146D01*
X162960243Y-96539618D01*
D14*
G04 #@! TO.C,C6*
X105078681Y-124631826D02*
X105022856Y-124840150D01*
X105774150Y-124818178D02*
X105718325Y-125026502D01*
D15*
G04 #@! TO.C,SW32*
X238945192Y-84864654D02*
X240485171Y-90611909D01*
X244257786Y-83441151D02*
X233632598Y-86288157D01*
D16*
X247518407Y-89814400D02*
X233995446Y-93437869D01*
X230371977Y-79914908D01*
X243894938Y-76291439D01*
X247518407Y-89814400D01*
D15*
G04 #@! TO.C,SW10*
X125971593Y-68443915D02*
X124431619Y-74191178D01*
X131284184Y-69867420D02*
X120659002Y-67020410D01*
D16*
X134544809Y-63494171D02*
X130921337Y-77017131D01*
X117398377Y-73393659D01*
X121021849Y-59870699D01*
X134544809Y-63494171D01*
D15*
G04 #@! TO.C,SW26*
X281681645Y-93248237D02*
X281681645Y-99198235D01*
X287181644Y-93248236D02*
X276181646Y-93248238D01*
D16*
X288681645Y-100248237D02*
X274681645Y-100248237D01*
X274681645Y-86248237D01*
X288681645Y-86248237D01*
X288681645Y-100248237D01*
D14*
G04 #@! TO.C,C14*
X96479088Y-115288295D02*
X96423266Y-115496619D01*
X97174560Y-115474647D02*
X97118738Y-115682971D01*
D15*
G04 #@! TO.C,SW36*
X218258577Y-77207832D02*
X219798549Y-82955092D01*
X223571172Y-75784327D02*
X212945982Y-78631337D01*
D16*
X226831793Y-82157578D02*
X213308831Y-85781048D01*
X209685361Y-72258086D01*
X223208323Y-68634616D01*
X226831793Y-82157578D01*
D15*
G04 #@! TO.C,SW29*
X259803359Y-84770101D02*
X260734143Y-90646843D01*
X265235646Y-83909710D02*
X254371072Y-85630492D01*
D16*
X267812217Y-90588879D02*
X253984581Y-92778959D01*
X251794501Y-78951323D01*
X265622137Y-76761243D01*
X267812217Y-90588879D01*
D14*
G04 #@! TO.C,J3*
X72010349Y-60295529D02*
X72010348Y-58395529D01*
X72010349Y-64195531D02*
X72010348Y-62195534D01*
X81410340Y-58395532D02*
X72010348Y-58395529D01*
X81410347Y-60295534D02*
X81410340Y-58395532D01*
X81410348Y-64195534D02*
X81410346Y-62195531D01*
G04 #@! TO.C,C18*
X251100193Y-123330787D02*
X251156010Y-123539111D01*
X251795654Y-123144433D02*
X251851471Y-123352757D01*
G04 #@! TO.C,R4*
X96041671Y-122139169D02*
X95962143Y-122435982D01*
X96775771Y-122335870D02*
X96696243Y-122632683D01*
G04 #@! TO.C,U4*
X119562164Y-118188787D02*
X118789430Y-117981730D01*
X119562164Y-118188787D02*
X120334903Y-118395844D01*
X120369690Y-115175097D02*
X119596951Y-114968040D01*
X120369690Y-115175097D02*
X121142424Y-115382154D01*
X119418275Y-114630285D02*
X119101037Y-114886930D01*
X118954627Y-114506060D01*
X119418275Y-114630285D01*
G36*
X119418275Y-114630285D02*
G01*
X119101037Y-114886930D01*
X118954627Y-114506060D01*
X119418275Y-114630285D01*
G37*
D17*
G04 #@! TO.C,J2*
X187270441Y-118326559D02*
X189572243Y-117709789D01*
X187270441Y-118326559D02*
X190117453Y-128951743D01*
X191939727Y-117075423D02*
X193544134Y-116645530D01*
X190117453Y-128951743D02*
X192419253Y-128334977D01*
X193544134Y-116645530D02*
X194157275Y-118933807D01*
X194786737Y-127700608D02*
X196391145Y-127270711D01*
X196391145Y-127270711D02*
X195777998Y-124982432D01*
X196472824Y-125138800D02*
G75*
G02*
X196218814Y-125138800I-127005J0D01*
G01*
X196218814Y-125138800D02*
G75*
G02*
X196472824Y-125138800I127005J0D01*
G01*
D14*
G04 #@! TO.C,R12*
X82370349Y-61829169D02*
X82370349Y-61521896D01*
X83130341Y-61829170D02*
X83130341Y-61521897D01*
G04 #@! TO.C,R10*
X250083470Y-123863688D02*
X250003939Y-123566876D01*
X250817577Y-123666986D02*
X250738046Y-123370174D01*
G04 #@! TO.C,Y1*
X116282280Y-114335027D02*
X112302663Y-113268694D01*
X115397123Y-117638490D02*
X116282280Y-114335027D01*
D15*
G04 #@! TO.C,SW2*
X55335216Y-96563244D02*
X66335214Y-96563242D01*
X60835215Y-96563243D02*
X60835215Y-90613245D01*
D16*
X67835215Y-103563243D02*
X53835215Y-103563243D01*
X53835215Y-89563243D01*
X67835215Y-89563243D01*
X67835215Y-103563243D01*
D15*
G04 #@! TO.C,SW8*
X100713495Y-84770102D02*
X99782709Y-90646846D01*
X106145778Y-85630489D02*
X95281212Y-83909715D01*
D16*
X108722358Y-78951325D02*
X106532272Y-92778965D01*
X92704632Y-90588879D01*
X94894718Y-76761239D01*
X108722358Y-78951325D01*
D15*
G04 #@! TO.C,SW35*
X222658504Y-93628569D02*
X224198476Y-99375829D01*
X227971099Y-92205064D02*
X217345909Y-95052074D01*
D16*
X231231720Y-98578315D02*
X217708758Y-102201785D01*
X214085288Y-88678823D01*
X227608250Y-85055353D01*
X231231720Y-98578315D01*
D14*
G04 #@! TO.C,U2*
X98976292Y-112046954D02*
X98808065Y-112674800D01*
X97107627Y-119020939D02*
X97275860Y-118393082D01*
X97735473Y-119189166D02*
X97107627Y-119020939D01*
X99604149Y-112215187D02*
X98976292Y-112046954D01*
X103453755Y-120721371D02*
X103791831Y-120811960D01*
X105322431Y-113747392D02*
X105950277Y-113915619D01*
X105950277Y-113915619D02*
X105782044Y-114543476D01*
X104249839Y-120261758D02*
X104143722Y-120657785D01*
X104228015Y-121270479D02*
X103764372Y-121146248D01*
X104081612Y-120889604D01*
X104228015Y-121270479D01*
G36*
X104228015Y-121270479D02*
G01*
X103764372Y-121146248D01*
X104081612Y-120889604D01*
X104228015Y-121270479D01*
G37*
D18*
G04 #@! TO.C,U3*
X247928218Y-116508497D02*
X248003275Y-116788612D01*
X247928218Y-116508497D02*
X248208338Y-116433436D01*
X249222314Y-121338121D02*
X249147251Y-121058004D01*
X249222314Y-121338121D02*
X249502429Y-121263062D01*
X252757846Y-115214401D02*
X252477726Y-115289454D01*
X252757846Y-115214401D02*
X252832904Y-115494516D01*
X254051941Y-120044029D02*
X253771823Y-120119079D01*
X254051941Y-120044029D02*
X253976884Y-119763909D01*
D15*
X254923751Y-119060763D02*
G75*
G02*
X254723753Y-119060763I-99999J0D01*
G01*
X254723753Y-119060763D02*
G75*
G02*
X254923751Y-119060763I99999J0D01*
G01*
D14*
G04 #@! TO.C,R9*
X255398623Y-122449715D02*
X255319091Y-122152904D01*
X256132727Y-122253016D02*
X256053195Y-121956205D01*
G04 #@! TO.C,R8*
X252208510Y-123294288D02*
X252128979Y-122997476D01*
X252942617Y-123097586D02*
X252863086Y-122800774D01*
G04 #@! TO.C,C13*
X102103325Y-111382464D02*
X102159149Y-111174141D01*
X102798795Y-111568815D02*
X102854619Y-111360492D01*
D17*
G04 #@! TO.C,J1*
X164120373Y-127290623D02*
X164733519Y-125002341D01*
X166967385Y-116665434D02*
X166354241Y-118953717D01*
X165724776Y-127720518D02*
X164120373Y-127290623D01*
X168571786Y-117095336D02*
X166967385Y-116665434D01*
X173241069Y-118346464D02*
X170939273Y-117729706D01*
X170394061Y-128971651D02*
X168092262Y-128354883D01*
X170394061Y-128971651D02*
X173241069Y-118346464D01*
X166067670Y-118534394D02*
G75*
G02*
X165813678Y-118534394I-126996J0D01*
G01*
X165813678Y-118534394D02*
G75*
G02*
X166067670Y-118534394I126996J0D01*
G01*
D14*
G04 #@! TO.C,C7*
X96553634Y-120341729D02*
X96497814Y-120550055D01*
X97249104Y-120528079D02*
X97193284Y-120736405D01*
D15*
G04 #@! TO.C,SW40*
X198941445Y-153633979D02*
X203293000Y-157691867D01*
X202692432Y-149611535D02*
X195190458Y-157656423D01*
D16*
X208834911Y-153288491D02*
X199286933Y-163527445D01*
X189047979Y-153979467D01*
X198595957Y-143740513D01*
X208834911Y-153288491D01*
D15*
G04 #@! TO.C,SW20*
X145884237Y-140927513D02*
X142819760Y-146027657D01*
X150598661Y-143760220D02*
X141169813Y-138094806D01*
D16*
X155489674Y-138532607D02*
X148279143Y-150532950D01*
X136278800Y-143322419D01*
X143489331Y-131322076D01*
X155489674Y-138532607D01*
D15*
G04 #@! TO.C,SW42*
X233218323Y-133038354D02*
X234758295Y-138785614D01*
X238530917Y-131614848D02*
X227905729Y-134461860D01*
D16*
X241791539Y-137988100D02*
X228268577Y-141611570D01*
X224645107Y-128088608D01*
X238168069Y-124465138D01*
X241791539Y-137988100D01*
D14*
G04 #@! TO.C,R11*
X249020966Y-124148390D02*
X248941435Y-123851578D01*
X249755073Y-123951688D02*
X249675542Y-123654876D01*
D15*
G04 #@! TO.C,SW28*
X262462754Y-101560809D02*
X263393538Y-107437550D01*
X267895041Y-100700418D02*
X257030467Y-102421200D01*
D16*
X270471612Y-107379587D02*
X256643976Y-109569667D01*
X254453896Y-95742031D01*
X268281532Y-93551951D01*
X270471612Y-107379587D01*
D14*
G04 #@! TO.C,C2*
X110753741Y-115108318D02*
X110809565Y-114899995D01*
X111449211Y-115294669D02*
X111505035Y-115086346D01*
G04 #@! TO.C,R1*
X109708353Y-114875631D02*
X109787881Y-114578818D01*
X110442453Y-115072332D02*
X110521981Y-114775519D01*
G04 #@! TO.C,C9*
X99451414Y-121118188D02*
X99395594Y-121326514D01*
X100146884Y-121304538D02*
X100091064Y-121512864D01*
G04 #@! TO.C,C8*
X97519558Y-120600547D02*
X97463738Y-120808873D01*
X98215028Y-120786897D02*
X98159208Y-120995223D01*
D15*
G04 #@! TO.C,SW16*
X153474362Y-83645122D02*
X164099544Y-86492132D01*
X158786953Y-85068627D02*
X160326927Y-79321364D01*
D16*
X167360169Y-80118883D02*
X163736697Y-93641843D01*
X150213737Y-90018371D01*
X153837209Y-76495411D01*
X167360169Y-80118883D01*
D15*
G04 #@! TO.C,SW24*
X294181640Y-79563238D02*
X305181638Y-79563236D01*
X299681639Y-79563237D02*
X299681639Y-73613239D01*
D16*
X306681639Y-86563237D02*
X292681639Y-86563237D01*
X292681639Y-72563237D01*
X306681639Y-72563237D01*
X306681639Y-86563237D01*
D15*
G04 #@! TO.C,SW27*
X281681642Y-76248246D02*
X281681642Y-82198244D01*
X287181641Y-76248245D02*
X276181643Y-76248247D01*
D16*
X288681642Y-83248246D02*
X274681642Y-83248246D01*
X274681642Y-69248246D01*
X288681642Y-69248246D01*
X288681642Y-83248246D01*
D15*
G04 #@! TO.C,SW13*
X142258273Y-77207838D02*
X140718299Y-82955101D01*
X147570864Y-78631343D02*
X136945682Y-75784333D01*
D16*
X150831489Y-72258094D02*
X147208017Y-85781054D01*
X133685057Y-82157582D01*
X137308529Y-68634622D01*
X150831489Y-72258094D01*
D15*
G04 #@! TO.C,SW1*
X55335213Y-79563246D02*
X66335211Y-79563244D01*
X60835212Y-79563245D02*
X60835212Y-73613247D01*
D16*
X67835212Y-86563245D02*
X53835212Y-86563245D01*
X53835212Y-72563245D01*
X67835212Y-72563245D01*
X67835212Y-86563245D01*
D15*
G04 #@! TO.C,SW34*
X227058425Y-110049320D02*
X228598397Y-115796580D01*
X232371019Y-108625817D02*
X221745831Y-111472823D01*
D16*
X235631641Y-114999066D02*
X222108679Y-118622536D01*
X218485209Y-105099574D01*
X232008171Y-101476104D01*
X235631641Y-114999066D01*
D14*
G04 #@! TO.C,C10*
X106687108Y-117002499D02*
X106895431Y-117058323D01*
X106873459Y-116307029D02*
X107081782Y-116362853D01*
G04 #@! TO.C,C3*
X98956573Y-122967639D02*
X98900753Y-123175965D01*
X99652043Y-123153989D02*
X99596223Y-123362315D01*
D15*
G04 #@! TO.C,SW41*
X214632612Y-140927509D02*
X217697085Y-146027651D01*
X219347035Y-138094804D02*
X209918189Y-143760214D01*
D16*
X224238046Y-143322415D02*
X212237706Y-150532943D01*
X205027178Y-138532603D01*
X217027518Y-131322075D01*
X224238046Y-143322415D01*
D14*
G04 #@! TO.C,C16*
X253222669Y-122751838D02*
X253278494Y-122960161D01*
X253918136Y-122565493D02*
X253973961Y-122773816D01*
D15*
G04 #@! TO.C,SW30*
X257143981Y-67979408D02*
X258074768Y-73856157D01*
X262576268Y-67119017D02*
X251711694Y-68839799D01*
D16*
X265152839Y-73798186D02*
X251325203Y-75988266D01*
X249135123Y-62160630D01*
X262962759Y-59970550D01*
X265152839Y-73798186D01*
D15*
G04 #@! TO.C,SW7*
X103372872Y-67979404D02*
X102442086Y-73856148D01*
X108805155Y-68839791D02*
X97940589Y-67119017D01*
D16*
X111381735Y-62160627D02*
X109191649Y-75988267D01*
X95364009Y-73798181D01*
X97554095Y-59970541D01*
X111381735Y-62160627D01*
D15*
G04 #@! TO.C,SW3*
X55335211Y-113563250D02*
X66335209Y-113563248D01*
X60835210Y-113563249D02*
X60835210Y-107613251D01*
D16*
X67835210Y-120563249D02*
X53835210Y-120563249D01*
X53835210Y-106563249D01*
X67835210Y-106563249D01*
X67835210Y-120563249D01*
D14*
G04 #@! TO.C,R3*
X97017257Y-122400584D02*
X96937729Y-122697397D01*
X97751357Y-122597285D02*
X97671829Y-122894098D01*
G04 #@! TO.C,C17*
X118374680Y-119112935D02*
X118583005Y-119168755D01*
X118561037Y-118417469D02*
X118769362Y-118473289D01*
D15*
G04 #@! TO.C,SW12*
X117171735Y-101285382D02*
X115631761Y-107032645D01*
X122484326Y-102708887D02*
X111859144Y-99861877D01*
D16*
X125744951Y-96335638D02*
X122121479Y-109858598D01*
X108598519Y-106235126D01*
X112221991Y-92712166D01*
X125744951Y-96335638D01*
D15*
G04 #@! TO.C,SW37*
X205217139Y-119333613D02*
X215842329Y-116486603D01*
X210529734Y-117910108D02*
X208989762Y-112162848D01*
D16*
X219102950Y-122859854D02*
X205579988Y-126483324D01*
X201956518Y-112960362D01*
X215479480Y-109336892D01*
X219102950Y-122859854D01*
G04 #@! TD*
%LPC*%
D19*
G04 #@! TO.C,C12*
X98434688Y-122442513D03*
X98186240Y-123369805D03*
G04 #@! TD*
D20*
G04 #@! TO.C,ROT1*
X165723566Y-149929826D03*
D21*
X164914591Y-160939169D03*
D22*
X168571357Y-157529180D03*
X166742973Y-159234174D03*
D23*
X155025611Y-150334542D03*
X158682379Y-146924548D03*
G04 #@! TD*
D24*
G04 #@! TO.C,SW31*
X248657694Y-99861880D03*
D25*
X243345099Y-101285385D03*
D24*
X238032504Y-102708890D03*
D26*
X239498985Y-106250002D03*
X244872129Y-106984347D03*
G04 #@! TD*
D24*
G04 #@! TO.C,SW9*
X103486384Y-102421192D03*
D25*
X98054101Y-101560805D03*
D24*
X92621818Y-100700418D03*
D26*
X92521208Y-104531852D03*
X97131136Y-107388164D03*
G04 #@! TD*
D24*
G04 #@! TO.C,MS6*
X147728577Y-105088680D03*
D25*
X153041164Y-106512180D03*
D24*
X158353764Y-107935686D03*
D26*
X147228028Y-108888602D03*
G04 #@! TD*
D27*
G04 #@! TO.C,ROT2*
X128853474Y-127698861D03*
D28*
X134001488Y-137464000D03*
D22*
X135295581Y-132634376D03*
X134648534Y-135049188D03*
D23*
X119995554Y-133711131D03*
X121289655Y-128881501D03*
G04 #@! TD*
D29*
G04 #@! TO.C,R5*
X116663798Y-127640632D03*
X116927798Y-126655394D03*
G04 #@! TD*
D24*
G04 #@! TO.C,SW4*
X84335212Y-76248248D03*
D25*
X78835213Y-76248249D03*
D24*
X73335214Y-76248250D03*
D26*
X73835212Y-80048252D03*
X78835215Y-82148249D03*
G04 #@! TD*
D24*
G04 #@! TO.C,SW23*
X294181648Y-96563240D03*
D25*
X299681647Y-96563239D03*
D24*
X305181646Y-96563238D03*
D26*
X304681648Y-92763236D03*
X299681645Y-90663239D03*
G04 #@! TD*
D24*
G04 #@! TO.C,MS8*
X294181638Y-101763243D03*
D25*
X299681637Y-101763245D03*
D24*
X305181638Y-101763248D03*
D26*
X294681640Y-105563244D03*
G04 #@! TD*
D24*
G04 #@! TO.C,SW21*
X132611122Y-134461859D03*
D25*
X127298530Y-133038352D03*
D24*
X121985938Y-131614845D03*
D26*
X121485390Y-135414773D03*
X125771497Y-138737308D03*
G04 #@! TD*
D30*
G04 #@! TO.C,U1*
X113871383Y-127439817D03*
X114200091Y-126213093D03*
X114528786Y-124986370D03*
X114857490Y-123759647D03*
X107926975Y-121902621D03*
X107598267Y-123129345D03*
X107269572Y-124356068D03*
X106940868Y-125582791D03*
G04 #@! TD*
D31*
G04 #@! TO.C,ROT4*
X231895201Y-127636746D03*
D32*
X241236080Y-133519603D03*
D22*
X239941984Y-128689980D03*
X240589031Y-131104789D03*
D23*
X227230154Y-137272484D03*
X225936056Y-132442852D03*
G04 #@! TD*
D33*
G04 #@! TO.C,ROT3*
X194956961Y-149754310D03*
D34*
X205995905Y-149793340D03*
D22*
X202339142Y-146383354D03*
X204167522Y-148088342D03*
D23*
X196106934Y-160397968D03*
X192450164Y-156987972D03*
G04 #@! TD*
D24*
G04 #@! TO.C,MS5*
X152128499Y-88667938D03*
D25*
X157441086Y-90091438D03*
D24*
X162753686Y-91514944D03*
D26*
X151627950Y-92467860D03*
G04 #@! TD*
D35*
G04 #@! TO.C,U5*
X83292851Y-64775528D03*
X83292852Y-65725530D03*
X83292851Y-66675529D03*
X85567851Y-66675532D03*
X85567850Y-65725530D03*
X85567851Y-64775531D03*
G04 #@! TD*
D24*
G04 #@! TO.C,MS4*
X84335210Y-105048244D03*
D25*
X78835211Y-105048242D03*
D24*
X73335210Y-105048239D03*
D26*
X83835208Y-101248243D03*
G04 #@! TD*
D24*
G04 #@! TO.C,MS11*
X197763159Y-91514953D03*
D25*
X203075750Y-90091452D03*
D24*
X208388347Y-88667946D03*
D26*
X199229639Y-95056067D03*
G04 #@! TD*
D24*
G04 #@! TO.C,MS10*
X287181644Y-105048239D03*
D25*
X281681645Y-105048237D03*
D24*
X276181644Y-105048234D03*
D26*
X286681642Y-101248238D03*
G04 #@! TD*
D24*
G04 #@! TO.C,SW33*
X239857859Y-67020416D03*
D25*
X234545265Y-68443919D03*
D24*
X229232671Y-69867422D03*
D26*
X230699151Y-73408536D03*
X236072301Y-74142878D03*
G04 #@! TD*
D24*
G04 #@! TO.C,MS3*
X84335212Y-88048251D03*
D25*
X78835213Y-88048249D03*
D24*
X73335212Y-88048246D03*
D26*
X83835210Y-84248250D03*
G04 #@! TD*
D19*
G04 #@! TO.C,C11*
X96031753Y-119816603D03*
X95783305Y-120743895D03*
G04 #@! TD*
D36*
G04 #@! TO.C,R13*
X82760344Y-59085530D03*
X82760350Y-60105538D03*
G04 #@! TD*
D24*
G04 #@! TO.C,SW25*
X287181639Y-110248242D03*
D25*
X281681640Y-110248243D03*
D24*
X276181641Y-110248244D03*
D26*
X276681639Y-114048246D03*
X281681642Y-116148243D03*
G04 #@! TD*
D19*
G04 #@! TO.C,C15*
X121313754Y-118245060D03*
X121065308Y-119172350D03*
G04 #@! TD*
D24*
G04 #@! TO.C,MS2*
X55335211Y-101763247D03*
D25*
X60835210Y-101763249D03*
D24*
X66335211Y-101763252D03*
D26*
X55835213Y-105563248D03*
G04 #@! TD*
D24*
G04 #@! TO.C,SW19*
X165326394Y-157656424D03*
D25*
X161575401Y-153633978D03*
D24*
X157824408Y-149611532D03*
D26*
X155386265Y-152568806D03*
X157260416Y-157657766D03*
G04 #@! TD*
D37*
G04 #@! TO.C,C4*
X101359830Y-111568546D03*
X101608278Y-110641254D03*
G04 #@! TD*
D19*
G04 #@! TO.C,C5*
X98929526Y-120593055D03*
X98681078Y-121520347D03*
G04 #@! TD*
D38*
G04 #@! TO.C,R7*
X254792838Y-122970757D03*
X254528844Y-121985513D03*
G04 #@! TD*
D24*
G04 #@! TO.C,SW15*
X138771020Y-111472821D03*
D25*
X133458422Y-110049316D03*
D24*
X128145824Y-108625811D03*
D26*
X127645279Y-112425743D03*
X131931387Y-115748277D03*
G04 #@! TD*
D24*
G04 #@! TO.C,SW38*
X200817222Y-102912880D03*
D25*
X206129817Y-101489375D03*
D24*
X211442412Y-100065870D03*
D26*
X209975931Y-96524758D03*
X204602787Y-95790413D03*
G04 #@! TD*
D24*
G04 #@! TO.C,SW39*
X196417306Y-86492130D03*
D25*
X201729901Y-85068625D03*
D24*
X207042496Y-83645120D03*
D26*
X205576015Y-80104008D03*
X200202871Y-79369663D03*
G04 #@! TD*
D24*
G04 #@! TO.C,SW6*
X84335213Y-110248241D03*
D25*
X78835214Y-110248242D03*
D24*
X73335215Y-110248243D03*
D26*
X73835213Y-114048245D03*
X78835216Y-116148242D03*
G04 #@! TD*
D39*
G04 #@! TO.C,R6*
X115590929Y-127394576D03*
X115326929Y-128379814D03*
G04 #@! TD*
D19*
G04 #@! TO.C,C1*
X116716512Y-115341717D03*
X116468064Y-116269009D03*
G04 #@! TD*
D24*
G04 #@! TO.C,SW18*
X144674514Y-116486599D03*
D25*
X149987105Y-117910104D03*
D24*
X155299696Y-119333609D03*
D26*
X155800248Y-115533677D03*
X151514135Y-112211142D03*
G04 #@! TD*
D24*
G04 #@! TO.C,SW22*
X294181638Y-113563246D03*
D25*
X299681637Y-113563245D03*
D24*
X305181636Y-113563244D03*
D26*
X304681638Y-109763242D03*
X299681635Y-107663245D03*
G04 #@! TD*
D24*
G04 #@! TO.C,SW5*
X84335210Y-93248241D03*
D25*
X78835211Y-93248242D03*
D24*
X73335212Y-93248243D03*
D26*
X73835210Y-97048245D03*
X78835213Y-99148242D03*
G04 #@! TD*
D24*
G04 #@! TO.C,SW11*
X126884262Y-86288162D03*
D25*
X121571671Y-84864657D03*
D24*
X116259080Y-83441152D03*
D26*
X115758528Y-87241084D03*
X120044641Y-90563619D03*
G04 #@! TD*
D24*
G04 #@! TO.C,SW14*
X143170942Y-95052084D03*
D25*
X137858344Y-93628579D03*
D24*
X132545746Y-92205074D03*
D26*
X132045201Y-96005006D03*
X136331309Y-99327540D03*
G04 #@! TD*
D24*
G04 #@! TO.C,SW17*
X149074436Y-100065857D03*
D25*
X154387027Y-101489362D03*
D24*
X159699618Y-102912867D03*
D26*
X160200170Y-99112935D03*
X155914057Y-95790400D03*
G04 #@! TD*
D19*
G04 #@! TO.C,C6*
X105522725Y-124365516D03*
X105274281Y-125292812D03*
G04 #@! TD*
D24*
G04 #@! TO.C,SW32*
X244257786Y-83441151D03*
D25*
X238945192Y-84864654D03*
D24*
X233632598Y-86288157D03*
D26*
X235099078Y-89829268D03*
X240472228Y-90563613D03*
G04 #@! TD*
D24*
G04 #@! TO.C,SW10*
X131284184Y-69867420D03*
D25*
X125971593Y-68443915D03*
D24*
X120659002Y-67020410D03*
D26*
X120158450Y-70820342D03*
X124444563Y-74142877D03*
G04 #@! TD*
D24*
G04 #@! TO.C,SW26*
X287181644Y-93248236D03*
D25*
X281681645Y-93248237D03*
D24*
X276181646Y-93248238D03*
D26*
X276681644Y-97048240D03*
X281681647Y-99148237D03*
G04 #@! TD*
D23*
G04 #@! TO.C,TRRS2*
X189973346Y-89875225D03*
X191785081Y-96636706D03*
D40*
X194420821Y-97586900D03*
X193385547Y-93723199D03*
X192609087Y-90825426D03*
X190262262Y-99839988D03*
G04 #@! TD*
D19*
G04 #@! TO.C,C14*
X96923137Y-115021987D03*
X96674689Y-115949279D03*
G04 #@! TD*
D24*
G04 #@! TO.C,MS1*
X55335216Y-84763241D03*
D25*
X60835215Y-84763243D03*
D24*
X66335216Y-84763246D03*
D26*
X55835218Y-88563242D03*
G04 #@! TD*
D24*
G04 #@! TO.C,SW36*
X223571172Y-75784327D03*
D25*
X218258577Y-77207832D03*
D24*
X212945982Y-78631337D03*
D26*
X214412463Y-82172449D03*
X219785607Y-82906794D03*
G04 #@! TD*
D24*
G04 #@! TO.C,SW29*
X265235646Y-83909710D03*
D25*
X259803359Y-84770101D03*
D24*
X254371072Y-85630492D03*
D26*
X255459366Y-89305487D03*
X260726323Y-90597463D03*
G04 #@! TD*
D41*
G04 #@! TO.C,J3*
X79600342Y-64895529D03*
X73820345Y-64895527D03*
D42*
X79960345Y-66340528D03*
X79160340Y-66340529D03*
D43*
X77960347Y-66340530D03*
X76960346Y-66340535D03*
X76460344Y-66340536D03*
X75460346Y-66340527D03*
D42*
X74260346Y-66340533D03*
X73460348Y-66340535D03*
X73460348Y-66340535D03*
X74260346Y-66340533D03*
D43*
X74960348Y-66340531D03*
X75960349Y-66340535D03*
X77460342Y-66340529D03*
X78460344Y-66340529D03*
D42*
X79160340Y-66340529D03*
X79960345Y-66340528D03*
D44*
X81030346Y-61245526D03*
D45*
X81030345Y-65425534D03*
X72390347Y-65425528D03*
D44*
X72390341Y-61245529D03*
G04 #@! TD*
D24*
G04 #@! TO.C,MS9*
X287181641Y-88048248D03*
D25*
X281681642Y-88048246D03*
D24*
X276181641Y-88048243D03*
D26*
X286681639Y-84248247D03*
G04 #@! TD*
D24*
G04 #@! TO.C,MS7*
X294181648Y-84763237D03*
D25*
X299681647Y-84763239D03*
D24*
X305181648Y-84763242D03*
D26*
X294681650Y-88563238D03*
G04 #@! TD*
D46*
G04 #@! TO.C,C18*
X251351599Y-122878130D03*
X251600065Y-123805414D03*
G04 #@! TD*
D39*
G04 #@! TO.C,R4*
X96500957Y-121893307D03*
X96236957Y-122878545D03*
G04 #@! TD*
D47*
G04 #@! TO.C,U4*
X119113066Y-115469903D03*
X118621309Y-117305164D03*
X121064667Y-116976348D03*
G04 #@! TD*
D48*
G04 #@! TO.C,J2*
X194099402Y-119343755D03*
X194228814Y-119826714D03*
X194358222Y-120309678D03*
X194487632Y-120792640D03*
X194617042Y-121275603D03*
X194746451Y-121758567D03*
X194875861Y-122241532D03*
X195005270Y-122724493D03*
X195134680Y-123207459D03*
X195264091Y-123690419D03*
X195393500Y-124173379D03*
X195522909Y-124656343D03*
D49*
X191002350Y-118310108D03*
X193357599Y-127100035D03*
G04 #@! TD*
D50*
G04 #@! TO.C,R12*
X82750345Y-62185533D03*
X82750345Y-61165533D03*
G04 #@! TD*
D38*
G04 #@! TO.C,R10*
X250542755Y-124109553D03*
X250278761Y-123124309D03*
G04 #@! TD*
D51*
G04 #@! TO.C,Y1*
X115132411Y-114917256D03*
X113007373Y-114347854D03*
X112567375Y-115989928D03*
X114692413Y-116559330D03*
G04 #@! TD*
D24*
G04 #@! TO.C,SW2*
X55335216Y-96563244D03*
D25*
X60835215Y-96563243D03*
D24*
X66335214Y-96563242D03*
D26*
X65835216Y-92763240D03*
X60835213Y-90663243D03*
G04 #@! TD*
D24*
G04 #@! TO.C,SW8*
X106145778Y-85630489D03*
D25*
X100713495Y-84770102D03*
D24*
X95281212Y-83909715D03*
D26*
X95180602Y-87741149D03*
X99790530Y-90597461D03*
G04 #@! TD*
D24*
G04 #@! TO.C,SW35*
X227971099Y-92205064D03*
D25*
X222658504Y-93628569D03*
D24*
X217345909Y-95052074D03*
D26*
X218812390Y-98593186D03*
X224185534Y-99327531D03*
G04 #@! TD*
D52*
G04 #@! TO.C,U2*
X104176399Y-119869375D03*
X104279921Y-119483006D03*
X104383446Y-119096635D03*
X104486977Y-118710269D03*
X104590505Y-118323896D03*
X104694031Y-117937528D03*
X104797558Y-117551156D03*
X104901088Y-117164786D03*
X105004615Y-116778415D03*
X105108140Y-116392039D03*
X105211668Y-116005673D03*
X105315194Y-115619307D03*
X105418729Y-115232936D03*
X105522250Y-114846565D03*
D53*
X104930048Y-113820832D03*
X104543679Y-113717310D03*
X104157308Y-113613785D03*
X103770942Y-113510254D03*
X103384569Y-113406726D03*
X102998201Y-113303200D03*
X102611829Y-113199673D03*
X102225459Y-113096143D03*
X101839088Y-112992616D03*
X101452712Y-112889091D03*
X101066346Y-112785563D03*
X100679980Y-112682037D03*
X100293609Y-112578502D03*
X99907238Y-112474981D03*
D52*
X98881505Y-113067183D03*
X98777983Y-113453552D03*
X98674458Y-113839923D03*
X98570927Y-114226289D03*
X98467399Y-114612662D03*
X98363873Y-114999030D03*
X98260346Y-115385402D03*
X98156816Y-115771772D03*
X98053289Y-116158143D03*
X97949764Y-116544519D03*
X97846236Y-116930885D03*
X97742710Y-117317251D03*
X97639175Y-117703622D03*
X97535654Y-118089993D03*
D53*
X98127856Y-119115726D03*
X98514225Y-119219248D03*
X98900596Y-119322773D03*
X99286962Y-119426304D03*
X99673335Y-119529832D03*
X100059703Y-119633358D03*
X100446075Y-119736885D03*
X100832445Y-119840415D03*
X101218816Y-119943942D03*
X101605192Y-120047467D03*
X101991558Y-120150995D03*
X102377924Y-120254521D03*
X102764295Y-120358056D03*
X103150666Y-120461577D03*
D54*
X101528952Y-116468279D03*
G04 #@! TD*
D55*
G04 #@! TO.C,U3*
X253906118Y-119306641D03*
X253776715Y-118823678D03*
X253647304Y-118340715D03*
X253517896Y-117857750D03*
X253388480Y-117374788D03*
X253259073Y-116891826D03*
X253129665Y-116408865D03*
X253000257Y-115925900D03*
D56*
X252020455Y-115360217D03*
X251537497Y-115489625D03*
X251054534Y-115619034D03*
X250571571Y-115748444D03*
X250088608Y-115877853D03*
X249605645Y-116007263D03*
X249122681Y-116136673D03*
X248639719Y-116266083D03*
D57*
X248074031Y-117245877D03*
D55*
X248203443Y-117728842D03*
X248332852Y-118211800D03*
X248462260Y-118694767D03*
X248591669Y-119177732D03*
X248721082Y-119660693D03*
X248850495Y-120143650D03*
X248979900Y-120626617D03*
D58*
X249959697Y-121192301D03*
D56*
X250442662Y-121062896D03*
X250925625Y-120933482D03*
X251408585Y-120804076D03*
X251891550Y-120674662D03*
X252374512Y-120545252D03*
X252857471Y-120415846D03*
X253340436Y-120286436D03*
D59*
X250990079Y-118276259D03*
G04 #@! TD*
D38*
G04 #@! TO.C,R9*
X255857906Y-122695582D03*
X255593912Y-121710338D03*
G04 #@! TD*
G04 #@! TO.C,R8*
X252667795Y-123540153D03*
X252403801Y-122554909D03*
G04 #@! TD*
D37*
G04 #@! TO.C,C13*
X102354748Y-111835124D03*
X102603196Y-110907832D03*
G04 #@! TD*
D60*
G04 #@! TO.C,J1*
X164988605Y-124676251D03*
X165118018Y-124193289D03*
X165247428Y-123710329D03*
X165376836Y-123227365D03*
X165506245Y-122744404D03*
X165635654Y-122261440D03*
X165765066Y-121778476D03*
X165894473Y-121295511D03*
X166023882Y-120812549D03*
X166153293Y-120329587D03*
X166282700Y-119846624D03*
X166412109Y-119363661D03*
D61*
X167153916Y-127119943D03*
X169509166Y-118330016D03*
G04 #@! TD*
D19*
G04 #@! TO.C,C7*
X96997683Y-120075421D03*
X96749235Y-121002713D03*
G04 #@! TD*
D24*
G04 #@! TO.C,SW40*
X202692432Y-149611535D03*
D25*
X198941445Y-153633979D03*
D24*
X195190458Y-157656423D03*
D26*
X198310601Y-159882339D03*
X203256432Y-157657769D03*
G04 #@! TD*
D24*
G04 #@! TO.C,SW20*
X150598661Y-143760220D03*
D25*
X145884237Y-140927513D03*
D24*
X141169813Y-138094806D03*
D26*
X139641257Y-141609559D03*
X142845513Y-145984799D03*
G04 #@! TD*
D24*
G04 #@! TO.C,SW42*
X238530917Y-131614848D03*
D25*
X233218323Y-133038354D03*
D24*
X227905729Y-134461860D03*
D26*
X229372209Y-138002968D03*
X234745359Y-138737313D03*
G04 #@! TD*
D38*
G04 #@! TO.C,R11*
X249480251Y-124394255D03*
X249216257Y-123409011D03*
G04 #@! TD*
D24*
G04 #@! TO.C,SW28*
X267895041Y-100700418D03*
D25*
X262462754Y-101560809D03*
D24*
X257030467Y-102421200D03*
D26*
X258118761Y-106096195D03*
X263385718Y-107388171D03*
G04 #@! TD*
D37*
G04 #@! TO.C,C2*
X111005164Y-115560978D03*
X111253612Y-114633686D03*
G04 #@! TD*
D29*
G04 #@! TO.C,R1*
X109983167Y-115318194D03*
X110247167Y-114332956D03*
G04 #@! TD*
D19*
G04 #@! TO.C,C9*
X99895463Y-120851880D03*
X99647015Y-121779172D03*
G04 #@! TD*
G04 #@! TO.C,C8*
X97963607Y-120334239D03*
X97715159Y-121261531D03*
G04 #@! TD*
D24*
G04 #@! TO.C,SW16*
X153474362Y-83645122D03*
D25*
X158786953Y-85068627D03*
D24*
X164099544Y-86492132D03*
D26*
X164600096Y-82692200D03*
X160313983Y-79369665D03*
G04 #@! TD*
D24*
G04 #@! TO.C,SW24*
X294181640Y-79563238D03*
D25*
X299681639Y-79563237D03*
D24*
X305181638Y-79563236D03*
D26*
X304681640Y-75763234D03*
X299681637Y-73663237D03*
G04 #@! TD*
D62*
G04 #@! TO.C,SMDSW1*
X84960345Y-58937838D03*
X84960351Y-63387840D03*
G04 #@! TD*
D24*
G04 #@! TO.C,SW27*
X287181641Y-76248245D03*
D25*
X281681642Y-76248246D03*
D24*
X276181643Y-76248247D03*
D26*
X276681641Y-80048249D03*
X281681644Y-82148246D03*
G04 #@! TD*
D24*
G04 #@! TO.C,SW13*
X147570864Y-78631343D03*
D25*
X142258273Y-77207838D03*
D24*
X136945682Y-75784333D03*
D26*
X136445130Y-79584265D03*
X140731243Y-82906800D03*
G04 #@! TD*
D24*
G04 #@! TO.C,SW1*
X55335213Y-79563246D03*
D25*
X60835212Y-79563245D03*
D24*
X66335211Y-79563244D03*
D26*
X65835213Y-75763242D03*
X60835210Y-73663245D03*
G04 #@! TD*
D24*
G04 #@! TO.C,SW34*
X232371019Y-108625817D03*
D25*
X227058425Y-110049320D03*
D24*
X221745831Y-111472823D03*
D26*
X223212311Y-115013937D03*
X228585461Y-115748279D03*
G04 #@! TD*
D63*
G04 #@! TO.C,REF\u002A\u002A*
X296750000Y-67750000D03*
G04 #@! TD*
D64*
G04 #@! TO.C,C10*
X106420799Y-116558452D03*
X107348091Y-116806900D03*
G04 #@! TD*
D19*
G04 #@! TO.C,C3*
X99400622Y-122701331D03*
X99152174Y-123628623D03*
G04 #@! TD*
D24*
G04 #@! TO.C,SW41*
X219347035Y-138094804D03*
D25*
X214632612Y-140927509D03*
D24*
X209918189Y-143760214D03*
D26*
X212303923Y-146759934D03*
X217671334Y-145984793D03*
G04 #@! TD*
D46*
G04 #@! TO.C,C16*
X253474082Y-122299185D03*
X253722548Y-123226469D03*
G04 #@! TD*
D24*
G04 #@! TO.C,MS12*
X202163076Y-107935686D03*
D25*
X207475667Y-106512185D03*
D24*
X212788264Y-105088679D03*
D26*
X203629556Y-111476800D03*
G04 #@! TD*
D63*
G04 #@! TO.C,REF\u002A\u002A*
X64000000Y-66750000D03*
G04 #@! TD*
D24*
G04 #@! TO.C,SW30*
X262576268Y-67119017D03*
D25*
X257143981Y-67979408D03*
D24*
X251711694Y-68839799D03*
D26*
X252799988Y-72514794D03*
X258066945Y-73806770D03*
G04 #@! TD*
D24*
G04 #@! TO.C,SW7*
X108805155Y-68839791D03*
D25*
X103372872Y-67979404D03*
D24*
X97940589Y-67119017D03*
D26*
X97839979Y-70950451D03*
X102449907Y-73806763D03*
G04 #@! TD*
D24*
G04 #@! TO.C,SW3*
X55335211Y-113563250D03*
D25*
X60835210Y-113563249D03*
D24*
X66335209Y-113563248D03*
D26*
X65835211Y-109763246D03*
X60835208Y-107663249D03*
G04 #@! TD*
D39*
G04 #@! TO.C,R3*
X97476543Y-122154722D03*
X97212543Y-123139960D03*
G04 #@! TD*
D64*
G04 #@! TO.C,C17*
X118108376Y-118668886D03*
X119035666Y-118917338D03*
G04 #@! TD*
D24*
G04 #@! TO.C,SW12*
X122484326Y-102708887D03*
D25*
X117171735Y-101285382D03*
D24*
X111859144Y-99861877D03*
D26*
X111358592Y-103661809D03*
X115644705Y-106984344D03*
G04 #@! TD*
D24*
G04 #@! TO.C,SW37*
X205217139Y-119333613D03*
D25*
X210529734Y-117910108D03*
D24*
X215842329Y-116486603D03*
D26*
X214375848Y-112945491D03*
X209002704Y-112211146D03*
G04 #@! TD*
D23*
G04 #@! TO.C,TRRS1*
X170640113Y-89901113D03*
X168828380Y-96662594D03*
D65*
X170635898Y-98803359D03*
X171671175Y-94939657D03*
X172447631Y-92041879D03*
X165907937Y-98675307D03*
G04 #@! TD*
%LPD*%
M02*
