M48
; DRILL file {KiCad 9.0.2} date 2025-10-21T21:35:44+0200
; FORMAT={-:-/ absolute / metric / decimal}
; #@! TF.CreationDate,2025-10-21T21:35:44+02:00
; #@! TF.GenerationSoftware,Kicad,Pcbnew,9.0.2
; #@! TF.FileFunction,NonPlated,1,2,NPTH
FMAT,2
METRIC
; #@! TA.AperFunction,NonPlated,NPTH,ComponentDrill
T1C0.650
; #@! TA.AperFunction,NonPlated,NPTH,ComponentDrill
T2C1.500
; #@! TA.AperFunction,NonPlated,NPTH,ComponentDrill
T3C1.702
; #@! TA.AperFunction,NonPlated,NPTH,ComponentDrill
T4C2.200
; #@! TA.AperFunction,NonPlated,NPTH,ComponentDrill
T5C3.429
%
G90
G05
T1
X73.82Y-64.896
X79.6Y-64.896
T2
X168.828Y-96.663
X170.64Y-89.901
X189.973Y-89.875
X191.785Y-96.637
T3
X55.335Y-101.763
X55.335Y-113.563
X55.335Y-79.563
X55.335Y-84.763
X55.335Y-96.563
X66.335Y-113.563
X66.335Y-79.563
X66.335Y-101.763
X66.335Y-96.563
X66.335Y-84.763
X73.335Y-105.048
X73.335Y-88.048
X73.335Y-93.248
X73.335Y-76.248
X73.335Y-110.248
X84.335Y-93.248
X84.335Y-105.048
X84.335Y-76.248
X84.335Y-88.048
X84.335Y-110.248
X92.622Y-100.7
X95.281Y-83.91
X97.941Y-67.119
X103.486Y-102.421
X106.146Y-85.63
X108.805Y-68.84
X111.859Y-99.862
X116.259Y-83.441
X120.659Y-67.02
X121.986Y-131.615
X122.484Y-102.709
X126.884Y-86.288
X128.146Y-108.626
X131.284Y-69.867
X132.546Y-92.205
X132.611Y-134.462
X136.946Y-75.784
X138.771Y-111.473
X141.17Y-138.095
X143.171Y-95.052
X144.675Y-116.487
X147.571Y-78.631
X147.729Y-105.089
X149.074Y-100.066
X150.599Y-143.76
X152.128Y-88.668
X153.474Y-83.645
X155.3Y-119.334
X157.824Y-149.612
X158.354Y-107.936
X159.7Y-102.913
X162.754Y-91.515
X164.1Y-86.492
X165.326Y-157.656
X195.19Y-157.656
X196.417Y-86.492
X197.763Y-91.515
X200.817Y-102.913
X202.163Y-107.936
X202.692Y-149.612
X205.217Y-119.334
X207.042Y-83.645
X208.388Y-88.668
X209.918Y-143.76
X211.442Y-100.066
X212.788Y-105.089
X212.946Y-78.631
X215.842Y-116.487
X217.346Y-95.052
X219.347Y-138.095
X221.746Y-111.473
X223.571Y-75.784
X227.906Y-134.462
X227.971Y-92.205
X229.233Y-69.867
X232.371Y-108.626
X233.633Y-86.288
X238.033Y-102.709
X238.531Y-131.615
X239.858Y-67.02
X244.258Y-83.441
X248.658Y-99.862
X251.712Y-68.84
X254.371Y-85.63
X257.03Y-102.421
X262.576Y-67.119
X265.236Y-83.91
X267.895Y-100.7
X276.182Y-88.048
X276.182Y-110.248
X276.182Y-76.248
X276.182Y-105.048
X276.182Y-93.248
X287.182Y-110.248
X287.182Y-76.248
X287.182Y-88.048
X287.182Y-93.248
X287.182Y-105.048
X294.182Y-101.763
X294.182Y-113.563
X294.182Y-79.563
X294.182Y-84.763
X294.182Y-96.563
X305.182Y-113.563
X305.182Y-79.563
X305.182Y-101.763
X305.182Y-96.563
X305.182Y-84.763
T4
X64.0Y-66.75
X296.75Y-67.75
T5
X60.835Y-101.763
X60.835Y-113.563
X60.835Y-79.563
X60.835Y-84.763
X60.835Y-96.563
X78.835Y-93.248
X78.835Y-105.048
X78.835Y-76.248
X78.835Y-88.048
X78.835Y-110.248
X98.054Y-101.561
X100.713Y-84.77
X103.373Y-67.979
X117.172Y-101.285
X121.572Y-84.865
X125.972Y-68.444
X127.299Y-133.038
X133.458Y-110.049
X137.858Y-93.629
X142.258Y-77.208
X145.884Y-140.928
X149.987Y-117.91
X153.041Y-106.512
X154.387Y-101.489
X157.441Y-90.091
X158.787Y-85.069
X161.575Y-153.634
X198.941Y-153.634
X201.73Y-85.069
X203.076Y-90.091
X206.13Y-101.489
X207.476Y-106.512
X210.53Y-117.91
X214.633Y-140.928
X218.259Y-77.208
X222.659Y-93.629
X227.058Y-110.049
X233.218Y-133.038
X234.545Y-68.444
X238.945Y-84.865
X243.345Y-101.285
X257.144Y-67.979
X259.803Y-84.77
X262.463Y-101.561
X281.682Y-110.248
X281.682Y-76.248
X281.682Y-88.048
X281.682Y-93.248
X281.682Y-105.048
X299.682Y-101.763
X299.682Y-113.563
X299.682Y-79.563
X299.682Y-84.763
X299.682Y-96.563
M30
