M48
; DRILL file {KiCad 9.0.2} date 2025-10-21T21:35:44+0200
; FORMAT={-:-/ absolute / metric / decimal}
; #@! TF.CreationDate,2025-10-21T21:35:44+02:00
; #@! TF.GenerationSoftware,Kicad,Pcbnew,9.0.2
; #@! TF.FileFunction,Plated,1,2,PTH
FMAT,2
METRIC
; #@! TA.AperFunction,Plated,PTH,ViaDrill
T1C0.100
; #@! TA.AperFunction,Plated,PTH,ViaDrill
T2C0.400
; #@! TA.AperFunction,Plated,PTH,ComponentDrill
T3C0.600
; #@! TA.AperFunction,Plated,PTH,ComponentDrill
T4C0.900
; #@! TA.AperFunction,Plated,PTH,ComponentDrill
T5C1.000
; #@! TA.AperFunction,Plated,PTH,ComponentDrill
T6C1.500
%
G90
G05
T1
X74.97Y-65.414
X74.994Y-64.614
X77.97Y-65.414
X77.99Y-64.614
X82.421Y-65.73
X84.14Y-66.676
X84.72Y-64.776
X84.76Y-66.676
X86.3Y-69.657
X95.472Y-121.378
X95.798Y-121.709
X97.113Y-121.581
X97.548Y-115.195
X97.747Y-114.419
X98.079Y-121.84
X98.251Y-117.873
X98.368Y-119.764
X98.46Y-117.09
X98.545Y-117.532
X98.67Y-116.308
X98.754Y-116.75
X99.042Y-122.108
X99.124Y-120.033
X99.503Y-115.247
X99.532Y-120.224
X100.275Y-120.374
X100.551Y-111.568
X100.793Y-111.186
X101.675Y-113.604
X103.938Y-112.895
X104.387Y-112.767
X104.524Y-111.957
X104.707Y-120.783
X104.768Y-112.436
X105.703Y-123.728
X105.775Y-119.881
X106.118Y-119.561
X110.385Y-113.807
X114.172Y-114.666
X117.25Y-123.374
X157.545Y-121.141
X158.711Y-118.335
X158.962Y-118.943
X159.356Y-117.473
X200.15Y-119.277
X201.183Y-121.588
X201.699Y-121.967
X202.334Y-122.791
X247.495Y-121.022
X250.804Y-122.218
X251.665Y-121.728
X252.218Y-121.893
X252.631Y-121.469
X253.605Y-121.467
X255.477Y-118.377
X256.039Y-118.735
T2
X79.841Y-61.233
X86.677Y-65.723
X101.529Y-116.468
X102.294Y-106.315
X103.156Y-114.253
X111.066Y-124.577
X116.637Y-117.85
X118.44Y-117.982
X119.737Y-116.618
X168.781Y-120.527
X192.984Y-124.775
X248.812Y-121.719
X255.062Y-120.51
T5
X119.996Y-133.711
X121.29Y-128.882
X134.001Y-137.464
X134.649Y-135.049
X135.296Y-132.634
X155.026Y-150.335
X158.682Y-146.925
X164.915Y-160.939
X166.743Y-159.234
X168.571Y-157.529
X192.45Y-156.988
X196.107Y-160.398
X202.339Y-146.383
X204.168Y-148.088
X205.996Y-149.793
X225.936Y-132.443
X227.23Y-137.272
X239.942Y-128.69
X240.589Y-131.105
X241.236Y-133.52
T6
X55.835Y-105.563
X55.835Y-88.563
X60.835Y-107.663
X60.835Y-73.663
X60.835Y-90.663
X65.835Y-109.763
X65.835Y-75.763
X65.835Y-92.763
X73.835Y-97.048
X73.835Y-80.048
X73.835Y-114.048
X78.835Y-99.148
X78.835Y-82.148
X78.835Y-116.148
X83.835Y-101.248
X83.835Y-84.248
X92.521Y-104.532
X95.181Y-87.741
X97.131Y-107.388
X97.84Y-70.95
X99.791Y-90.597
X102.45Y-73.807
X111.359Y-103.662
X115.645Y-106.984
X115.759Y-87.241
X120.045Y-90.564
X120.158Y-70.82
X121.485Y-135.415
X124.445Y-74.143
X125.771Y-138.737
X127.645Y-112.426
X131.931Y-115.748
X132.045Y-96.005
X136.331Y-99.328
X136.445Y-79.584
X139.641Y-141.61
X140.731Y-82.907
X142.846Y-145.985
X147.228Y-108.889
X151.514Y-112.211
X151.628Y-92.468
X155.386Y-152.569
X155.8Y-115.534
X155.914Y-95.79
X157.26Y-157.658
X160.2Y-99.113
X160.314Y-79.37
X164.6Y-82.692
X198.311Y-159.882
X199.23Y-95.056
X200.203Y-79.37
X203.256Y-157.658
X203.63Y-111.477
X204.603Y-95.79
X205.576Y-80.104
X209.003Y-112.211
X209.976Y-96.525
X212.304Y-146.76
X214.376Y-112.945
X214.412Y-82.172
X217.671Y-145.985
X218.812Y-98.593
X219.786Y-82.907
X223.212Y-115.014
X224.186Y-99.328
X228.585Y-115.748
X229.372Y-138.003
X230.699Y-73.409
X234.745Y-138.737
X235.099Y-89.829
X236.072Y-74.143
X239.499Y-106.25
X240.472Y-90.564
X244.872Y-106.984
X252.8Y-72.515
X255.459Y-89.305
X258.067Y-73.807
X258.119Y-106.096
X260.726Y-90.597
X263.386Y-107.388
X276.682Y-114.048
X276.682Y-80.048
X276.682Y-97.048
X281.682Y-116.148
X281.682Y-82.148
X281.682Y-99.148
X286.682Y-84.248
X286.682Y-101.248
X294.682Y-105.563
X294.682Y-88.563
X299.682Y-107.663
X299.682Y-73.663
X299.682Y-90.663
X304.682Y-109.763
X304.682Y-75.763
X304.682Y-92.763
T3
G00X72.39Y-61.546
M15
G01X72.39Y-60.946
M16
G05
G00X72.39Y-65.976
M15
G01X72.39Y-64.876
M16
G05
G00X81.03Y-65.976
M15
G01X81.03Y-64.876
M16
G05
G00X81.03Y-61.546
M15
G01X81.03Y-60.946
M16
G05
T4
G00X165.986Y-98.386
M15
G01X165.83Y-98.965
M16
G05
G00X170.714Y-98.514
M15
G01X170.558Y-99.093
M16
G05
G00X171.749Y-94.65
M15
G01X171.594Y-95.229
M16
G05
G00X172.525Y-91.752
M15
G01X172.37Y-92.332
M16
G05
G00X190.185Y-99.55
M15
G01X190.34Y-100.13
M16
G05
G00X192.531Y-90.536
M15
G01X192.687Y-91.115
M16
G05
G00X193.308Y-93.433
M15
G01X193.463Y-94.013
M16
G05
G00X194.343Y-97.297
M15
G01X194.498Y-97.877
M16
G05
T6
G00X129.481Y-127.867
M15
G01X128.226Y-127.531
M16
G05
G00X166.167Y-150.405
M15
G01X165.28Y-149.454
M16
G05
G00X195.4Y-149.279
M15
G01X194.514Y-150.23
M16
G05
G00X232.523Y-127.469
M15
G01X231.267Y-127.805
M16
G05
M30
