G04 #@! TF.GenerationSoftware,KiCad,Pcbnew,9.0.2*
G04 #@! TF.CreationDate,2025-10-21T21:35:44+02:00*
G04 #@! TF.ProjectId,quacken,71756163-6b65-46e2-9e6b-696361645f70,v1.0.0*
G04 #@! TF.SameCoordinates,Original*
G04 #@! TF.FileFunction,Legend,Bot*
G04 #@! TF.FilePolarity,Positive*
%FSLAX46Y46*%
G04 Gerber Fmt 4.6, Leading zero omitted, Abs format (unit mm)*
G04 Created by KiCad (PCBNEW 9.0.2) date 2025-10-21 21:35:44*
%MOMM*%
%LPD*%
G01*
G04 APERTURE LIST*
G04 Aperture macros list*
%AMRoundRect*
0 Rectangle with rounded corners*
0 $1 Rounding radius*
0 $2 $3 $4 $5 $6 $7 $8 $9 X,Y pos of 4 corners*
0 Add a 4 corners polygon primitive as box body*
4,1,4,$2,$3,$4,$5,$6,$7,$8,$9,$2,$3,0*
0 Add four circle primitives for the rounded corners*
1,1,$1+$1,$2,$3*
1,1,$1+$1,$4,$5*
1,1,$1+$1,$6,$7*
1,1,$1+$1,$8,$9*
0 Add four rect primitives between the rounded corners*
20,1,$1+$1,$2,$3,$4,$5,0*
20,1,$1+$1,$4,$5,$6,$7,0*
20,1,$1+$1,$6,$7,$8,$9,0*
20,1,$1+$1,$8,$9,$2,$3,0*%
%AMHorizOval*
0 Thick line with rounded ends*
0 $1 width*
0 $2 $3 position (X,Y) of the first rounded end (center of the circle)*
0 $4 $5 position (X,Y) of the second rounded end (center of the circle)*
0 Add line between two ends*
20,1,$1,$2,$3,$4,$5,0*
0 Add two circle primitives to create the rounded ends*
1,1,$1,$2,$3*
1,1,$1,$4,$5*%
G04 Aperture macros list end*
%ADD10RoundRect,0.050000X1.822551X-0.488168X-0.359844X1.852164X-1.822551X0.488168X0.359844X-1.852164X0*%
%ADD11RoundRect,0.050000X1.413352X-0.049355X0.049355X1.413352X-1.413352X0.049355X-0.049355X-1.413352X0*%
%ADD12C,2.100000*%
%ADD13C,1.600000*%
%ADD14C,1.801800*%
%ADD15C,3.529000*%
%ADD16C,2.400000*%
%ADD17RoundRect,0.050000X1.804300X0.551815X-1.286662X1.380036X-1.804300X-0.551815X1.286662X-1.380036X0*%
%ADD18RoundRect,0.050000X1.224745X0.707107X-0.707107X1.224745X-1.224745X-0.707107X0.707107X-1.224745X0*%
%ADD19RoundRect,0.050000X1.286662X1.380036X-1.804300X0.551815X-1.286662X-1.380036X1.804300X-0.551815X0*%
%ADD20RoundRect,0.050000X0.707107X1.224745X-1.224745X0.707107X-0.707107X-1.224745X1.224745X-0.707107X0*%
%ADD21RoundRect,0.050000X0.359844X1.852164X-1.822551X-0.488168X-0.359844X-1.852164X1.822551X0.488168X0*%
%ADD22RoundRect,0.050000X-0.049355X1.413352X-1.413352X-0.049355X0.049355X-1.413352X1.413352X0.049355X0*%
%ADD23HorizOval,1.700000X-0.077646X0.289778X0.077646X-0.289778X0*%
%ADD24C,0.750000*%
%ADD25O,1.100000X1.700000*%
%ADD26O,1.100000X2.200000*%
%ADD27C,2.300000*%
%ADD28HorizOval,1.700000X-0.077646X-0.289778X0.077646X0.289778X0*%
G04 APERTURE END LIST*
%LPC*%
D10*
G04 #@! TO.C,ROT1*
X165723566Y-149929826D03*
D11*
X164914591Y-160939169D03*
D12*
X168571357Y-157529180D03*
X166742973Y-159234174D03*
D13*
X155025611Y-150334542D03*
X158682379Y-146924548D03*
G04 #@! TD*
D14*
G04 #@! TO.C,SW31*
X248657694Y-99861880D03*
D15*
X243345099Y-101285385D03*
D14*
X238032504Y-102708890D03*
D16*
X239498985Y-106250002D03*
X244872129Y-106984347D03*
G04 #@! TD*
D14*
G04 #@! TO.C,SW9*
X103486384Y-102421192D03*
D15*
X98054101Y-101560805D03*
D14*
X92621818Y-100700418D03*
D16*
X92521208Y-104531852D03*
X97131136Y-107388164D03*
G04 #@! TD*
D14*
G04 #@! TO.C,MS6*
X147728577Y-105088680D03*
D15*
X153041164Y-106512180D03*
D14*
X158353764Y-107935686D03*
D16*
X147228028Y-108888602D03*
G04 #@! TD*
D17*
G04 #@! TO.C,ROT2*
X128853474Y-127698861D03*
D18*
X134001488Y-137464000D03*
D12*
X135295581Y-132634376D03*
X134648534Y-135049188D03*
D13*
X119995554Y-133711131D03*
X121289655Y-128881501D03*
G04 #@! TD*
D14*
G04 #@! TO.C,SW4*
X84335212Y-76248248D03*
D15*
X78835213Y-76248249D03*
D14*
X73335214Y-76248250D03*
D16*
X73835212Y-80048252D03*
X78835215Y-82148249D03*
G04 #@! TD*
D14*
G04 #@! TO.C,SW23*
X294181648Y-96563240D03*
D15*
X299681647Y-96563239D03*
D14*
X305181646Y-96563238D03*
D16*
X304681648Y-92763236D03*
X299681645Y-90663239D03*
G04 #@! TD*
D14*
G04 #@! TO.C,MS8*
X294181638Y-101763243D03*
D15*
X299681637Y-101763245D03*
D14*
X305181638Y-101763248D03*
D16*
X294681640Y-105563244D03*
G04 #@! TD*
D14*
G04 #@! TO.C,SW21*
X132611122Y-134461859D03*
D15*
X127298530Y-133038352D03*
D14*
X121985938Y-131614845D03*
D16*
X121485390Y-135414773D03*
X125771497Y-138737308D03*
G04 #@! TD*
D19*
G04 #@! TO.C,ROT4*
X231895201Y-127636746D03*
D20*
X241236080Y-133519603D03*
D12*
X239941984Y-128689980D03*
X240589031Y-131104789D03*
D13*
X227230154Y-137272484D03*
X225936056Y-132442852D03*
G04 #@! TD*
D21*
G04 #@! TO.C,ROT3*
X194956961Y-149754310D03*
D22*
X205995905Y-149793340D03*
D12*
X202339142Y-146383354D03*
X204167522Y-148088342D03*
D13*
X196106934Y-160397968D03*
X192450164Y-156987972D03*
G04 #@! TD*
D14*
G04 #@! TO.C,MS5*
X152128499Y-88667938D03*
D15*
X157441086Y-90091438D03*
D14*
X162753686Y-91514944D03*
D16*
X151627950Y-92467860D03*
G04 #@! TD*
D14*
G04 #@! TO.C,MS4*
X84335210Y-105048244D03*
D15*
X78835211Y-105048242D03*
D14*
X73335210Y-105048239D03*
D16*
X83835208Y-101248243D03*
G04 #@! TD*
D14*
G04 #@! TO.C,MS11*
X197763159Y-91514953D03*
D15*
X203075750Y-90091452D03*
D14*
X208388347Y-88667946D03*
D16*
X199229639Y-95056067D03*
G04 #@! TD*
D14*
G04 #@! TO.C,MS10*
X287181644Y-105048239D03*
D15*
X281681645Y-105048237D03*
D14*
X276181644Y-105048234D03*
D16*
X286681642Y-101248238D03*
G04 #@! TD*
D14*
G04 #@! TO.C,SW33*
X239857859Y-67020416D03*
D15*
X234545265Y-68443919D03*
D14*
X229232671Y-69867422D03*
D16*
X230699151Y-73408536D03*
X236072301Y-74142878D03*
G04 #@! TD*
D14*
G04 #@! TO.C,MS3*
X84335212Y-88048251D03*
D15*
X78835213Y-88048249D03*
D14*
X73335212Y-88048246D03*
D16*
X83835210Y-84248250D03*
G04 #@! TD*
D14*
G04 #@! TO.C,SW25*
X287181639Y-110248242D03*
D15*
X281681640Y-110248243D03*
D14*
X276181641Y-110248244D03*
D16*
X276681639Y-114048246D03*
X281681642Y-116148243D03*
G04 #@! TD*
D14*
G04 #@! TO.C,MS2*
X55335211Y-101763247D03*
D15*
X60835210Y-101763249D03*
D14*
X66335211Y-101763252D03*
D16*
X55835213Y-105563248D03*
G04 #@! TD*
D14*
G04 #@! TO.C,SW19*
X165326394Y-157656424D03*
D15*
X161575401Y-153633978D03*
D14*
X157824408Y-149611532D03*
D16*
X155386265Y-152568806D03*
X157260416Y-157657766D03*
G04 #@! TD*
D14*
G04 #@! TO.C,SW15*
X138771020Y-111472821D03*
D15*
X133458422Y-110049316D03*
D14*
X128145824Y-108625811D03*
D16*
X127645279Y-112425743D03*
X131931387Y-115748277D03*
G04 #@! TD*
D14*
G04 #@! TO.C,SW38*
X200817222Y-102912880D03*
D15*
X206129817Y-101489375D03*
D14*
X211442412Y-100065870D03*
D16*
X209975931Y-96524758D03*
X204602787Y-95790413D03*
G04 #@! TD*
D14*
G04 #@! TO.C,SW39*
X196417306Y-86492130D03*
D15*
X201729901Y-85068625D03*
D14*
X207042496Y-83645120D03*
D16*
X205576015Y-80104008D03*
X200202871Y-79369663D03*
G04 #@! TD*
D14*
G04 #@! TO.C,SW6*
X84335213Y-110248241D03*
D15*
X78835214Y-110248242D03*
D14*
X73335215Y-110248243D03*
D16*
X73835213Y-114048245D03*
X78835216Y-116148242D03*
G04 #@! TD*
D14*
G04 #@! TO.C,SW18*
X144674514Y-116486599D03*
D15*
X149987105Y-117910104D03*
D14*
X155299696Y-119333609D03*
D16*
X155800248Y-115533677D03*
X151514135Y-112211142D03*
G04 #@! TD*
D14*
G04 #@! TO.C,SW22*
X294181638Y-113563246D03*
D15*
X299681637Y-113563245D03*
D14*
X305181636Y-113563244D03*
D16*
X304681638Y-109763242D03*
X299681635Y-107663245D03*
G04 #@! TD*
D14*
G04 #@! TO.C,SW5*
X84335210Y-93248241D03*
D15*
X78835211Y-93248242D03*
D14*
X73335212Y-93248243D03*
D16*
X73835210Y-97048245D03*
X78835213Y-99148242D03*
G04 #@! TD*
D14*
G04 #@! TO.C,SW11*
X126884262Y-86288162D03*
D15*
X121571671Y-84864657D03*
D14*
X116259080Y-83441152D03*
D16*
X115758528Y-87241084D03*
X120044641Y-90563619D03*
G04 #@! TD*
D14*
G04 #@! TO.C,SW14*
X143170942Y-95052084D03*
D15*
X137858344Y-93628579D03*
D14*
X132545746Y-92205074D03*
D16*
X132045201Y-96005006D03*
X136331309Y-99327540D03*
G04 #@! TD*
D14*
G04 #@! TO.C,SW17*
X149074436Y-100065857D03*
D15*
X154387027Y-101489362D03*
D14*
X159699618Y-102912867D03*
D16*
X160200170Y-99112935D03*
X155914057Y-95790400D03*
G04 #@! TD*
D14*
G04 #@! TO.C,SW32*
X244257786Y-83441151D03*
D15*
X238945192Y-84864654D03*
D14*
X233632598Y-86288157D03*
D16*
X235099078Y-89829268D03*
X240472228Y-90563613D03*
G04 #@! TD*
D14*
G04 #@! TO.C,SW10*
X131284184Y-69867420D03*
D15*
X125971593Y-68443915D03*
D14*
X120659002Y-67020410D03*
D16*
X120158450Y-70820342D03*
X124444563Y-74142877D03*
G04 #@! TD*
D14*
G04 #@! TO.C,SW26*
X287181644Y-93248236D03*
D15*
X281681645Y-93248237D03*
D14*
X276181646Y-93248238D03*
D16*
X276681644Y-97048240D03*
X281681647Y-99148237D03*
G04 #@! TD*
D13*
G04 #@! TO.C,TRRS2*
X189973346Y-89875225D03*
X191785081Y-96636706D03*
D23*
X194420821Y-97586900D03*
X193385547Y-93723199D03*
X192609087Y-90825426D03*
X190262262Y-99839988D03*
G04 #@! TD*
D14*
G04 #@! TO.C,MS1*
X55335216Y-84763241D03*
D15*
X60835215Y-84763243D03*
D14*
X66335216Y-84763246D03*
D16*
X55835218Y-88563242D03*
G04 #@! TD*
D14*
G04 #@! TO.C,SW36*
X223571172Y-75784327D03*
D15*
X218258577Y-77207832D03*
D14*
X212945982Y-78631337D03*
D16*
X214412463Y-82172449D03*
X219785607Y-82906794D03*
G04 #@! TD*
D14*
G04 #@! TO.C,SW29*
X265235646Y-83909710D03*
D15*
X259803359Y-84770101D03*
D14*
X254371072Y-85630492D03*
D16*
X255459366Y-89305487D03*
X260726323Y-90597463D03*
G04 #@! TD*
D24*
G04 #@! TO.C,J3*
X79600342Y-64895529D03*
X73820345Y-64895527D03*
D25*
X81030346Y-61245526D03*
D26*
X81030345Y-65425534D03*
X72390347Y-65425528D03*
D25*
X72390341Y-61245529D03*
G04 #@! TD*
D14*
G04 #@! TO.C,MS9*
X287181641Y-88048248D03*
D15*
X281681642Y-88048246D03*
D14*
X276181641Y-88048243D03*
D16*
X286681639Y-84248247D03*
G04 #@! TD*
D14*
G04 #@! TO.C,MS7*
X294181648Y-84763237D03*
D15*
X299681647Y-84763239D03*
D14*
X305181648Y-84763242D03*
D16*
X294681650Y-88563238D03*
G04 #@! TD*
D14*
G04 #@! TO.C,SW2*
X55335216Y-96563244D03*
D15*
X60835215Y-96563243D03*
D14*
X66335214Y-96563242D03*
D16*
X65835216Y-92763240D03*
X60835213Y-90663243D03*
G04 #@! TD*
D14*
G04 #@! TO.C,SW8*
X106145778Y-85630489D03*
D15*
X100713495Y-84770102D03*
D14*
X95281212Y-83909715D03*
D16*
X95180602Y-87741149D03*
X99790530Y-90597461D03*
G04 #@! TD*
D14*
G04 #@! TO.C,SW35*
X227971099Y-92205064D03*
D15*
X222658504Y-93628569D03*
D14*
X217345909Y-95052074D03*
D16*
X218812390Y-98593186D03*
X224185534Y-99327531D03*
G04 #@! TD*
D14*
G04 #@! TO.C,SW40*
X202692432Y-149611535D03*
D15*
X198941445Y-153633979D03*
D14*
X195190458Y-157656423D03*
D16*
X198310601Y-159882339D03*
X203256432Y-157657769D03*
G04 #@! TD*
D14*
G04 #@! TO.C,SW20*
X150598661Y-143760220D03*
D15*
X145884237Y-140927513D03*
D14*
X141169813Y-138094806D03*
D16*
X139641257Y-141609559D03*
X142845513Y-145984799D03*
G04 #@! TD*
D14*
G04 #@! TO.C,SW42*
X238530917Y-131614848D03*
D15*
X233218323Y-133038354D03*
D14*
X227905729Y-134461860D03*
D16*
X229372209Y-138002968D03*
X234745359Y-138737313D03*
G04 #@! TD*
D14*
G04 #@! TO.C,SW28*
X267895041Y-100700418D03*
D15*
X262462754Y-101560809D03*
D14*
X257030467Y-102421200D03*
D16*
X258118761Y-106096195D03*
X263385718Y-107388171D03*
G04 #@! TD*
D14*
G04 #@! TO.C,SW16*
X153474362Y-83645122D03*
D15*
X158786953Y-85068627D03*
D14*
X164099544Y-86492132D03*
D16*
X164600096Y-82692200D03*
X160313983Y-79369665D03*
G04 #@! TD*
D14*
G04 #@! TO.C,SW24*
X294181640Y-79563238D03*
D15*
X299681639Y-79563237D03*
D14*
X305181638Y-79563236D03*
D16*
X304681640Y-75763234D03*
X299681637Y-73663237D03*
G04 #@! TD*
D14*
G04 #@! TO.C,SW27*
X287181641Y-76248245D03*
D15*
X281681642Y-76248246D03*
D14*
X276181643Y-76248247D03*
D16*
X276681641Y-80048249D03*
X281681644Y-82148246D03*
G04 #@! TD*
D14*
G04 #@! TO.C,SW13*
X147570864Y-78631343D03*
D15*
X142258273Y-77207838D03*
D14*
X136945682Y-75784333D03*
D16*
X136445130Y-79584265D03*
X140731243Y-82906800D03*
G04 #@! TD*
D14*
G04 #@! TO.C,SW1*
X55335213Y-79563246D03*
D15*
X60835212Y-79563245D03*
D14*
X66335211Y-79563244D03*
D16*
X65835213Y-75763242D03*
X60835210Y-73663245D03*
G04 #@! TD*
D14*
G04 #@! TO.C,SW34*
X232371019Y-108625817D03*
D15*
X227058425Y-110049320D03*
D14*
X221745831Y-111472823D03*
D16*
X223212311Y-115013937D03*
X228585461Y-115748279D03*
G04 #@! TD*
D27*
G04 #@! TO.C,REF\u002A\u002A*
X296750000Y-67750000D03*
G04 #@! TD*
D14*
G04 #@! TO.C,SW41*
X219347035Y-138094804D03*
D15*
X214632612Y-140927509D03*
D14*
X209918189Y-143760214D03*
D16*
X212303923Y-146759934D03*
X217671334Y-145984793D03*
G04 #@! TD*
D14*
G04 #@! TO.C,MS12*
X202163076Y-107935686D03*
D15*
X207475667Y-106512185D03*
D14*
X212788264Y-105088679D03*
D16*
X203629556Y-111476800D03*
G04 #@! TD*
D27*
G04 #@! TO.C,REF\u002A\u002A*
X64000000Y-66750000D03*
G04 #@! TD*
D14*
G04 #@! TO.C,SW30*
X262576268Y-67119017D03*
D15*
X257143981Y-67979408D03*
D14*
X251711694Y-68839799D03*
D16*
X252799988Y-72514794D03*
X258066945Y-73806770D03*
G04 #@! TD*
D14*
G04 #@! TO.C,SW7*
X108805155Y-68839791D03*
D15*
X103372872Y-67979404D03*
D14*
X97940589Y-67119017D03*
D16*
X97839979Y-70950451D03*
X102449907Y-73806763D03*
G04 #@! TD*
D14*
G04 #@! TO.C,SW3*
X55335211Y-113563250D03*
D15*
X60835210Y-113563249D03*
D14*
X66335209Y-113563248D03*
D16*
X65835211Y-109763246D03*
X60835208Y-107663249D03*
G04 #@! TD*
D14*
G04 #@! TO.C,SW12*
X122484326Y-102708887D03*
D15*
X117171735Y-101285382D03*
D14*
X111859144Y-99861877D03*
D16*
X111358592Y-103661809D03*
X115644705Y-106984344D03*
G04 #@! TD*
D14*
G04 #@! TO.C,SW37*
X205217139Y-119333613D03*
D15*
X210529734Y-117910108D03*
D14*
X215842329Y-116486603D03*
D16*
X214375848Y-112945491D03*
X209002704Y-112211146D03*
G04 #@! TD*
D13*
G04 #@! TO.C,TRRS1*
X170640113Y-89901113D03*
X168828380Y-96662594D03*
D28*
X170635898Y-98803359D03*
X171671175Y-94939657D03*
X172447631Y-92041879D03*
X165907937Y-98675307D03*
G04 #@! TD*
%LPD*%
M02*
