G04 #@! TF.GenerationSoftware,KiCad,Pcbnew,9.0.2*
G04 #@! TF.CreationDate,2025-10-21T21:35:44+02:00*
G04 #@! TF.ProjectId,quacken,71756163-6b65-46e2-9e6b-696361645f70,v1.0.0*
G04 #@! TF.SameCoordinates,Original*
G04 #@! TF.FileFunction,Profile,NP*
%FSLAX46Y46*%
G04 Gerber Fmt 4.6, Leading zero omitted, Abs format (unit mm)*
G04 Created by KiCad (PCBNEW 9.0.2) date 2025-10-21 21:35:44*
%MOMM*%
%LPD*%
G01*
G04 APERTURE LIST*
G04 #@! TA.AperFunction,Profile*
%ADD10C,0.050000*%
G04 #@! TD*
G04 #@! TA.AperFunction,Profile*
%ADD11C,0.100000*%
G04 #@! TD*
%ADD12C,0.050000*%
G04 APERTURE END LIST*
D10*
X69835208Y-122063246D02*
X69835212Y-122062839D01*
X116146412Y-139885279D02*
X116146418Y-139885275D01*
X245016954Y-138796631D02*
X245016955Y-138796631D01*
X309435173Y-70560963D02*
X309435193Y-70560963D01*
X289989998Y-60230000D02*
X289990000Y-60230000D01*
X180214491Y-84261199D02*
X180214510Y-84262838D01*
X70439000Y-60228362D02*
X70439002Y-60228362D01*
X68829000Y-62548428D02*
X68828998Y-62548428D01*
D11*
X179803631Y-107578249D02*
X179803632Y-101578249D01*
D12*
X52523333Y-66976418D02*
X52523333Y-66976418D01*
D11*
X180580000Y-93390000D02*
X180579999Y-87390000D01*
D12*
X50993827Y-70559325D02*
X51020544Y-70531381D01*
X51047374Y-70503433D01*
X51074318Y-70475483D01*
X51101377Y-70447529D01*
X51128549Y-70419572D01*
X51155837Y-70391612D01*
X51183239Y-70363648D01*
X51210757Y-70335682D01*
X51238390Y-70307712D01*
X51266138Y-70279738D01*
X51294003Y-70251762D01*
X51321984Y-70223781D01*
X51350082Y-70195798D01*
X51378296Y-70167811D01*
X51406627Y-70139820D01*
X51435076Y-70111826D01*
X51463643Y-70083828D01*
X51492327Y-70055827D01*
X51521130Y-70027822D01*
X51550051Y-69999813D01*
X51579091Y-69971801D01*
X51608250Y-69943785D01*
X51637528Y-69915765D01*
X51666926Y-69887741D01*
X51696444Y-69859714D01*
X51726081Y-69831683D01*
X51755840Y-69803647D01*
X51785719Y-69775608D01*
X51815719Y-69747566D01*
X51845841Y-69719519D01*
X51876084Y-69691468D01*
X51906449Y-69663413D01*
X51936936Y-69635355D01*
X51967545Y-69607292D01*
X51998278Y-69579225D01*
X52029133Y-69551154D01*
X52060112Y-69523079D01*
X52091215Y-69495000D01*
X52122441Y-69466916D01*
X52153792Y-69438829D01*
X52185267Y-69410737D01*
X52216867Y-69382641D01*
X52248592Y-69354540D01*
X52280443Y-69326436D01*
X52312419Y-69298327D01*
X52344522Y-69270214D01*
X52376751Y-69242096D01*
X52409106Y-69213974D01*
X52441589Y-69185848D01*
X52474199Y-69157717D01*
X52506936Y-69129581D01*
X52539801Y-69101442D01*
X52572795Y-69073297D01*
X52605917Y-69045149D01*
X52639167Y-69016995D01*
X52672547Y-68988837D01*
X52706057Y-68960675D01*
X52739696Y-68932508D01*
X52773465Y-68904336D01*
X52807365Y-68876160D01*
X52841395Y-68847979D01*
X52875556Y-68819793D01*
X52909849Y-68791603D01*
X52944274Y-68763408D01*
X52978830Y-68735208D01*
X53013519Y-68707003D01*
X53048340Y-68678794D01*
X53083295Y-68650579D01*
X53118382Y-68622360D01*
X53153604Y-68594136D01*
X53188959Y-68565908D01*
X53224449Y-68537674D01*
X53260073Y-68509435D01*
X53295832Y-68481192D01*
X53331726Y-68452943D01*
X53367756Y-68424690D01*
X53403922Y-68396431D01*
X53440225Y-68368168D01*
X53476663Y-68339899D01*
X53513239Y-68311625D01*
X53549952Y-68283347D01*
X53586803Y-68255063D01*
X53623792Y-68226774D01*
X53660919Y-68198480D01*
X53698185Y-68170181D01*
X53735590Y-68141877D01*
X53773134Y-68113567D01*
X53810818Y-68085253D01*
X53848642Y-68056933D01*
X53886606Y-68028608D01*
X53924711Y-68000277D01*
X53962958Y-67971942D01*
X54001345Y-67943601D01*
X54039875Y-67915254D01*
X54078546Y-67886903D01*
X54117361Y-67858546D01*
X54156318Y-67830183D01*
X54195418Y-67801816D01*
X54234662Y-67773442D01*
X54274050Y-67745064D01*
X54313583Y-67716680D01*
X54353260Y-67688290D01*
X54393082Y-67659895D01*
X54433049Y-67631495D01*
X54473163Y-67603089D01*
X54513422Y-67574677D01*
X54553828Y-67546260D01*
X54594382Y-67517837D01*
X54635082Y-67489409D01*
X54675930Y-67460975D01*
X54716926Y-67432536D01*
X54758071Y-67404090D01*
X54799364Y-67375639D01*
X54840806Y-67347183D01*
X54882399Y-67318720D01*
X54924141Y-67290252D01*
X54966033Y-67261779D01*
X55008076Y-67233299D01*
X55050271Y-67204813D01*
X55092617Y-67176322D01*
X55135114Y-67147825D01*
X55177764Y-67119322D01*
X55220567Y-67090813D01*
X55263523Y-67062298D01*
X55306633Y-67033778D01*
X55349896Y-67005251D01*
X55393313Y-66976718D01*
X55436886Y-66948180D01*
X55480613Y-66919635D01*
X55524496Y-66891084D01*
X55568535Y-66862527D01*
X55612730Y-66833965D01*
X55657082Y-66805396D01*
X55701591Y-66776820D01*
X55746258Y-66748239D01*
X55791083Y-66719652D01*
X55836066Y-66691058D01*
X55881208Y-66662458D01*
X55926509Y-66633852D01*
X55971970Y-66605239D01*
X56017591Y-66576620D01*
X56063373Y-66547995D01*
X56109316Y-66519364D01*
X56155420Y-66490726D01*
X56201686Y-66462081D01*
X56248114Y-66433430D01*
X56294705Y-66404773D01*
X56341459Y-66376109D01*
X56388377Y-66347439D01*
X56435459Y-66318762D01*
X56482705Y-66290079D01*
X56530117Y-66261388D01*
X56577693Y-66232692D01*
X56625436Y-66203988D01*
X56673345Y-66175278D01*
X56721421Y-66146561D01*
X56769664Y-66117837D01*
X56818074Y-66089106D01*
X56866653Y-66060369D01*
X56915401Y-66031624D01*
X56964318Y-66002873D01*
X57013404Y-65974115D01*
X57062661Y-65945350D01*
X57112088Y-65916577D01*
X57161686Y-65887798D01*
X57211455Y-65859011D01*
X57261397Y-65830218D01*
X57311511Y-65801417D01*
X57361799Y-65772609D01*
X57412259Y-65743793D01*
X57462894Y-65714970D01*
X57513703Y-65686140D01*
X57564688Y-65657303D01*
X57615848Y-65628458D01*
X57667184Y-65599605D01*
X57718696Y-65570745D01*
X57770386Y-65541878D01*
X57822253Y-65513002D01*
X57874298Y-65484119D01*
X57926522Y-65455229D01*
X57978926Y-65426330D01*
X58031509Y-65397424D01*
X58084272Y-65368510D01*
X58137216Y-65339588D01*
X58190342Y-65310657D01*
X58243649Y-65281719D01*
X58297139Y-65252773D01*
X58350812Y-65223818D01*
X58404669Y-65194855D01*
X58458710Y-65165884D01*
X58512935Y-65136905D01*
X58567346Y-65107917D01*
X58621943Y-65078920D01*
X58676726Y-65049916D01*
X58731697Y-65020902D01*
X58786855Y-64991880D01*
X58842202Y-64962849D01*
X58897737Y-64933809D01*
X58953462Y-64904760D01*
X59009377Y-64875702D01*
X59065482Y-64846636D01*
X59121780Y-64817560D01*
X59178269Y-64788474D01*
X59234950Y-64759380D01*
X59291825Y-64730276D01*
X59348894Y-64701163D01*
X59406158Y-64672040D01*
X59463617Y-64642908D01*
X59521271Y-64613766D01*
X59579122Y-64584614D01*
X59637171Y-64555452D01*
X59695417Y-64526280D01*
X59753862Y-64497098D01*
X59812506Y-64467906D01*
X59871351Y-64438703D01*
X59930396Y-64409490D01*
X59989642Y-64380267D01*
X60049091Y-64351033D01*
X60108743Y-64321788D01*
X60168598Y-64292532D01*
X60228657Y-64263266D01*
X60288922Y-64233988D01*
X60349393Y-64204700D01*
X60410070Y-64175399D01*
X60470955Y-64146088D01*
X60532048Y-64116765D01*
X60593350Y-64087430D01*
X60654861Y-64058083D01*
X60716584Y-64028725D01*
X60778518Y-63999354D01*
X60840664Y-63969971D01*
X60903024Y-63940575D01*
X60965597Y-63911168D01*
X61028385Y-63881747D01*
X61091390Y-63852313D01*
X61154610Y-63822867D01*
X61218048Y-63793407D01*
X61281705Y-63763934D01*
X61345581Y-63734448D01*
X61409678Y-63704947D01*
X61473995Y-63675433D01*
X61538535Y-63645905D01*
X61603298Y-63616362D01*
X61668285Y-63586806D01*
X61733497Y-63557234D01*
X61798935Y-63527648D01*
X61864601Y-63498046D01*
X61930494Y-63468430D01*
X61996617Y-63438798D01*
X62062971Y-63409150D01*
X62129555Y-63379486D01*
X62196373Y-63349806D01*
X62263424Y-63320110D01*
X62330709Y-63290397D01*
X62398231Y-63260668D01*
X62465990Y-63230921D01*
X62533987Y-63201157D01*
X62602223Y-63171375D01*
X62670700Y-63141575D01*
X62739419Y-63111757D01*
X62808382Y-63081921D01*
X62877589Y-63052066D01*
X62947042Y-63022191D01*
X63016742Y-62992298D01*
X63086690Y-62962384D01*
X63156889Y-62932451D01*
X63227339Y-62902497D01*
X63298042Y-62872523D01*
X63368999Y-62842527D01*
X63440211Y-62812510D01*
X63511681Y-62782472D01*
X63583410Y-62752411D01*
X63655399Y-62722328D01*
X63727651Y-62692221D01*
X63800166Y-62662092D01*
X63872946Y-62631938D01*
X63945993Y-62601761D01*
X64019309Y-62571558D01*
X64092895Y-62541331D01*
X64166754Y-62511078D01*
X64240887Y-62480799D01*
X64315297Y-62450494D01*
X64389984Y-62420161D01*
X64464951Y-62389801D01*
X64540201Y-62359413D01*
X64615734Y-62328996D01*
X64691554Y-62298550D01*
X64767663Y-62268074D01*
X64844062Y-62237568D01*
X64920754Y-62207030D01*
X64997741Y-62176461D01*
X65075026Y-62145860D01*
X65152611Y-62115226D01*
X65230499Y-62084558D01*
X65308692Y-62053855D01*
X65387192Y-62023118D01*
X65466004Y-61992345D01*
X65545129Y-61961535D01*
X65624570Y-61930687D01*
X65704330Y-61899801D01*
X65784412Y-61868876D01*
X65864820Y-61837911D01*
X65945556Y-61806905D01*
X66026624Y-61775857D01*
X66108028Y-61744766D01*
X66189770Y-61713631D01*
X66271854Y-61682451D01*
X66354285Y-61651224D01*
X66437065Y-61619951D01*
X66520199Y-61588629D01*
X66603691Y-61557258D01*
X66687545Y-61525836D01*
X66771765Y-61494362D01*
X66856356Y-61462834D01*
X66941323Y-61431252D01*
X67026671Y-61399613D01*
X67112403Y-61367916D01*
X67198526Y-61336160D01*
X67285045Y-61304343D01*
X67371966Y-61272464D01*
X67459293Y-61240520D01*
X67547034Y-61208510D01*
X67635193Y-61176432D01*
X67723779Y-61144283D01*
X67812797Y-61112063D01*
X67902254Y-61079768D01*
X67992158Y-61047397D01*
X68082517Y-61014947D01*
X68173337Y-60982416D01*
X68264627Y-60949801D01*
X68356397Y-60917100D01*
X68448654Y-60884309D01*
X68541409Y-60851426D01*
X68634671Y-60818448D01*
X68728450Y-60785371D01*
X68822758Y-60752193D01*
X68828997Y-60750001D01*
D11*
X179803636Y-129578247D02*
G75*
G02*
X180603728Y-129578246I400046J6D01*
G01*
D10*
X291600000Y-62550901D02*
G75*
G02*
X290614668Y-62567164I-492800J1D01*
G01*
X162061523Y-166826660D02*
G75*
G02*
X160765496Y-166695168I-572923J805860D01*
G01*
X290604510Y-61150242D02*
X290614664Y-62567164D01*
X116146418Y-139885275D02*
G75*
G02*
X115412573Y-138793122I259027J966668D01*
G01*
X290593808Y-122063307D02*
X290593811Y-121609573D01*
D11*
X290681647Y-101748245D02*
X290681647Y-95748247D01*
D10*
X180615221Y-152894827D02*
X180615221Y-153853577D01*
X244344113Y-133316771D02*
X245016955Y-138796631D01*
D12*
X309435173Y-70560963D02*
X309405988Y-70531665D01*
X309376692Y-70502368D01*
X309347282Y-70473072D01*
X309317760Y-70443776D01*
X309288124Y-70414480D01*
X309258375Y-70385185D01*
X309228513Y-70355890D01*
X309198537Y-70326595D01*
X309168446Y-70297301D01*
X309138242Y-70268007D01*
X309107923Y-70238714D01*
X309077488Y-70209420D01*
X309046939Y-70180127D01*
X309016275Y-70150834D01*
X308985495Y-70121542D01*
X308954599Y-70092249D01*
X308923587Y-70062957D01*
X308892459Y-70033665D01*
X308861214Y-70004372D01*
X308829853Y-69975080D01*
X308798374Y-69945789D01*
X308766778Y-69916497D01*
X308735065Y-69887205D01*
X308703233Y-69857913D01*
X308671284Y-69828621D01*
X308639216Y-69799329D01*
X308607029Y-69770037D01*
X308574724Y-69740745D01*
X308542299Y-69711453D01*
X308509756Y-69682161D01*
X308477092Y-69652869D01*
X308444309Y-69623577D01*
X308411405Y-69594284D01*
X308378381Y-69564992D01*
X308345236Y-69535699D01*
X308311970Y-69506406D01*
X308278583Y-69477112D01*
X308245074Y-69447819D01*
X308211444Y-69418525D01*
X308177692Y-69389231D01*
X308143817Y-69359937D01*
X308109820Y-69330642D01*
X308075699Y-69301347D01*
X308041456Y-69272052D01*
X308007089Y-69242756D01*
X307972599Y-69213460D01*
X307937984Y-69184164D01*
X307903246Y-69154867D01*
X307868383Y-69125570D01*
X307833395Y-69096273D01*
X307798282Y-69066975D01*
X307763043Y-69037676D01*
X307727679Y-69008377D01*
X307692189Y-68979078D01*
X307656573Y-68949778D01*
X307620831Y-68920478D01*
X307584961Y-68891177D01*
X307548965Y-68861876D01*
X307512841Y-68832574D01*
X307476590Y-68803271D01*
X307440211Y-68773968D01*
X307403703Y-68744665D01*
X307367067Y-68715360D01*
X307330303Y-68686056D01*
X307293409Y-68656750D01*
X307256386Y-68627444D01*
X307219233Y-68598138D01*
X307181951Y-68568830D01*
X307144538Y-68539522D01*
X307106994Y-68510214D01*
X307069320Y-68480904D01*
X307031515Y-68451594D01*
X306993578Y-68422284D01*
X306955510Y-68392972D01*
X306917309Y-68363660D01*
X306878977Y-68334347D01*
X306840511Y-68305033D01*
X306801913Y-68275719D01*
X306763181Y-68246404D01*
X306724316Y-68217088D01*
X306685317Y-68187771D01*
X306646184Y-68158454D01*
X306606917Y-68129135D01*
X306567515Y-68099816D01*
X306527978Y-68070496D01*
X306488305Y-68041175D01*
X306448497Y-68011854D01*
X306408552Y-67982531D01*
X306368472Y-67953208D01*
X306328255Y-67923883D01*
X306287900Y-67894558D01*
X306247409Y-67865232D01*
X306206780Y-67835905D01*
X306166013Y-67806577D01*
X306125108Y-67777248D01*
X306084064Y-67747918D01*
X306042882Y-67718588D01*
X306001560Y-67689256D01*
X305960099Y-67659923D01*
X305918498Y-67630590D01*
X305876757Y-67601255D01*
X305834875Y-67571919D01*
X305792853Y-67542583D01*
X305750689Y-67513245D01*
X305708384Y-67483906D01*
X305665938Y-67454567D01*
X305623349Y-67425226D01*
X305580617Y-67395884D01*
X305537743Y-67366541D01*
X305494726Y-67337197D01*
X305451565Y-67307852D01*
X305408260Y-67278506D01*
X305364812Y-67249159D01*
X305321218Y-67219810D01*
X305277480Y-67190461D01*
X305233597Y-67161110D01*
X305189568Y-67131759D01*
X305145394Y-67102406D01*
X305101073Y-67073052D01*
X305056605Y-67043696D01*
X305011991Y-67014340D01*
X304967229Y-66984982D01*
X304922320Y-66955623D01*
X304877263Y-66926263D01*
X304832057Y-66896902D01*
X304786703Y-66867539D01*
X304741200Y-66838176D01*
X304695547Y-66808811D01*
X304649744Y-66779444D01*
X304603792Y-66750077D01*
X304557689Y-66720708D01*
X304511435Y-66691337D01*
X304465029Y-66661966D01*
X304418473Y-66632593D01*
X304371764Y-66603219D01*
X304324903Y-66573843D01*
X304277889Y-66544466D01*
X304230722Y-66515088D01*
X304183401Y-66485708D01*
X304135927Y-66456327D01*
X304088298Y-66426944D01*
X304040515Y-66397560D01*
X303992577Y-66368175D01*
X303944484Y-66338788D01*
X303896234Y-66309399D01*
X303847829Y-66280009D01*
X303799267Y-66250618D01*
X303750548Y-66221224D01*
X303701672Y-66191830D01*
X303652638Y-66162434D01*
X303603446Y-66133036D01*
X303554095Y-66103636D01*
X303504586Y-66074235D01*
X303454917Y-66044833D01*
X303405088Y-66015428D01*
X303355099Y-65986022D01*
X303304950Y-65956615D01*
X303254640Y-65927205D01*
X303204168Y-65897794D01*
X303153535Y-65868381D01*
X303102739Y-65838967D01*
X303051781Y-65809550D01*
X303000659Y-65780132D01*
X302949375Y-65750712D01*
X302897926Y-65721290D01*
X302846313Y-65691866D01*
X302794535Y-65662440D01*
X302742592Y-65633012D01*
X302690483Y-65603582D01*
X302638208Y-65574150D01*
X302585767Y-65544717D01*
X302533159Y-65515281D01*
X302480383Y-65485843D01*
X302427440Y-65456403D01*
X302374328Y-65426961D01*
X302321047Y-65397517D01*
X302267597Y-65368070D01*
X302213978Y-65338621D01*
X302160188Y-65309170D01*
X302106228Y-65279717D01*
X302052097Y-65250262D01*
X301997794Y-65220804D01*
X301943319Y-65191344D01*
X301888672Y-65161881D01*
X301833851Y-65132416D01*
X301778858Y-65102948D01*
X301723690Y-65073478D01*
X301668348Y-65044005D01*
X301612830Y-65014530D01*
X301557138Y-64985052D01*
X301501269Y-64955571D01*
X301445225Y-64926088D01*
X301389003Y-64896602D01*
X301332603Y-64867113D01*
X301276026Y-64837621D01*
X301219270Y-64808126D01*
X301162336Y-64778629D01*
X301105221Y-64749128D01*
X301047927Y-64719624D01*
X300990452Y-64690118D01*
X300932796Y-64660608D01*
X300874958Y-64631094D01*
X300816938Y-64601578D01*
X300758735Y-64572058D01*
X300700349Y-64542535D01*
X300641779Y-64513009D01*
X300583025Y-64483478D01*
X300524085Y-64453945D01*
X300464960Y-64424408D01*
X300405649Y-64394867D01*
X300346151Y-64365322D01*
X300286466Y-64335774D01*
X300226593Y-64306222D01*
X300166531Y-64276665D01*
X300106280Y-64247105D01*
X300045839Y-64217541D01*
X299985208Y-64187972D01*
X299924386Y-64158400D01*
X299863372Y-64128823D01*
X299802167Y-64099241D01*
X299740768Y-64069656D01*
X299679175Y-64040065D01*
X299617389Y-64010470D01*
X299555408Y-63980870D01*
X299493231Y-63951266D01*
X299430858Y-63921656D01*
X299368288Y-63892042D01*
X299305520Y-63862422D01*
X299242555Y-63832797D01*
X299179390Y-63803167D01*
X299116026Y-63773532D01*
X299052461Y-63743891D01*
X298988695Y-63714245D01*
X298924728Y-63684592D01*
X298860558Y-63654934D01*
X298796184Y-63625270D01*
X298731607Y-63595600D01*
X298666825Y-63565924D01*
X298601837Y-63536241D01*
X298536643Y-63506552D01*
X298471241Y-63476857D01*
X298405632Y-63447155D01*
X298339814Y-63417445D01*
X298273786Y-63387729D01*
X298207548Y-63358006D01*
X298141098Y-63328276D01*
X298074436Y-63298538D01*
X298007562Y-63268793D01*
X297940473Y-63239040D01*
X297873170Y-63209279D01*
X297805651Y-63179510D01*
X297737915Y-63149733D01*
X297669962Y-63119948D01*
X297601790Y-63090154D01*
X297533399Y-63060351D01*
X297464788Y-63030540D01*
X297395955Y-63000719D01*
X297326900Y-62970889D01*
X297257621Y-62941050D01*
X297188119Y-62911201D01*
X297118390Y-62881342D01*
X297048436Y-62851473D01*
X296978253Y-62821594D01*
X296907842Y-62791704D01*
X296837201Y-62761803D01*
X296766330Y-62731892D01*
X296695226Y-62701969D01*
X296623889Y-62672034D01*
X296552318Y-62642088D01*
X296480511Y-62612130D01*
X296408467Y-62582160D01*
X296336186Y-62552177D01*
X296263665Y-62522181D01*
X296190903Y-62492173D01*
X296117900Y-62462151D01*
X296044653Y-62432115D01*
X295971162Y-62402065D01*
X295897424Y-62372001D01*
X295823439Y-62341922D01*
X295749206Y-62311829D01*
X295674722Y-62281720D01*
X295599986Y-62251595D01*
X295524997Y-62221454D01*
X295449753Y-62191297D01*
X295374252Y-62161123D01*
X295298494Y-62130932D01*
X295222475Y-62100724D01*
X295146196Y-62070497D01*
X295069653Y-62040252D01*
X294992845Y-62009989D01*
X294915770Y-61979705D01*
X294838427Y-61949403D01*
X294760813Y-61919080D01*
X294682927Y-61888736D01*
X294604766Y-61858371D01*
X294526330Y-61827984D01*
X294447614Y-61797575D01*
X294368618Y-61767144D01*
X294289340Y-61736689D01*
X294209777Y-61706210D01*
X294129926Y-61675706D01*
X294049786Y-61645177D01*
X293969354Y-61614623D01*
X293888627Y-61584042D01*
X293807604Y-61553434D01*
X293726281Y-61522798D01*
X293644657Y-61492134D01*
X293562727Y-61461440D01*
X293480490Y-61430716D01*
X293397942Y-61399962D01*
X293315081Y-61369176D01*
X293231904Y-61338358D01*
X293148407Y-61307506D01*
X293064587Y-61276620D01*
X292980441Y-61245699D01*
X292895966Y-61214742D01*
X292811158Y-61183748D01*
X292726013Y-61152715D01*
X292640527Y-61121644D01*
X292554698Y-61090532D01*
X292468520Y-61059379D01*
X292381990Y-61028184D01*
X292295103Y-60996945D01*
X292207856Y-60965660D01*
X292120243Y-60934330D01*
X292032260Y-60902952D01*
X291943902Y-60871524D01*
X291855164Y-60840046D01*
X291766040Y-60808517D01*
X291676526Y-60776933D01*
X291600003Y-60750000D01*
D10*
X115758354Y-132447965D02*
G75*
G02*
X116084895Y-133316740I-667526J-746654D01*
G01*
D11*
X290681642Y-87748244D02*
X290681643Y-81748246D01*
D12*
X115758354Y-132447965D02*
X115751104Y-132440523D01*
X115743648Y-132432984D01*
X115735983Y-132425349D01*
X115728106Y-132417615D01*
X115720013Y-132409783D01*
X115711703Y-132401851D01*
X115703170Y-132393818D01*
X115694413Y-132385684D01*
X115685427Y-132377447D01*
X115676210Y-132369108D01*
X115666759Y-132360664D01*
X115657069Y-132352115D01*
X115647139Y-132343460D01*
X115636964Y-132334699D01*
X115626541Y-132325830D01*
X115615867Y-132316853D01*
X115604939Y-132307767D01*
X115593753Y-132298572D01*
X115582306Y-132289265D01*
X115570595Y-132279847D01*
X115558617Y-132270318D01*
X115546368Y-132260675D01*
X115533844Y-132250918D01*
X115521044Y-132241048D01*
X115507962Y-132231062D01*
X115494597Y-132220960D01*
X115480945Y-132210742D01*
X115467002Y-132200406D01*
X115452765Y-132189953D01*
X115438232Y-132179382D01*
X115423398Y-132168691D01*
X115408261Y-132157880D01*
X115392817Y-132146949D01*
X115377063Y-132135897D01*
X115360997Y-132124724D01*
X115344614Y-132113428D01*
X115327912Y-132102010D01*
X115310888Y-132090468D01*
X115293537Y-132078803D01*
X115275859Y-132067013D01*
X115257848Y-132055099D01*
X115239503Y-132043059D01*
X115220820Y-132030893D01*
X115201796Y-132018602D01*
X115182428Y-132006183D01*
X115162714Y-131993638D01*
X115142650Y-131980965D01*
X115122233Y-131968164D01*
X115101461Y-131955236D01*
X115080330Y-131942178D01*
X115058839Y-131928992D01*
X115036983Y-131915677D01*
X115014761Y-131902232D01*
X114992170Y-131888657D01*
X114969206Y-131874953D01*
X114945868Y-131861118D01*
X114922152Y-131847153D01*
X114898057Y-131833057D01*
X114873579Y-131818831D01*
X114848716Y-131804473D01*
X114823466Y-131789985D01*
X114797826Y-131775365D01*
X114771794Y-131760614D01*
X114745368Y-131745732D01*
X114718545Y-131730719D01*
X114691323Y-131715574D01*
X114663700Y-131700297D01*
X114635673Y-131684890D01*
X114607241Y-131669351D01*
X114578402Y-131653681D01*
X114549153Y-131637879D01*
X114519493Y-131621946D01*
X114489420Y-131605883D01*
X114458931Y-131589689D01*
X114428026Y-131573364D01*
X114396701Y-131556908D01*
X114364957Y-131540323D01*
X114332790Y-131523607D01*
X114300200Y-131506761D01*
X114267185Y-131489787D01*
X114233743Y-131472682D01*
X114199873Y-131455450D01*
X114165573Y-131438088D01*
X114130843Y-131420599D01*
X114095681Y-131402981D01*
X114060085Y-131385237D01*
X114024055Y-131367365D01*
X113987590Y-131349367D01*
X113950689Y-131331243D01*
X113913350Y-131312994D01*
X113875572Y-131294619D01*
X113837356Y-131276120D01*
X113798699Y-131257497D01*
X113759602Y-131238751D01*
X113720063Y-131219883D01*
X113680082Y-131200892D01*
X113639659Y-131181779D01*
X113598793Y-131162546D01*
X113557483Y-131143193D01*
X113515729Y-131123721D01*
X113473531Y-131104129D01*
X113430888Y-131084420D01*
X113387800Y-131064593D01*
X113344268Y-131044651D01*
X113300291Y-131024592D01*
X113255869Y-131004419D01*
X113211001Y-130984131D01*
X113165689Y-130963731D01*
X113119932Y-130943218D01*
X113073731Y-130922593D01*
X113027085Y-130901859D01*
X112979995Y-130881014D01*
X112932461Y-130860061D01*
X112884484Y-130839000D01*
X112836064Y-130817832D01*
X112787202Y-130796559D01*
X112737899Y-130775180D01*
X112688154Y-130753698D01*
X112637968Y-130732113D01*
X112587344Y-130710426D01*
X112536280Y-130688638D01*
X112484778Y-130666751D01*
X112432839Y-130644765D01*
X112380464Y-130622681D01*
X112327653Y-130600501D01*
X112274408Y-130578225D01*
X112220730Y-130555856D01*
X112166620Y-130533393D01*
X112112080Y-130510837D01*
X112057109Y-130488192D01*
X112001710Y-130465456D01*
X111945884Y-130442631D01*
X111889633Y-130419720D01*
X111832957Y-130396722D01*
X111775858Y-130373639D01*
X111718338Y-130350472D01*
X111660397Y-130327222D01*
X111602039Y-130303891D01*
X111543263Y-130280480D01*
X111484073Y-130256989D01*
X111424469Y-130233421D01*
X111364453Y-130209776D01*
X111304027Y-130186056D01*
X111243193Y-130162261D01*
X111181952Y-130138394D01*
X111120306Y-130114455D01*
X111058258Y-130090446D01*
X110995809Y-130066367D01*
X110964430Y-130054301D01*
X110932961Y-130042221D01*
X110901383Y-130030121D01*
X110869716Y-130018008D01*
X110837940Y-130005875D01*
X110806076Y-129993730D01*
X110774104Y-129981564D01*
X110742043Y-129969387D01*
X110709875Y-129957190D01*
X110677619Y-129944982D01*
X110645256Y-129932754D01*
X110612805Y-129920515D01*
X110580250Y-129908257D01*
X110547606Y-129895987D01*
X110514857Y-129883700D01*
X110482021Y-129871401D01*
X110449081Y-129859085D01*
X110416054Y-129846757D01*
X110382924Y-129834412D01*
X110349706Y-129822056D01*
X110316387Y-129809684D01*
X110282980Y-129797300D01*
X110249473Y-129784901D01*
X110215878Y-129772490D01*
X110182184Y-129760064D01*
X110148402Y-129747628D01*
X110114522Y-129735176D01*
X110080555Y-129722713D01*
X110046490Y-129710237D01*
X110012338Y-129697749D01*
X109978090Y-129685248D01*
X109943754Y-129672736D01*
X109909324Y-129660210D01*
X109874806Y-129647675D01*
X109840194Y-129635126D01*
X109805495Y-129622567D01*
X109770703Y-129609996D01*
X109735824Y-129597415D01*
X109700853Y-129584821D01*
X109665795Y-129572218D01*
X109630646Y-129559603D01*
X109595411Y-129546979D01*
X109560085Y-129534343D01*
X109524673Y-129521698D01*
X109489172Y-129509043D01*
X109453585Y-129496377D01*
X109417910Y-129483702D01*
X109382149Y-129471018D01*
X109346300Y-129458324D01*
X109310366Y-129445620D01*
X109274346Y-129432908D01*
X109238241Y-129420186D01*
X109202050Y-129407456D01*
X109165774Y-129394717D01*
X109129414Y-129381970D01*
X109092968Y-129369214D01*
X109056440Y-129356450D01*
X109019827Y-129343678D01*
X108983131Y-129330898D01*
X108946351Y-129318110D01*
X108909490Y-129305315D01*
X108872545Y-129292512D01*
X108835519Y-129279702D01*
X108798409Y-129266885D01*
X108761220Y-129254061D01*
X108723948Y-129241229D01*
X108686597Y-129228392D01*
X108649162Y-129215547D01*
X108611650Y-129202697D01*
X108574055Y-129189840D01*
X108536383Y-129176977D01*
X108498629Y-129164108D01*
X108460799Y-129151234D01*
X108422886Y-129138353D01*
X108384900Y-129125467D01*
X108346830Y-129112575D01*
X108308687Y-129099679D01*
X108270462Y-129086777D01*
X108232165Y-129073871D01*
X108193785Y-129060959D01*
X108155335Y-129048044D01*
X108116802Y-129035122D01*
X108078199Y-129022198D01*
X108039515Y-129009268D01*
X108000761Y-128996336D01*
X107961926Y-128983398D01*
X107923023Y-128970458D01*
X107884039Y-128957512D01*
X107844987Y-128944565D01*
X107805855Y-128931613D01*
X107766656Y-128918659D01*
X107727377Y-128905700D01*
X107688032Y-128892741D01*
X107648607Y-128879776D01*
X107609118Y-128866811D01*
X107569548Y-128853841D01*
X107529916Y-128840871D01*
X107490203Y-128827896D01*
X107450429Y-128814922D01*
X107410574Y-128801943D01*
X107370659Y-128788965D01*
X107330664Y-128775982D01*
X107290608Y-128763001D01*
X107250474Y-128750015D01*
X107210280Y-128737031D01*
X107170008Y-128724043D01*
X107129677Y-128711056D01*
X107089267Y-128698066D01*
X107048800Y-128685078D01*
X107008255Y-128672086D01*
X106967653Y-128659097D01*
X106926974Y-128646104D01*
X106886239Y-128633115D01*
X106845426Y-128620121D01*
X106804559Y-128607132D01*
X106763614Y-128594138D01*
X106722615Y-128581149D01*
X106681540Y-128568156D01*
X106640411Y-128555168D01*
X106599206Y-128542176D01*
X106557949Y-128529189D01*
X106516616Y-128516199D01*
X106475231Y-128503214D01*
X106433771Y-128490226D01*
X106392260Y-128477243D01*
X106350674Y-128464257D01*
X106309038Y-128451277D01*
X106267327Y-128438295D01*
X106225568Y-128425319D01*
X106183733Y-128412340D01*
X106141851Y-128399367D01*
X106099894Y-128386392D01*
X106057891Y-128373424D01*
X106015813Y-128360453D01*
X105973689Y-128347490D01*
X105931491Y-128334525D01*
X105889248Y-128321566D01*
X105846931Y-128308607D01*
X105804571Y-128295654D01*
X105762137Y-128282700D01*
X105719659Y-128269754D01*
X105677109Y-128256806D01*
X105634516Y-128243867D01*
X105591850Y-128230926D01*
X105549143Y-128217994D01*
X105506363Y-128205060D01*
X105463543Y-128192135D01*
X105420650Y-128179210D01*
X105377718Y-128166293D01*
X105334713Y-128153375D01*
X105291670Y-128140467D01*
X105248555Y-128127558D01*
X105205402Y-128114659D01*
X105162177Y-128101759D01*
X105118915Y-128088869D01*
X105075583Y-128075979D01*
X105032214Y-128063099D01*
X104988773Y-128050218D01*
X104945298Y-128037348D01*
X104901752Y-128024478D01*
X104858171Y-128011619D01*
X104814520Y-127998760D01*
X104770836Y-127985912D01*
X104727081Y-127973064D01*
X104683293Y-127960227D01*
X104639436Y-127947390D01*
X104595546Y-127934565D01*
X104551587Y-127921741D01*
X104507597Y-127908929D01*
X104463537Y-127896117D01*
X104419447Y-127883317D01*
X104375288Y-127870518D01*
X104331100Y-127857731D01*
X104286843Y-127844945D01*
X104242557Y-127832172D01*
X104198202Y-127819400D01*
X104153820Y-127806640D01*
X104109369Y-127793882D01*
X104064891Y-127781137D01*
X104020346Y-127768393D01*
X103975773Y-127755663D01*
X103931134Y-127742934D01*
X103886468Y-127730218D01*
X103841736Y-127717505D01*
X103796978Y-127704804D01*
X103752154Y-127692106D01*
X103707305Y-127679422D01*
X103662390Y-127666740D01*
X103617451Y-127654072D01*
X103572446Y-127641406D01*
X103527418Y-127628754D01*
X103482324Y-127616105D01*
X103437208Y-127603470D01*
X103392027Y-127590838D01*
X103346824Y-127578220D01*
X103301556Y-127565605D01*
X103256267Y-127553006D01*
X103210913Y-127540408D01*
X103165539Y-127527826D01*
X103120100Y-127515247D01*
X103074643Y-127502684D01*
X103029120Y-127490123D01*
X102983579Y-127477578D01*
X102937974Y-127465036D01*
X102892351Y-127452510D01*
X102846665Y-127439987D01*
X102800961Y-127427481D01*
X102755194Y-127414977D01*
X102709410Y-127402490D01*
X102663563Y-127390006D01*
X102617700Y-127377539D01*
X102571774Y-127365076D01*
X102525833Y-127352629D01*
X102479829Y-127340186D01*
X102433811Y-127327760D01*
X102387730Y-127315337D01*
X102341636Y-127302932D01*
X102295480Y-127290531D01*
X102249310Y-127278146D01*
X102203079Y-127265766D01*
X102156835Y-127253404D01*
X102110529Y-127241046D01*
X102064212Y-127228705D01*
X102017834Y-127216369D01*
X101971444Y-127204050D01*
X101924993Y-127191736D01*
X101878532Y-127179440D01*
X101832010Y-127167149D01*
X101785478Y-127154875D01*
X101738886Y-127142607D01*
X101692285Y-127130356D01*
X101645623Y-127118111D01*
X101598953Y-127105884D01*
X101552223Y-127093662D01*
X101505484Y-127081459D01*
X101458687Y-127069261D01*
X101411882Y-127057081D01*
X101365017Y-127044907D01*
X101318146Y-127032752D01*
X101271216Y-127020602D01*
X101224279Y-127008471D01*
X101177284Y-126996346D01*
X101130283Y-126984240D01*
X101083224Y-126972139D01*
X101036159Y-126960058D01*
X100989037Y-126947983D01*
X100941909Y-126935927D01*
X100894725Y-126923877D01*
X100847535Y-126911847D01*
X100800289Y-126899823D01*
X100753039Y-126887818D01*
X100705732Y-126875820D01*
X100658422Y-126863842D01*
X100611055Y-126851870D01*
X100563685Y-126839917D01*
X100516260Y-126827972D01*
X100468832Y-126816046D01*
X100421348Y-126804127D01*
X100373862Y-126792228D01*
X100326321Y-126780336D01*
X100278778Y-126768464D01*
X100231180Y-126756599D01*
X100183582Y-126744755D01*
X100135928Y-126732917D01*
X100088274Y-126721101D01*
X100040566Y-126709291D01*
X99992857Y-126697501D01*
X99945095Y-126685719D01*
X99897333Y-126673958D01*
X99849517Y-126662204D01*
X99801702Y-126650472D01*
X99753833Y-126638746D01*
X99705967Y-126627041D01*
X99658046Y-126615345D01*
X99610128Y-126603669D01*
X99562157Y-126592001D01*
X99514188Y-126580354D01*
X99466166Y-126568715D01*
X99418148Y-126557097D01*
X99370076Y-126545487D01*
X99322009Y-126533898D01*
X99273889Y-126522318D01*
X99225773Y-126510759D01*
X99177605Y-126499208D01*
X99129442Y-126487679D01*
X99081226Y-126476158D01*
X99033016Y-126464659D01*
X98984754Y-126453168D01*
X98936498Y-126441699D01*
X98888191Y-126430239D01*
X98839889Y-126418800D01*
X98791536Y-126407370D01*
X98743190Y-126395962D01*
X98694793Y-126384563D01*
X98646403Y-126373186D01*
X98597962Y-126361817D01*
X98549529Y-126350471D01*
X98501045Y-126339134D01*
X98452570Y-126327819D01*
X98404044Y-126316513D01*
X98355526Y-126305229D01*
X98306959Y-126293955D01*
X98258400Y-126282702D01*
X98209792Y-126271459D01*
X98161193Y-126260239D01*
X98112544Y-126249028D01*
X98063905Y-126237840D01*
X98015217Y-126226660D01*
X97966539Y-126215504D01*
X97917813Y-126204357D01*
X97869096Y-126193233D01*
X97820331Y-126182119D01*
X97771577Y-126171027D01*
X97722775Y-126159945D01*
X97673984Y-126148886D01*
X97625145Y-126137837D01*
X97576317Y-126126811D01*
X97527442Y-126115795D01*
X97478578Y-126104801D01*
X97429668Y-126093818D01*
X97380769Y-126082858D01*
X97331823Y-126071908D01*
X97282890Y-126060981D01*
X97233910Y-126050065D01*
X97184943Y-126039172D01*
X97135930Y-126028289D01*
X97086930Y-126017429D01*
X97037883Y-126006580D01*
X96988850Y-125995754D01*
X96939772Y-125984938D01*
X96890707Y-125974147D01*
X96841596Y-125963365D01*
X96792500Y-125952607D01*
X96743358Y-125941860D01*
X96694231Y-125931137D01*
X96645059Y-125920424D01*
X96595902Y-125909735D01*
X96546700Y-125899056D01*
X96497513Y-125888402D01*
X96448282Y-125877758D01*
X96399066Y-125867138D01*
X96349806Y-125856529D01*
X96300562Y-125845944D01*
X96251273Y-125835370D01*
X96202001Y-125824820D01*
X96152686Y-125814281D01*
X96103386Y-125803766D01*
X96054044Y-125793262D01*
X96004718Y-125782783D01*
X95955348Y-125772314D01*
X95905997Y-125761870D01*
X95856601Y-125751437D01*
X95807224Y-125741028D01*
X95757804Y-125730631D01*
X95708401Y-125720258D01*
X95658956Y-125709896D01*
X95609529Y-125699559D01*
X95560060Y-125689233D01*
X95510609Y-125678932D01*
X95461116Y-125668642D01*
X95411642Y-125658377D01*
X95362126Y-125648123D01*
X95312630Y-125637894D01*
X95263091Y-125627677D01*
X95213572Y-125617484D01*
X95164012Y-125607303D01*
X95114471Y-125597147D01*
X95064889Y-125587002D01*
X95015327Y-125576882D01*
X94965724Y-125566775D01*
X94916141Y-125556691D01*
X94866518Y-125546620D01*
X94816915Y-125536574D01*
X94767272Y-125526539D01*
X94717650Y-125516530D01*
X94667987Y-125506532D01*
X94618346Y-125496560D01*
X94568664Y-125486600D01*
X94519004Y-125476664D01*
X94469304Y-125466741D01*
X94419626Y-125456843D01*
X94369909Y-125446957D01*
X94320213Y-125437096D01*
X94270478Y-125427248D01*
X94220765Y-125417424D01*
X94171013Y-125407613D01*
X94121283Y-125397827D01*
X94071515Y-125388054D01*
X94021770Y-125378305D01*
X93971985Y-125368570D01*
X93922224Y-125358859D01*
X93872424Y-125349161D01*
X93822648Y-125339489D01*
X93772833Y-125329829D01*
X93723042Y-125320194D01*
X93673213Y-125310572D01*
X93623408Y-125300975D01*
X93573564Y-125291391D01*
X93523745Y-125281833D01*
X93473889Y-125272287D01*
X93424056Y-125262767D01*
X93374186Y-125253259D01*
X93324341Y-125243777D01*
X93274459Y-125234308D01*
X93224601Y-125224864D01*
X93174706Y-125215434D01*
X93124837Y-125206029D01*
X93074931Y-125196637D01*
X93025049Y-125187270D01*
X92975132Y-125177917D01*
X92925240Y-125168589D01*
X92875311Y-125159274D01*
X92825408Y-125149985D01*
X92775470Y-125140709D01*
X92725557Y-125131459D01*
X92675608Y-125122222D01*
X92625685Y-125113010D01*
X92575727Y-125103813D01*
X92525795Y-125094640D01*
X92475827Y-125085481D01*
X92425886Y-125076348D01*
X92375910Y-125067228D01*
X92325961Y-125058134D01*
X92275976Y-125049053D01*
X92226019Y-125039998D01*
X92176027Y-125030957D01*
X92126062Y-125021941D01*
X92076062Y-125012939D01*
X92026090Y-125003963D01*
X91976083Y-124995001D01*
X91926104Y-124986064D01*
X91876090Y-124977141D01*
X91826105Y-124968243D01*
X91776085Y-124959360D01*
X91726094Y-124950502D01*
X91676068Y-124941659D01*
X91626071Y-124932841D01*
X91576040Y-124924037D01*
X91526038Y-124915258D01*
X91476002Y-124906494D01*
X91425994Y-124897755D01*
X91375954Y-124889031D01*
X91325942Y-124880332D01*
X91275897Y-124871648D01*
X91225882Y-124862989D01*
X91175833Y-124854345D01*
X91125813Y-124845726D01*
X91075761Y-124837122D01*
X91025738Y-124828543D01*
X90975683Y-124819979D01*
X90925657Y-124811440D01*
X90875599Y-124802916D01*
X90825571Y-124794418D01*
X90775510Y-124785934D01*
X90725480Y-124777476D01*
X90675417Y-124769032D01*
X90625385Y-124760614D01*
X90575321Y-124752211D01*
X90525287Y-124743833D01*
X90475221Y-124735471D01*
X90425186Y-124727133D01*
X90375120Y-124718811D01*
X90325084Y-124710514D01*
X90275017Y-124702233D01*
X90224981Y-124693976D01*
X90174914Y-124685735D01*
X90124878Y-124677519D01*
X90074811Y-124669319D01*
X90024775Y-124661144D01*
X89974708Y-124652984D01*
X89924673Y-124644849D01*
X89874607Y-124636730D01*
X89824572Y-124628636D01*
X89774508Y-124620558D01*
X89724475Y-124612505D01*
X89674411Y-124604467D01*
X89624380Y-124596455D01*
X89574319Y-124588459D01*
X89524289Y-124580487D01*
X89474230Y-124572531D01*
X89424202Y-124564601D01*
X89374146Y-124556686D01*
X89324121Y-124548797D01*
X89274067Y-124540923D01*
X89224045Y-124533074D01*
X89173995Y-124525242D01*
X89123976Y-124517434D01*
X89073929Y-124509642D01*
X89023914Y-124501876D01*
X88973870Y-124494125D01*
X88923859Y-124486400D01*
X88873820Y-124478691D01*
X88823813Y-124471007D01*
X88773778Y-124463338D01*
X88723775Y-124455695D01*
X88673745Y-124448069D01*
X88623747Y-124440467D01*
X88573722Y-124432881D01*
X88523730Y-124425321D01*
X88473709Y-124417776D01*
X88423722Y-124410257D01*
X88373708Y-124402754D01*
X88323727Y-124395276D01*
X88273718Y-124387815D01*
X88223743Y-124380378D01*
X88173740Y-124372958D01*
X88123771Y-124365563D01*
X88073775Y-124358184D01*
X88023813Y-124350831D01*
X87973824Y-124343494D01*
X87923868Y-124336182D01*
X87873886Y-124328886D01*
X87823938Y-124321615D01*
X87773963Y-124314361D01*
X87724022Y-124307132D01*
X87674055Y-124299919D01*
X87624122Y-124292732D01*
X87574163Y-124285561D01*
X87524238Y-124278415D01*
X87474287Y-124271286D01*
X87424370Y-124264182D01*
X87374428Y-124257094D01*
X87324519Y-124250031D01*
X87274586Y-124242985D01*
X87224686Y-124235965D01*
X87174762Y-124228960D01*
X87124871Y-124221981D01*
X87074956Y-124215019D01*
X87025075Y-124208081D01*
X86975169Y-124201160D01*
X86925298Y-124194265D01*
X86875402Y-124187386D01*
X86825541Y-124180532D01*
X86775654Y-124173695D01*
X86725803Y-124166883D01*
X86675928Y-124160087D01*
X86626087Y-124153317D01*
X86576222Y-124146564D01*
X86526392Y-124139835D01*
X86476538Y-124133124D01*
X86426719Y-124126437D01*
X86376875Y-124119768D01*
X86327068Y-124113123D01*
X86277236Y-124106495D01*
X86227439Y-124099893D01*
X86177619Y-124093307D01*
X86127835Y-124086746D01*
X86078026Y-124080202D01*
X86028253Y-124073683D01*
X85978457Y-124067182D01*
X85928697Y-124060705D01*
X85878913Y-124054245D01*
X85829164Y-124047810D01*
X85779393Y-124041392D01*
X85729658Y-124034999D01*
X85679899Y-124028624D01*
X85630176Y-124022273D01*
X85580431Y-124015939D01*
X85530722Y-124009630D01*
X85480989Y-124003338D01*
X85431293Y-123997072D01*
X85381574Y-123990822D01*
X85331892Y-123984597D01*
X85282187Y-123978390D01*
X85232518Y-123972207D01*
X85182827Y-123966042D01*
X85133173Y-123959901D01*
X85083496Y-123953778D01*
X85033856Y-123947680D01*
X84984193Y-123941599D01*
X84934568Y-123935542D01*
X84884920Y-123929503D01*
X84835309Y-123923489D01*
X84785676Y-123917492D01*
X84736080Y-123911520D01*
X84686462Y-123905565D01*
X84636881Y-123899635D01*
X84587279Y-123893723D01*
X84537713Y-123887835D01*
X84488126Y-123881965D01*
X84438576Y-123876119D01*
X84389005Y-123870291D01*
X84339471Y-123864488D01*
X84289915Y-123858702D01*
X84240397Y-123852940D01*
X84190858Y-123847197D01*
X84141356Y-123841478D01*
X84091834Y-123835776D01*
X84042348Y-123830099D01*
X83992842Y-123824440D01*
X83943373Y-123818805D01*
X83893883Y-123813188D01*
X83844431Y-123807596D01*
X83794959Y-123802021D01*
X83745524Y-123796471D01*
X83696069Y-123790938D01*
X83646651Y-123785430D01*
X83597213Y-123779940D01*
X83547813Y-123774474D01*
X83498392Y-123769026D01*
X83449010Y-123763602D01*
X83399607Y-123758196D01*
X83350242Y-123752815D01*
X83300858Y-123747451D01*
X83251511Y-123742112D01*
X83202144Y-123736791D01*
X83152816Y-123731494D01*
X83103467Y-123726215D01*
X83054157Y-123720960D01*
X83004828Y-123715723D01*
X82955536Y-123710511D01*
X82906225Y-123705316D01*
X82856952Y-123700146D01*
X82807660Y-123694994D01*
X82758406Y-123689866D01*
X82709133Y-123684756D01*
X82659898Y-123679670D01*
X82610645Y-123674602D01*
X82561429Y-123669558D01*
X82512195Y-123664533D01*
X82462999Y-123659532D01*
X82413785Y-123654548D01*
X82364608Y-123649589D01*
X82315413Y-123644648D01*
X82266257Y-123639731D01*
X82217082Y-123634833D01*
X82167946Y-123629958D01*
X82118791Y-123625102D01*
X82069675Y-123620269D01*
X82020541Y-123615455D01*
X81971445Y-123610665D01*
X81922331Y-123605893D01*
X81873256Y-123601145D01*
X81824162Y-123596415D01*
X81775108Y-123591709D01*
X81726035Y-123587022D01*
X81677002Y-123582358D01*
X81627950Y-123577713D01*
X81578938Y-123573092D01*
X81529908Y-123568489D01*
X81480916Y-123563910D01*
X81431907Y-123559349D01*
X81382937Y-123554812D01*
X81333950Y-123550293D01*
X81285001Y-123545798D01*
X81236036Y-123541322D01*
X81187109Y-123536870D01*
X81138165Y-123532435D01*
X81089260Y-123528025D01*
X81040338Y-123523633D01*
X80991455Y-123519265D01*
X80942555Y-123514915D01*
X80893694Y-123510589D01*
X80844817Y-123506281D01*
X80795978Y-123501997D01*
X80747123Y-123497732D01*
X80698307Y-123493490D01*
X80649475Y-123489267D01*
X80600681Y-123485068D01*
X80551872Y-123480887D01*
X80503101Y-123476729D01*
X80454314Y-123472590D01*
X80405566Y-123468475D01*
X80356803Y-123464378D01*
X80308078Y-123460305D01*
X80259337Y-123456250D01*
X80210636Y-123452219D01*
X80161919Y-123448206D01*
X80113241Y-123444217D01*
X80064547Y-123440247D01*
X80015892Y-123436300D01*
X79967222Y-123432372D01*
X79918591Y-123428467D01*
X79869945Y-123424581D01*
X79821338Y-123420718D01*
X79772715Y-123416874D01*
X79724132Y-123413053D01*
X79675533Y-123409251D01*
X79626974Y-123405472D01*
X79578400Y-123401712D01*
X79529865Y-123397975D01*
X79481315Y-123394258D01*
X79432805Y-123390563D01*
X79384279Y-123386887D01*
X79335793Y-123383234D01*
X79287292Y-123379600D01*
X79238831Y-123375990D01*
X79190355Y-123372398D01*
X79141918Y-123368829D01*
X79093466Y-123365279D01*
X79045055Y-123361752D01*
X78996628Y-123358245D01*
X78948241Y-123354760D01*
X78899840Y-123351294D01*
X78851479Y-123347851D01*
X78803103Y-123344427D01*
X78754766Y-123341026D01*
X78706416Y-123337644D01*
X78658104Y-123334285D01*
X78609779Y-123330945D01*
X78561494Y-123327628D01*
X78513194Y-123324329D01*
X78464934Y-123321054D01*
X78416661Y-123317798D01*
X78368427Y-123314564D01*
X78320179Y-123311350D01*
X78271971Y-123308158D01*
X78223749Y-123304986D01*
X78175566Y-123301836D01*
X78127371Y-123298705D01*
X78079215Y-123295597D01*
X78031045Y-123292509D01*
X77982915Y-123289442D01*
X77934772Y-123286395D01*
X77886669Y-123283371D01*
X77838552Y-123280366D01*
X77790475Y-123277383D01*
X77742385Y-123274420D01*
X77694334Y-123271479D01*
X77646271Y-123268557D01*
X77598247Y-123265658D01*
X77550211Y-123262778D01*
X77502214Y-123259921D01*
X77454204Y-123257083D01*
X77406234Y-123254267D01*
X77358252Y-123251470D01*
X77310309Y-123248696D01*
X77262353Y-123245941D01*
X77214438Y-123243209D01*
X77166510Y-123240496D01*
X77118621Y-123237805D01*
X77070720Y-123235134D01*
X77022859Y-123232485D01*
X76974986Y-123229855D01*
X76927152Y-123227247D01*
X76879307Y-123224659D01*
X76831501Y-123222093D01*
X76783683Y-123219546D01*
X76735904Y-123217022D01*
X76688114Y-123214517D01*
X76640364Y-123212034D01*
X76592601Y-123209571D01*
X76544879Y-123207129D01*
X76497144Y-123204707D01*
X76449450Y-123202308D01*
X76401744Y-123199927D01*
X76354077Y-123197569D01*
X76306399Y-123195230D01*
X76258761Y-123192913D01*
X76211111Y-123190616D01*
X76163501Y-123188340D01*
X76115880Y-123186084D01*
X76068299Y-123183850D01*
X76020706Y-123181636D01*
X75973153Y-123179443D01*
X75925589Y-123177270D01*
X75878064Y-123175119D01*
X75830529Y-123172987D01*
X75783033Y-123170877D01*
X75735526Y-123168787D01*
X75688059Y-123166718D01*
X75640582Y-123164669D01*
X75593144Y-123162642D01*
X75545695Y-123160634D01*
X75498286Y-123158648D01*
X75450866Y-123156682D01*
X75403486Y-123154737D01*
X75356096Y-123152812D01*
X75308745Y-123150909D01*
X75261384Y-123149025D01*
X75214062Y-123147163D01*
X75166730Y-123145320D01*
X75119438Y-123143499D01*
X75072136Y-123141698D01*
X75024873Y-123139918D01*
X74977600Y-123138158D01*
X74930367Y-123136419D01*
X74883123Y-123134700D01*
X74835920Y-123133003D01*
X74788706Y-123131325D01*
X74741532Y-123129669D01*
X74694348Y-123128032D01*
X74647204Y-123126417D01*
X74600050Y-123124821D01*
X74552936Y-123123247D01*
X74505812Y-123121692D01*
X74458728Y-123120159D01*
X74411634Y-123118646D01*
X74364580Y-123117154D01*
X74317516Y-123115681D01*
X74270492Y-123114230D01*
X74223458Y-123112798D01*
X74176464Y-123111388D01*
X74129461Y-123109998D01*
X74082497Y-123108628D01*
X74035524Y-123107279D01*
X73988591Y-123105951D01*
X73941649Y-123104642D01*
X73894746Y-123103355D01*
X73847834Y-123102087D01*
X73800962Y-123100840D01*
X73754080Y-123099614D01*
X73707239Y-123098408D01*
X73660388Y-123097222D01*
X73613577Y-123096057D01*
X73566757Y-123094912D01*
X73519977Y-123093788D01*
X73473188Y-123092683D01*
X73426438Y-123091600D01*
X73379680Y-123090536D01*
X73332962Y-123089494D01*
X73286234Y-123088471D01*
X73239547Y-123087469D01*
X73192851Y-123086487D01*
X73146194Y-123085526D01*
X73099529Y-123084585D01*
X73052904Y-123083664D01*
X73006270Y-123082763D01*
X72959676Y-123081884D01*
X72913073Y-123081024D01*
X72866510Y-123080184D01*
X72819939Y-123079365D01*
X72773408Y-123078566D01*
X72726868Y-123077787D01*
X72680368Y-123077029D01*
X72633859Y-123076291D01*
X72587391Y-123075573D01*
X72540914Y-123074876D01*
X72494477Y-123074199D01*
X72448032Y-123073542D01*
X72401626Y-123072905D01*
X72355213Y-123072288D01*
X72308839Y-123071692D01*
X72262457Y-123071116D01*
X72216115Y-123070560D01*
X72169765Y-123070024D01*
X72123455Y-123069509D01*
X72077137Y-123069014D01*
X72030859Y-123068539D01*
X71984573Y-123068084D01*
X71938326Y-123067649D01*
X71892072Y-123067235D01*
X71845858Y-123066840D01*
X71799636Y-123066466D01*
X71753453Y-123066112D01*
X71707263Y-123065778D01*
X71661113Y-123065464D01*
X71614955Y-123065171D01*
X71568837Y-123064897D01*
X71522712Y-123064644D01*
X71476626Y-123064410D01*
X71430533Y-123064197D01*
X71384480Y-123064004D01*
X71338419Y-123063831D01*
X71292398Y-123063678D01*
X71246369Y-123063545D01*
X71200381Y-123063432D01*
X71154385Y-123063339D01*
X71108429Y-123063267D01*
X71062465Y-123063214D01*
X71016542Y-123063181D01*
X70970611Y-123063169D01*
X70924720Y-123063176D01*
X70878822Y-123063203D01*
X70835211Y-123063248D01*
D11*
X69035210Y-81748243D02*
G75*
G02*
X69835272Y-81748243I400031J-49D01*
G01*
X179858421Y-142670005D02*
G75*
G02*
X180658479Y-142670004I400029J-2D01*
G01*
X179803630Y-121578244D02*
X179803630Y-115578244D01*
D10*
X162061523Y-166826660D02*
X179429437Y-154678172D01*
X291393810Y-123062838D02*
X308641799Y-123062839D01*
X309614509Y-122063300D02*
X309614510Y-71162838D01*
D11*
X179779998Y-93389999D02*
X179780000Y-87390000D01*
X180658421Y-148670002D02*
G75*
G02*
X179858427Y-148670003I-399997J-45D01*
G01*
X290681642Y-73748249D02*
X290681642Y-67748250D01*
X180603634Y-135578246D02*
X180603633Y-129578246D01*
X69835210Y-73748243D02*
X69835210Y-67748247D01*
X290736433Y-108840004D02*
G75*
G02*
X291536509Y-108840005I400038J-18D01*
G01*
D10*
X199663497Y-166695142D02*
G75*
G02*
X198368930Y-166827680I-723097J674242D01*
G01*
X69814369Y-62561015D02*
G75*
G02*
X68829092Y-62548428I-492569J11715D01*
G01*
D11*
X69835214Y-101748242D02*
G75*
G02*
X69035120Y-101748242I-400047J-14D01*
G01*
X180658421Y-148670002D02*
X180658420Y-142670004D01*
X180580000Y-93390000D02*
G75*
G02*
X179779950Y-93389999I-400025J-21D01*
G01*
D10*
X198368938Y-166827668D02*
X181003525Y-154680930D01*
D11*
X69835210Y-87748243D02*
G75*
G02*
X69035272Y-87748242I-399969J7D01*
G01*
D10*
X116084910Y-133316742D02*
X115412497Y-138793112D01*
D11*
X179803634Y-135578246D02*
X179803636Y-129578247D01*
D10*
X68828997Y-60750001D02*
X68829000Y-62548428D01*
D11*
X69835214Y-101748242D02*
X69835213Y-95748244D01*
D10*
X179815223Y-152894799D02*
X179815221Y-153844802D01*
D11*
X69890000Y-114839999D02*
X69889999Y-108840001D01*
D10*
X199663497Y-166695142D02*
G75*
G02*
X244282605Y-139885275I56754996J-43921904D01*
G01*
D11*
X179858420Y-148670003D02*
X179858421Y-142670005D01*
X180603631Y-121578244D02*
X180603630Y-115578246D01*
D10*
X69035208Y-123062837D02*
X51786183Y-123062840D01*
D11*
X290736432Y-114840003D02*
X290736433Y-108840004D01*
D10*
X179815221Y-153844802D02*
G75*
G02*
X179429438Y-154678173I-1093021J2D01*
G01*
D11*
X290681643Y-81748246D02*
G75*
G02*
X291481719Y-81748247I400038J36D01*
G01*
D10*
X69835212Y-122062839D02*
X69835207Y-121612838D01*
D11*
X179803632Y-101578249D02*
G75*
G02*
X180603592Y-101578250I399980J3D01*
G01*
D10*
X69824491Y-61148308D02*
G75*
G02*
X70439015Y-60228399I980209J10408D01*
G01*
D11*
X290681647Y-95748247D02*
G75*
G02*
X291481567Y-95748247I399960J17D01*
G01*
X180603631Y-121578244D02*
G75*
G02*
X179803637Y-121578244I-399997J9D01*
G01*
X291536433Y-114840002D02*
G75*
G02*
X290736511Y-114840003I-399961J37D01*
G01*
X291481641Y-87748244D02*
G75*
G02*
X290681671Y-87748244I-399985J-6D01*
G01*
X291481644Y-73748248D02*
X291481643Y-67748250D01*
D10*
X244344113Y-133316771D02*
G75*
G02*
X244670678Y-132447980I994187J122071D01*
G01*
D12*
X180214510Y-84262838D02*
X180271277Y-84203525D01*
X180328097Y-84144272D01*
X180384971Y-84085078D01*
X180441899Y-84025944D01*
X180498880Y-83966869D01*
X180555916Y-83907854D01*
X180613005Y-83848898D01*
X180670147Y-83790002D01*
X180727344Y-83731165D01*
X180784595Y-83672387D01*
X180841899Y-83613669D01*
X180899257Y-83555010D01*
X180956669Y-83496411D01*
X181014135Y-83437870D01*
X181071655Y-83379389D01*
X181129228Y-83320968D01*
X181186856Y-83262605D01*
X181244537Y-83204302D01*
X181302272Y-83146058D01*
X181360062Y-83087873D01*
X181417905Y-83029747D01*
X181475802Y-82971681D01*
X181533753Y-82913673D01*
X181591758Y-82855725D01*
X181649817Y-82797836D01*
X181707931Y-82740006D01*
X181766098Y-82682235D01*
X181824319Y-82624523D01*
X181882594Y-82566870D01*
X181940923Y-82509276D01*
X181999307Y-82451741D01*
X182057744Y-82394265D01*
X182116236Y-82336849D01*
X182174781Y-82279491D01*
X182233381Y-82222192D01*
X182292035Y-82164951D01*
X182350743Y-82107770D01*
X182409505Y-82050648D01*
X182468322Y-81993585D01*
X182527192Y-81936580D01*
X182586117Y-81879634D01*
X182645096Y-81822747D01*
X182704129Y-81765919D01*
X182763217Y-81709150D01*
X182822358Y-81652439D01*
X182881554Y-81595788D01*
X182940805Y-81539195D01*
X183000109Y-81482660D01*
X183059468Y-81426185D01*
X183118881Y-81369768D01*
X183178349Y-81313410D01*
X183237871Y-81257110D01*
X183297447Y-81200869D01*
X183357078Y-81144687D01*
X183416763Y-81088563D01*
X183476502Y-81032498D01*
X183536296Y-80976492D01*
X183596145Y-80920544D01*
X183656047Y-80864655D01*
X183716005Y-80808824D01*
X183776017Y-80753052D01*
X183836083Y-80697339D01*
X183896204Y-80641684D01*
X183956379Y-80586087D01*
X184016609Y-80530549D01*
X184076893Y-80475069D01*
X184137232Y-80419648D01*
X184197626Y-80364286D01*
X184258074Y-80308981D01*
X184318577Y-80253735D01*
X184379134Y-80198548D01*
X184439746Y-80143419D01*
X184500413Y-80088348D01*
X184561134Y-80033336D01*
X184621911Y-79978382D01*
X184682741Y-79923487D01*
X184743627Y-79868650D01*
X184804567Y-79813871D01*
X184865562Y-79759150D01*
X184926612Y-79704488D01*
X184987717Y-79649884D01*
X185048876Y-79595339D01*
X185110090Y-79540851D01*
X185171359Y-79486422D01*
X185232683Y-79432051D01*
X185294062Y-79377739D01*
X185355496Y-79323484D01*
X185416984Y-79269288D01*
X185478528Y-79215150D01*
X185540126Y-79161070D01*
X185601780Y-79107049D01*
X185663488Y-79053085D01*
X185725251Y-78999180D01*
X185787070Y-78945333D01*
X185848943Y-78891544D01*
X185910871Y-78837813D01*
X185972855Y-78784140D01*
X186034893Y-78730526D01*
X186096987Y-78676969D01*
X186159135Y-78623471D01*
X186221339Y-78570030D01*
X186283598Y-78516648D01*
X186345912Y-78463324D01*
X186408281Y-78410058D01*
X186470706Y-78356850D01*
X186533185Y-78303700D01*
X186595720Y-78250608D01*
X186658310Y-78197574D01*
X186720955Y-78144598D01*
X186783655Y-78091680D01*
X186846411Y-78038820D01*
X186909222Y-77986018D01*
X186972089Y-77933274D01*
X187035010Y-77880588D01*
X187097987Y-77827960D01*
X187161020Y-77775390D01*
X187224108Y-77722878D01*
X187287251Y-77670424D01*
X187350449Y-77618027D01*
X187413704Y-77565689D01*
X187477013Y-77513409D01*
X187540378Y-77461186D01*
X187603798Y-77409022D01*
X187667274Y-77356915D01*
X187730806Y-77304866D01*
X187794393Y-77252875D01*
X187858035Y-77200942D01*
X187921734Y-77149067D01*
X187985487Y-77097250D01*
X188049297Y-77045491D01*
X188113162Y-76993789D01*
X188177082Y-76942145D01*
X188241058Y-76890559D01*
X188305090Y-76839031D01*
X188369178Y-76787561D01*
X188433321Y-76736149D01*
X188497520Y-76684794D01*
X188561775Y-76633498D01*
X188626086Y-76582259D01*
X188690452Y-76531078D01*
X188754875Y-76479955D01*
X188819353Y-76428889D01*
X188883886Y-76377881D01*
X188948476Y-76326932D01*
X189013122Y-76276039D01*
X189077823Y-76225205D01*
X189142581Y-76174429D01*
X189207394Y-76123710D01*
X189272263Y-76073049D01*
X189337189Y-76022446D01*
X189402170Y-75971900D01*
X189467207Y-75921412D01*
X189532300Y-75870982D01*
X189597450Y-75820610D01*
X189662655Y-75770296D01*
X189727917Y-75720039D01*
X189793234Y-75669840D01*
X189858608Y-75619699D01*
X189924038Y-75569615D01*
X189989524Y-75519590D01*
X190055066Y-75469621D01*
X190120664Y-75419711D01*
X190186319Y-75369859D01*
X190252029Y-75320064D01*
X190317796Y-75270327D01*
X190383620Y-75220647D01*
X190449499Y-75171025D01*
X190515435Y-75121461D01*
X190581427Y-75071955D01*
X190647476Y-75022507D01*
X190713581Y-74973116D01*
X190779742Y-74923783D01*
X190845960Y-74874507D01*
X190912234Y-74825289D01*
X190978564Y-74776129D01*
X191044951Y-74727027D01*
X191111395Y-74677982D01*
X191177895Y-74628996D01*
X191244451Y-74580066D01*
X191311064Y-74531195D01*
X191377734Y-74482381D01*
X191444460Y-74433625D01*
X191511242Y-74384927D01*
X191578082Y-74336286D01*
X191644978Y-74287703D01*
X191711930Y-74239178D01*
X191778939Y-74190710D01*
X191846005Y-74142300D01*
X191913128Y-74093948D01*
X191980307Y-74045653D01*
X192047543Y-73997417D01*
X192114836Y-73949238D01*
X192182186Y-73901116D01*
X192249592Y-73853053D01*
X192317056Y-73805047D01*
X192384576Y-73757098D01*
X192452153Y-73709208D01*
X192519786Y-73661375D01*
X192587477Y-73613600D01*
X192655225Y-73565883D01*
X192723029Y-73518223D01*
X192790891Y-73470621D01*
X192858809Y-73423077D01*
X192926785Y-73375591D01*
X192994817Y-73328162D01*
X193062907Y-73280791D01*
X193131053Y-73233478D01*
X193199257Y-73186222D01*
X193267518Y-73139024D01*
X193335835Y-73091884D01*
X193404210Y-73044802D01*
X193472642Y-72997777D01*
X193541132Y-72950811D01*
X193609678Y-72903902D01*
X193678282Y-72857050D01*
X193746943Y-72810257D01*
X193815661Y-72763521D01*
X193884436Y-72716843D01*
X193953269Y-72670223D01*
X194022159Y-72623661D01*
X194091106Y-72577156D01*
X194160111Y-72530709D01*
X194229173Y-72484320D01*
X194298292Y-72437989D01*
X194367469Y-72391716D01*
X194436703Y-72345500D01*
X194505995Y-72299342D01*
X194575344Y-72253242D01*
X194644751Y-72207200D01*
X194714215Y-72161216D01*
X194783736Y-72115289D01*
X194853316Y-72069420D01*
X194922952Y-72023610D01*
X194992647Y-71977857D01*
X195062398Y-71932162D01*
X195132208Y-71886524D01*
X195202075Y-71840945D01*
X195272000Y-71795424D01*
X195341982Y-71749960D01*
X195412022Y-71704554D01*
X195482120Y-71659206D01*
X195552276Y-71613917D01*
X195622489Y-71568685D01*
X195692760Y-71523510D01*
X195763089Y-71478394D01*
X195833476Y-71433336D01*
X195903920Y-71388336D01*
X195974423Y-71343393D01*
X196044983Y-71298509D01*
X196115601Y-71253683D01*
X196186277Y-71208914D01*
X196257011Y-71164204D01*
X196327803Y-71119551D01*
X196398653Y-71074957D01*
X196469561Y-71030420D01*
X196540527Y-70985942D01*
X196611550Y-70941521D01*
X196682632Y-70897159D01*
X196753772Y-70852854D01*
X196824970Y-70808608D01*
X196896227Y-70764420D01*
X196967541Y-70720290D01*
X197038913Y-70676217D01*
X197110344Y-70632203D01*
X197181833Y-70588247D01*
X197253380Y-70544349D01*
X197324985Y-70500510D01*
X197396648Y-70456728D01*
X197468370Y-70413004D01*
X197540150Y-70369339D01*
X197611988Y-70325732D01*
X197683884Y-70282183D01*
X197755839Y-70238692D01*
X197827852Y-70195259D01*
X197899924Y-70151885D01*
X197972054Y-70108568D01*
X198044242Y-70065310D01*
X198116489Y-70022110D01*
X198188794Y-69978969D01*
X198261158Y-69935885D01*
X198333580Y-69892860D01*
X198406061Y-69849893D01*
X198478600Y-69806984D01*
X198551198Y-69764134D01*
X198623854Y-69721342D01*
X198696569Y-69678608D01*
X198769342Y-69635933D01*
X198842174Y-69593316D01*
X198915065Y-69550757D01*
X198988014Y-69508257D01*
X199061022Y-69465815D01*
X199134089Y-69423432D01*
X199207214Y-69381107D01*
X199280398Y-69338840D01*
X199353641Y-69296632D01*
X199426943Y-69254482D01*
X199500303Y-69212390D01*
X199573722Y-69170357D01*
X199647200Y-69128383D01*
X199720737Y-69086467D01*
X199794333Y-69044610D01*
X199867987Y-69002811D01*
X199941701Y-68961070D01*
X200015473Y-68919389D01*
X200089304Y-68877765D01*
X200163194Y-68836201D01*
X200237143Y-68794695D01*
X200311152Y-68753247D01*
X200385219Y-68711858D01*
X200459345Y-68670528D01*
X200533530Y-68629257D01*
X200607774Y-68588044D01*
X200682077Y-68546889D01*
X200756440Y-68505794D01*
X200830861Y-68464757D01*
X200905342Y-68423779D01*
X200979882Y-68382860D01*
X201054480Y-68341999D01*
X201129138Y-68301197D01*
X201203856Y-68260454D01*
X201278632Y-68219770D01*
X201353468Y-68179145D01*
X201428363Y-68138578D01*
X201503317Y-68098071D01*
X201578330Y-68057622D01*
X201653403Y-68017232D01*
X201728535Y-67976901D01*
X201803726Y-67936629D01*
X201878977Y-67896416D01*
X201954287Y-67856261D01*
X202029656Y-67816166D01*
X202105085Y-67776130D01*
X202180573Y-67736153D01*
X202256121Y-67696235D01*
X202331728Y-67656375D01*
X202407395Y-67616575D01*
X202483121Y-67576834D01*
X202558906Y-67537152D01*
X202634751Y-67497530D01*
X202710656Y-67457966D01*
X202786620Y-67418461D01*
X202862644Y-67379016D01*
X202938727Y-67339630D01*
X203014870Y-67300303D01*
X203091072Y-67261035D01*
X203167334Y-67221827D01*
X203243656Y-67182677D01*
X203320037Y-67143587D01*
X203396478Y-67104557D01*
X203472979Y-67065585D01*
X203549539Y-67026673D01*
X203626160Y-66987821D01*
X203702839Y-66949027D01*
X203779579Y-66910294D01*
X203856378Y-66871619D01*
X203933238Y-66833004D01*
X204010156Y-66794449D01*
X204087135Y-66755953D01*
X204164174Y-66717516D01*
X204241272Y-66679139D01*
X204318431Y-66640821D01*
X204395649Y-66602563D01*
X204472927Y-66564365D01*
X204550265Y-66526226D01*
X204627662Y-66488147D01*
X204705120Y-66450128D01*
X204782638Y-66412168D01*
X204860216Y-66374268D01*
X204937853Y-66336427D01*
X205015551Y-66298646D01*
X205093308Y-66260926D01*
X205171126Y-66223264D01*
X205249004Y-66185663D01*
X205326941Y-66148121D01*
X205404939Y-66110640D01*
X205482997Y-66073218D01*
X205561115Y-66035856D01*
X205639293Y-65998554D01*
X205717531Y-65961312D01*
X205795829Y-65924129D01*
X205874188Y-65887007D01*
X205952606Y-65849945D01*
X206031085Y-65812943D01*
X206109624Y-65776000D01*
X206188223Y-65739118D01*
X206266882Y-65702296D01*
X206345602Y-65665534D01*
X206424381Y-65628833D01*
X206503221Y-65592191D01*
X206582121Y-65555610D01*
X206661082Y-65519089D01*
X206740103Y-65482628D01*
X206819184Y-65446227D01*
X206898325Y-65409886D01*
X206977527Y-65373606D01*
X207056788Y-65337386D01*
X207136111Y-65301227D01*
X207215493Y-65265128D01*
X207294936Y-65229089D01*
X207374440Y-65193111D01*
X207454004Y-65157193D01*
X207533628Y-65121336D01*
X207613312Y-65085539D01*
X207693057Y-65049803D01*
X207772863Y-65014127D01*
X207852728Y-64978512D01*
X207932655Y-64942958D01*
X208012641Y-64907464D01*
X208092689Y-64872031D01*
X208172796Y-64836658D01*
X208252965Y-64801346D01*
X208333193Y-64766095D01*
X208413482Y-64730905D01*
X208493832Y-64695775D01*
X208574242Y-64660707D01*
X208654713Y-64625699D01*
X208735245Y-64590752D01*
X208815836Y-64555866D01*
X208896489Y-64521040D01*
X208977202Y-64486276D01*
X209057976Y-64451573D01*
X209138810Y-64416931D01*
X209219705Y-64382350D01*
X209300660Y-64347829D01*
X209381676Y-64313370D01*
X209462753Y-64278972D01*
X209543890Y-64244636D01*
X209625088Y-64210360D01*
X209706347Y-64176146D01*
X209787666Y-64141992D01*
X209869046Y-64107900D01*
X209950487Y-64073870D01*
X210031988Y-64039900D01*
X210113550Y-64005992D01*
X210195173Y-63972146D01*
X210276856Y-63938361D01*
X210358600Y-63904637D01*
X210440405Y-63870974D01*
X210522271Y-63837374D01*
X210604197Y-63803834D01*
X210686184Y-63770357D01*
X210768232Y-63736940D01*
X210850341Y-63703586D01*
X210932510Y-63670293D01*
X211014740Y-63637061D01*
X211097031Y-63603892D01*
X211179383Y-63570784D01*
X211261795Y-63537738D01*
X211344269Y-63504754D01*
X211426803Y-63471831D01*
X211509397Y-63438970D01*
X211592053Y-63406172D01*
X211674769Y-63373435D01*
X211757547Y-63340760D01*
X211840385Y-63308147D01*
X211923284Y-63275596D01*
X212006243Y-63243107D01*
X212089264Y-63210680D01*
X212172345Y-63178315D01*
X212255487Y-63146013D01*
X212338691Y-63113772D01*
X212421954Y-63081594D01*
X212505279Y-63049478D01*
X212588665Y-63017424D01*
X212672111Y-62985432D01*
X212755618Y-62953503D01*
X212839187Y-62921636D01*
X212922816Y-62889832D01*
X213006506Y-62858089D01*
X213090256Y-62826410D01*
X213174068Y-62794793D01*
X213257940Y-62763238D01*
X213341874Y-62731746D01*
X213425868Y-62700316D01*
X213509923Y-62668949D01*
X213594039Y-62637645D01*
X213678216Y-62606403D01*
X213762453Y-62575224D01*
X213846752Y-62544108D01*
X213931111Y-62513055D01*
X214015532Y-62482064D01*
X214100013Y-62451137D01*
X214184555Y-62420272D01*
X214269158Y-62389470D01*
X214353822Y-62358731D01*
X214438546Y-62328055D01*
X214523332Y-62297442D01*
X214608178Y-62266892D01*
X214693085Y-62236405D01*
X214778054Y-62205981D01*
X214863083Y-62175620D01*
X214948172Y-62145323D01*
X215033323Y-62115089D01*
X215118535Y-62084918D01*
X215203807Y-62054810D01*
X215289140Y-62024766D01*
X215374534Y-61994785D01*
X215459989Y-61964867D01*
X215545505Y-61935013D01*
X215631082Y-61905222D01*
X215716719Y-61875495D01*
X215802418Y-61845831D01*
X215888177Y-61816231D01*
X215973997Y-61786695D01*
X216059877Y-61757222D01*
X216145819Y-61727813D01*
X216231821Y-61698467D01*
X216317884Y-61669185D01*
X216404008Y-61639967D01*
X216490193Y-61610813D01*
X216576438Y-61581723D01*
X216662745Y-61552697D01*
X216749112Y-61523734D01*
X216835539Y-61494836D01*
X216922028Y-61466001D01*
X217008577Y-61437231D01*
X217095187Y-61408525D01*
X217181858Y-61379883D01*
X217268589Y-61351305D01*
X217355382Y-61322791D01*
X217442235Y-61294341D01*
X217529148Y-61265956D01*
X217616122Y-61237635D01*
X217703157Y-61209378D01*
X217790253Y-61181186D01*
X217877409Y-61153058D01*
X217964626Y-61124994D01*
X218051904Y-61096996D01*
X218139242Y-61069061D01*
X218226641Y-61041191D01*
X218314100Y-61013386D01*
X218401620Y-60985646D01*
X218489201Y-60957970D01*
X218576842Y-60930359D01*
X218664543Y-60902812D01*
X218752306Y-60875331D01*
X218840129Y-60847914D01*
X218928012Y-60820562D01*
X219015956Y-60793275D01*
X219103960Y-60766053D01*
X219192025Y-60738896D01*
X219280150Y-60711804D01*
X219368336Y-60684777D01*
X219456582Y-60657815D01*
X219544889Y-60630919D01*
X219633256Y-60604087D01*
X219721683Y-60577321D01*
X219810171Y-60550620D01*
X219898719Y-60523985D01*
X219987327Y-60497414D01*
X220075996Y-60470910D01*
X220164725Y-60444470D01*
X220253515Y-60418096D01*
X220342365Y-60391788D01*
X220431275Y-60365545D01*
X220520245Y-60339368D01*
X220609275Y-60313256D01*
X220698366Y-60287210D01*
X220787517Y-60261230D01*
X220876728Y-60235315D01*
X220965999Y-60209467D01*
X221055330Y-60183684D01*
X221144722Y-60157967D01*
X221234173Y-60132316D01*
X221323685Y-60106731D01*
X221413257Y-60081212D01*
X221502888Y-60055759D01*
X221592580Y-60030372D01*
X221682332Y-60005051D01*
X221772143Y-59979796D01*
X221862015Y-59954608D01*
X221951946Y-59929486D01*
X222041938Y-59904430D01*
X222131989Y-59879440D01*
X222222100Y-59854517D01*
X222312271Y-59829661D01*
X222402502Y-59804870D01*
X222492792Y-59780147D01*
X222583143Y-59755489D01*
X222673553Y-59730899D01*
X222764023Y-59706375D01*
X222854552Y-59681917D01*
X222945141Y-59657527D01*
X223035790Y-59633203D01*
X223126498Y-59608946D01*
X223217266Y-59584756D01*
X223308093Y-59560632D01*
X223398980Y-59536576D01*
X223489926Y-59512587D01*
X223580932Y-59488664D01*
X223671998Y-59464809D01*
X223763122Y-59441021D01*
X223854306Y-59417300D01*
X223945550Y-59393646D01*
X224036852Y-59370059D01*
X224128214Y-59346540D01*
X224219635Y-59323088D01*
X224311116Y-59299703D01*
X224402655Y-59276386D01*
X224494254Y-59253136D01*
X224585912Y-59229954D01*
X224677629Y-59206839D01*
X224769405Y-59183792D01*
X224861240Y-59160812D01*
X224953134Y-59137901D01*
X225045087Y-59115056D01*
X225137099Y-59092280D01*
X225229169Y-59069571D01*
X225321299Y-59046931D01*
X225413487Y-59024358D01*
X225505734Y-59001853D01*
X225598040Y-58979416D01*
X225690405Y-58957047D01*
X225782828Y-58934746D01*
X225875310Y-58912513D01*
X225967850Y-58890349D01*
X226060449Y-58868253D01*
X226153106Y-58846224D01*
X226245822Y-58824265D01*
X226338597Y-58802373D01*
X226431429Y-58780550D01*
X226524320Y-58758795D01*
X226617270Y-58737109D01*
X226710277Y-58715492D01*
X226803343Y-58693943D01*
X226896467Y-58672462D01*
X226989649Y-58651050D01*
X227082889Y-58629707D01*
X227176187Y-58608433D01*
X227269543Y-58587227D01*
X227362957Y-58566091D01*
X227456429Y-58545023D01*
X227549959Y-58524024D01*
X227643547Y-58503094D01*
X227737192Y-58482233D01*
X227830895Y-58461441D01*
X227924656Y-58440718D01*
X228018475Y-58420065D01*
X228112351Y-58399480D01*
X228206284Y-58378965D01*
X228300275Y-58358519D01*
X228394323Y-58338143D01*
X228488429Y-58317836D01*
X228582592Y-58297598D01*
X228676812Y-58277430D01*
X228771090Y-58257331D01*
X228865425Y-58237302D01*
X228959816Y-58217343D01*
X229054265Y-58197453D01*
X229148771Y-58177633D01*
X229243334Y-58157883D01*
X229337953Y-58138202D01*
X229432630Y-58118592D01*
X229527363Y-58099051D01*
X229622153Y-58079580D01*
X229717000Y-58060179D01*
X229811903Y-58040849D01*
X229906863Y-58021588D01*
X230001879Y-58002397D01*
X230096952Y-57983277D01*
X230192081Y-57964227D01*
X230287266Y-57945247D01*
X230382508Y-57926338D01*
X230477805Y-57907498D01*
X230573159Y-57888730D01*
X230668569Y-57870031D01*
X230764035Y-57851404D01*
X230859557Y-57832846D01*
X230955135Y-57814360D01*
X231050768Y-57795944D01*
X231146458Y-57777598D01*
X231242203Y-57759324D01*
X231338003Y-57741120D01*
X231433859Y-57722987D01*
X231529771Y-57704925D01*
X231625738Y-57686934D01*
X231721760Y-57669014D01*
X231817838Y-57651165D01*
X231913970Y-57633387D01*
X232010158Y-57615680D01*
X232106401Y-57598045D01*
X232202699Y-57580480D01*
X232299052Y-57562987D01*
X232395460Y-57545565D01*
X232491922Y-57528214D01*
X232588439Y-57510935D01*
X232685011Y-57493728D01*
X232781637Y-57476592D01*
X232878318Y-57459527D01*
X232975053Y-57442534D01*
X233071842Y-57425613D01*
X233168686Y-57408763D01*
X233265583Y-57391985D01*
X233362535Y-57375279D01*
X233459541Y-57358644D01*
X233556601Y-57342082D01*
X233653714Y-57325591D01*
X233750882Y-57309173D01*
X233848103Y-57292826D01*
X233945377Y-57276552D01*
X234042705Y-57260350D01*
X234140087Y-57244220D01*
X234237522Y-57228162D01*
X234335010Y-57212176D01*
X234432551Y-57196263D01*
X234530145Y-57180422D01*
X234627792Y-57164653D01*
X234725492Y-57148957D01*
X234823245Y-57133333D01*
X234921051Y-57117782D01*
X235018909Y-57102304D01*
X235116820Y-57086898D01*
X235214783Y-57071565D01*
X235312799Y-57056304D01*
X235410867Y-57041117D01*
X235508987Y-57026002D01*
X235607159Y-57010960D01*
X235705383Y-56995991D01*
X235803659Y-56981095D01*
X235901986Y-56966272D01*
X236000366Y-56951522D01*
X236098797Y-56936846D01*
X236197279Y-56922242D01*
X236295813Y-56907712D01*
X236394398Y-56893254D01*
X236493034Y-56878871D01*
X236591721Y-56864560D01*
X236690460Y-56850323D01*
X236789249Y-56836159D01*
X236888089Y-56822069D01*
X236986979Y-56808053D01*
X237085920Y-56794110D01*
X237184912Y-56780240D01*
X237283954Y-56766445D01*
X237383046Y-56752723D01*
X237482188Y-56739075D01*
X237581381Y-56725500D01*
X237680623Y-56712000D01*
X237779915Y-56698573D01*
X237879256Y-56685221D01*
X237978647Y-56671942D01*
X238078088Y-56658738D01*
X238177578Y-56645607D01*
X238277117Y-56632551D01*
X238376705Y-56619569D01*
X238476342Y-56606661D01*
X238576029Y-56593828D01*
X238675763Y-56581069D01*
X238775547Y-56568384D01*
X238875379Y-56555774D01*
X238975259Y-56543238D01*
X239075188Y-56530777D01*
X239175164Y-56518390D01*
X239275189Y-56506078D01*
X239375261Y-56493840D01*
X239475382Y-56481678D01*
X239575550Y-56469590D01*
X239675765Y-56457577D01*
X239776028Y-56445638D01*
X239876338Y-56433775D01*
X239976695Y-56421986D01*
X240077099Y-56410273D01*
X240177550Y-56398635D01*
X240278048Y-56387071D01*
X240378592Y-56375583D01*
X240479183Y-56364170D01*
X240579820Y-56352832D01*
X240680503Y-56341569D01*
X240781232Y-56330382D01*
X240882007Y-56319270D01*
X240982828Y-56308234D01*
X241083694Y-56297273D01*
X241184606Y-56286387D01*
X241285563Y-56275577D01*
X241386565Y-56264842D01*
X241487613Y-56254183D01*
X241588705Y-56243600D01*
X241689842Y-56233093D01*
X241791023Y-56222661D01*
X241892249Y-56212305D01*
X241993519Y-56202025D01*
X242094834Y-56191821D01*
X242196192Y-56181692D01*
X242297594Y-56171640D01*
X242399040Y-56161664D01*
X242500529Y-56151763D01*
X242602062Y-56141939D01*
X242703638Y-56132191D01*
X242805257Y-56122519D01*
X242906918Y-56112924D01*
X243008623Y-56103404D01*
X243110370Y-56093961D01*
X243212159Y-56084595D01*
X243313991Y-56075305D01*
X243415865Y-56066091D01*
X243517780Y-56056954D01*
X243619737Y-56047893D01*
X243721736Y-56038909D01*
X243823776Y-56030001D01*
X243925858Y-56021170D01*
X244027980Y-56012416D01*
X244130144Y-56003739D01*
X244232348Y-55995138D01*
X244334592Y-55986614D01*
X244436877Y-55978167D01*
X244539202Y-55969797D01*
X244641567Y-55961504D01*
X244743972Y-55953288D01*
X244846416Y-55945149D01*
X244948900Y-55937087D01*
X245051423Y-55929102D01*
X245153985Y-55921194D01*
X245256586Y-55913363D01*
X245359226Y-55905610D01*
X245461904Y-55897934D01*
X245564620Y-55890335D01*
X245667375Y-55882814D01*
X245770167Y-55875370D01*
X245872997Y-55868003D01*
X245975865Y-55860714D01*
X246078770Y-55853502D01*
X246181712Y-55846368D01*
X246284691Y-55839312D01*
X246387707Y-55832333D01*
X246490759Y-55825432D01*
X246593848Y-55818608D01*
X246696973Y-55811862D01*
X246800134Y-55805194D01*
X246903330Y-55798604D01*
X247006562Y-55792092D01*
X247109829Y-55785657D01*
X247213131Y-55779301D01*
X247316468Y-55773022D01*
X247419840Y-55766822D01*
X247523246Y-55760699D01*
X247626686Y-55754655D01*
X247730161Y-55748688D01*
X247833669Y-55742800D01*
X247937210Y-55736990D01*
X248040785Y-55731258D01*
X248144393Y-55725604D01*
X248248034Y-55720029D01*
X248351708Y-55714532D01*
X248455414Y-55709113D01*
X248559152Y-55703773D01*
X248662922Y-55698511D01*
X248766723Y-55693327D01*
X248870557Y-55688222D01*
X248974421Y-55683196D01*
X249078317Y-55678248D01*
X249182243Y-55673378D01*
X249286200Y-55668588D01*
X249390187Y-55663875D01*
X249494204Y-55659242D01*
X249598251Y-55654687D01*
X249702327Y-55650211D01*
X249806433Y-55645814D01*
X249910568Y-55641495D01*
X250014731Y-55637255D01*
X250118924Y-55633095D01*
X250223144Y-55629013D01*
X250327392Y-55625010D01*
X250431668Y-55621086D01*
X250535972Y-55617240D01*
X250640303Y-55613474D01*
X250744661Y-55609787D01*
X250849046Y-55606179D01*
X250953457Y-55602650D01*
X251057894Y-55599200D01*
X251162357Y-55595829D01*
X251266846Y-55592538D01*
X251371360Y-55589325D01*
X251475899Y-55586192D01*
X251580463Y-55583138D01*
X251685052Y-55580164D01*
X251789664Y-55577268D01*
X251894301Y-55574452D01*
X251998962Y-55571715D01*
X252103645Y-55569058D01*
X252208352Y-55566480D01*
X252313082Y-55563981D01*
X252417834Y-55561562D01*
X252522609Y-55559222D01*
X252627405Y-55556962D01*
X252732223Y-55554781D01*
X252837063Y-55552680D01*
X252941923Y-55550658D01*
X253046804Y-55548716D01*
X253151706Y-55546854D01*
X253256628Y-55545071D01*
X253361569Y-55543367D01*
X253466530Y-55541744D01*
X253571511Y-55540200D01*
X253676510Y-55538735D01*
X253781527Y-55537351D01*
X253886563Y-55536046D01*
X253991617Y-55534820D01*
X254096689Y-55533675D01*
X254201777Y-55532609D01*
X254306883Y-55531623D01*
X254412005Y-55530717D01*
X254517144Y-55529891D01*
X254622299Y-55529144D01*
X254727469Y-55528477D01*
X254832654Y-55527890D01*
X254937855Y-55527383D01*
X255043070Y-55526956D01*
X255148299Y-55526609D01*
X255253542Y-55526342D01*
X255358799Y-55526154D01*
X255464069Y-55526047D01*
X255569352Y-55526019D01*
X255674648Y-55526071D01*
X255779955Y-55526204D01*
X255885275Y-55526416D01*
X255990606Y-55526708D01*
X256095948Y-55527080D01*
X256201301Y-55527532D01*
X256306664Y-55528064D01*
X256412037Y-55528677D01*
X256517420Y-55529369D01*
X256622812Y-55530141D01*
X256728212Y-55530993D01*
X256833622Y-55531925D01*
X256939039Y-55532937D01*
X257044464Y-55534029D01*
X257149897Y-55535202D01*
X257255337Y-55536454D01*
X257360783Y-55537786D01*
X257466235Y-55539198D01*
X257571693Y-55540691D01*
X257677157Y-55542263D01*
X257782625Y-55543915D01*
X257888098Y-55545647D01*
X257993576Y-55547460D01*
X258099057Y-55549352D01*
X258204541Y-55551325D01*
X258310029Y-55553377D01*
X258415519Y-55555509D01*
X258521011Y-55557722D01*
X258626505Y-55560014D01*
X258732000Y-55562387D01*
X258837496Y-55564839D01*
X258942992Y-55567371D01*
X259048489Y-55569983D01*
X259153985Y-55572676D01*
X259259480Y-55575448D01*
X259364974Y-55578300D01*
X259470467Y-55581232D01*
X259575957Y-55584244D01*
X259681445Y-55587336D01*
X259786929Y-55590507D01*
X259892410Y-55593759D01*
X259997888Y-55597090D01*
X260103360Y-55600502D01*
X260208828Y-55603993D01*
X260314291Y-55607564D01*
X260419748Y-55611214D01*
X260525198Y-55614945D01*
X260630642Y-55618755D01*
X260736079Y-55622645D01*
X260841508Y-55626614D01*
X260946929Y-55630664D01*
X261052342Y-55634793D01*
X261157745Y-55639001D01*
X261263139Y-55643290D01*
X261368523Y-55647657D01*
X261473896Y-55652105D01*
X261579258Y-55656632D01*
X261684609Y-55661238D01*
X261789948Y-55665924D01*
X261895274Y-55670689D01*
X262000587Y-55675534D01*
X262105887Y-55680458D01*
X262211172Y-55685462D01*
X262316443Y-55690545D01*
X262421699Y-55695707D01*
X262526939Y-55700949D01*
X262632164Y-55706269D01*
X262737371Y-55711669D01*
X262842562Y-55717148D01*
X262947735Y-55722706D01*
X263052889Y-55728344D01*
X263158025Y-55734060D01*
X263263142Y-55739855D01*
X263368238Y-55745729D01*
X263473315Y-55751683D01*
X263578370Y-55757715D01*
X263683404Y-55763825D01*
X263788416Y-55770015D01*
X263893405Y-55776283D01*
X263998371Y-55782630D01*
X264103314Y-55789056D01*
X264208232Y-55795561D01*
X264313125Y-55802143D01*
X264417993Y-55808805D01*
X264522835Y-55815544D01*
X264627650Y-55822363D01*
X264732438Y-55829259D01*
X264837198Y-55836234D01*
X264941930Y-55843287D01*
X265046633Y-55850418D01*
X265151307Y-55857627D01*
X265255950Y-55864915D01*
X265360563Y-55872280D01*
X265465144Y-55879723D01*
X265569693Y-55887244D01*
X265674210Y-55894843D01*
X265778694Y-55902520D01*
X265883143Y-55910274D01*
X265987559Y-55918106D01*
X266091939Y-55926015D01*
X266196284Y-55934002D01*
X266300592Y-55942066D01*
X266404863Y-55950207D01*
X266509097Y-55958426D01*
X266613293Y-55966722D01*
X266717449Y-55975095D01*
X266821566Y-55983545D01*
X266925643Y-55992072D01*
X267029679Y-56000676D01*
X267133674Y-56009356D01*
X267237626Y-56018113D01*
X267341536Y-56026947D01*
X267445402Y-56035858D01*
X267549224Y-56044844D01*
X267653001Y-56053907D01*
X267756732Y-56063047D01*
X267860417Y-56072262D01*
X267964056Y-56081554D01*
X268067646Y-56090921D01*
X268171189Y-56100365D01*
X268274682Y-56109884D01*
X268378126Y-56119479D01*
X268481519Y-56129150D01*
X268584861Y-56138896D01*
X268688152Y-56148717D01*
X268791389Y-56158614D01*
X268894574Y-56168585D01*
X268997704Y-56178632D01*
X269100780Y-56188754D01*
X269203800Y-56198951D01*
X269306764Y-56209223D01*
X269409671Y-56219569D01*
X269512520Y-56229989D01*
X269615311Y-56240485D01*
X269718043Y-56251054D01*
X269820715Y-56261697D01*
X269923326Y-56272415D01*
X270025875Y-56283207D01*
X270128363Y-56294072D01*
X270230787Y-56305011D01*
X270333147Y-56316024D01*
X270435443Y-56327110D01*
X270537674Y-56338269D01*
X270639838Y-56349502D01*
X270741936Y-56360807D01*
X270843966Y-56372186D01*
X270945927Y-56383637D01*
X271047819Y-56395161D01*
X271149641Y-56406757D01*
X271251392Y-56418426D01*
X271353071Y-56430167D01*
X271454677Y-56441980D01*
X271556211Y-56453865D01*
X271657670Y-56465822D01*
X271759054Y-56477850D01*
X271860362Y-56489950D01*
X271961593Y-56502121D01*
X272062747Y-56514364D01*
X272163823Y-56526677D01*
X272264819Y-56539061D01*
X272365735Y-56551516D01*
X272466570Y-56564042D01*
X272567324Y-56576638D01*
X272667994Y-56589304D01*
X272768582Y-56602040D01*
X272869084Y-56614846D01*
X272969502Y-56627721D01*
X273069833Y-56640666D01*
X273170078Y-56653681D01*
X273270234Y-56666765D01*
X273370302Y-56679917D01*
X273470280Y-56693139D01*
X273570167Y-56706429D01*
X273669963Y-56719788D01*
X273769666Y-56733214D01*
X273869276Y-56746709D01*
X273968792Y-56760272D01*
X274068212Y-56773903D01*
X274167537Y-56787601D01*
X274266764Y-56801366D01*
X274365894Y-56815198D01*
X274464925Y-56829098D01*
X274563856Y-56843063D01*
X274662686Y-56857096D01*
X274761415Y-56871195D01*
X274860040Y-56885359D01*
X274958563Y-56899590D01*
X275056980Y-56913886D01*
X275155293Y-56928248D01*
X275253499Y-56942675D01*
X275351597Y-56957167D01*
X275449587Y-56971724D01*
X275547468Y-56986345D01*
X275645238Y-57001030D01*
X275742897Y-57015780D01*
X275840443Y-57030594D01*
X275937877Y-57045471D01*
X276035196Y-57060411D01*
X276132400Y-57075415D01*
X276229487Y-57090481D01*
X276326457Y-57105611D01*
X276423309Y-57120802D01*
X276520042Y-57136056D01*
X276616654Y-57151372D01*
X276713145Y-57166749D01*
X276809513Y-57182188D01*
X276905758Y-57197688D01*
X277001879Y-57213249D01*
X277097874Y-57228871D01*
X277193743Y-57244553D01*
X277289485Y-57260295D01*
X277385097Y-57276097D01*
X277480581Y-57291958D01*
X277575933Y-57307879D01*
X277671154Y-57323859D01*
X277766242Y-57339897D01*
X277861196Y-57355994D01*
X277956016Y-57372150D01*
X278050699Y-57388363D01*
X278145246Y-57404633D01*
X278239655Y-57420961D01*
X278333924Y-57437347D01*
X278428053Y-57453788D01*
X278475070Y-57462031D01*
X278522041Y-57470287D01*
X278568987Y-57478558D01*
X278615886Y-57486841D01*
X278662761Y-57495140D01*
X278709589Y-57503451D01*
X278756391Y-57511778D01*
X278803146Y-57520117D01*
X278849875Y-57528472D01*
X278896558Y-57536838D01*
X278943214Y-57545220D01*
X278989823Y-57553614D01*
X279036405Y-57562024D01*
X279082941Y-57570445D01*
X279129448Y-57578881D01*
X279175909Y-57587330D01*
X279222342Y-57595793D01*
X279268728Y-57604269D01*
X279315085Y-57612759D01*
X279361395Y-57621261D01*
X279407676Y-57629778D01*
X279453910Y-57638307D01*
X279500115Y-57646850D01*
X279546272Y-57655406D01*
X279592400Y-57663976D01*
X279638480Y-57672557D01*
X279684529Y-57681153D01*
X279730532Y-57689761D01*
X279776503Y-57698383D01*
X279822427Y-57707017D01*
X279868320Y-57715665D01*
X279914164Y-57724324D01*
X279959978Y-57732998D01*
X280005743Y-57741683D01*
X280051476Y-57750383D01*
X280097162Y-57759093D01*
X280142815Y-57767818D01*
X280188419Y-57776554D01*
X280233991Y-57785303D01*
X280279514Y-57794064D01*
X280325005Y-57802839D01*
X280370446Y-57811625D01*
X280415854Y-57820425D01*
X280461213Y-57829236D01*
X280506539Y-57838060D01*
X280551815Y-57846895D01*
X280597057Y-57855744D01*
X280642250Y-57864604D01*
X280687408Y-57873477D01*
X280732517Y-57882361D01*
X280777591Y-57891258D01*
X280822615Y-57900166D01*
X280867604Y-57909088D01*
X280912543Y-57918019D01*
X280957446Y-57926965D01*
X281002299Y-57935920D01*
X281047116Y-57944889D01*
X281091883Y-57953868D01*
X281136614Y-57962860D01*
X281181294Y-57971862D01*
X281225937Y-57980877D01*
X281270530Y-57989903D01*
X281315085Y-57998941D01*
X281359589Y-58007990D01*
X281404056Y-58017051D01*
X281448472Y-58026122D01*
X281492850Y-58035206D01*
X281537177Y-58044299D01*
X281581465Y-58053405D01*
X281625702Y-58062522D01*
X281669900Y-58071650D01*
X281714047Y-58080788D01*
X281758154Y-58089939D01*
X281802210Y-58099099D01*
X281846226Y-58108271D01*
X281890190Y-58117453D01*
X281934114Y-58126647D01*
X281977987Y-58135851D01*
X282021818Y-58145067D01*
X282065598Y-58154292D01*
X282109337Y-58163528D01*
X282153023Y-58172775D01*
X282196668Y-58182032D01*
X282240261Y-58191300D01*
X282283812Y-58200578D01*
X282327310Y-58209866D01*
X282370766Y-58219166D01*
X282414170Y-58228474D01*
X282457530Y-58237794D01*
X282500838Y-58247123D01*
X282544103Y-58256463D01*
X282587315Y-58265812D01*
X282630483Y-58275172D01*
X282673599Y-58284541D01*
X282716669Y-58293921D01*
X282759688Y-58303310D01*
X282802661Y-58312710D01*
X282845581Y-58322118D01*
X282888456Y-58331537D01*
X282931279Y-58340965D01*
X282974055Y-58350403D01*
X283016778Y-58359850D01*
X283059454Y-58369307D01*
X283102078Y-58378772D01*
X283144655Y-58388248D01*
X283187178Y-58397733D01*
X283229655Y-58407227D01*
X283272077Y-58416730D01*
X283314452Y-58426243D01*
X283356774Y-58435764D01*
X283399047Y-58445295D01*
X283441267Y-58454834D01*
X283483438Y-58464383D01*
X283525555Y-58473940D01*
X283567624Y-58483506D01*
X283609638Y-58493081D01*
X283651603Y-58502665D01*
X283693513Y-58512257D01*
X283735374Y-58521858D01*
X283777181Y-58531467D01*
X283818937Y-58541085D01*
X283860639Y-58550711D01*
X283902290Y-58560346D01*
X283943887Y-58569989D01*
X283985432Y-58579640D01*
X284026923Y-58589300D01*
X284068361Y-58598967D01*
X284109746Y-58608643D01*
X284151078Y-58618327D01*
X284192355Y-58628018D01*
X284233580Y-58637718D01*
X284274750Y-58647425D01*
X284315866Y-58657141D01*
X284356928Y-58666863D01*
X284397936Y-58676594D01*
X284438889Y-58686332D01*
X284479788Y-58696078D01*
X284520632Y-58705831D01*
X284561421Y-58715592D01*
X284602155Y-58725360D01*
X284642833Y-58735136D01*
X284683457Y-58744918D01*
X284724025Y-58754708D01*
X284764537Y-58764505D01*
X284804994Y-58774310D01*
X284845395Y-58784121D01*
X284885739Y-58793939D01*
X284926028Y-58803764D01*
X284966260Y-58813596D01*
X285006437Y-58823435D01*
X285046556Y-58833280D01*
X285086619Y-58843132D01*
X285126624Y-58852991D01*
X285166573Y-58862856D01*
X285206464Y-58872728D01*
X285246300Y-58882606D01*
X285286076Y-58892490D01*
X285325796Y-58902381D01*
X285365457Y-58912278D01*
X285405062Y-58922181D01*
X285444607Y-58932090D01*
X285484096Y-58942006D01*
X285523524Y-58951927D01*
X285562897Y-58961854D01*
X285602208Y-58971787D01*
X285641464Y-58981726D01*
X285680658Y-58991671D01*
X285719795Y-59001621D01*
X285758872Y-59011577D01*
X285797891Y-59021539D01*
X285836849Y-59031505D01*
X285875749Y-59041478D01*
X285914588Y-59051456D01*
X285953369Y-59061439D01*
X285992088Y-59071427D01*
X286030750Y-59081421D01*
X286069349Y-59091419D01*
X286107890Y-59101423D01*
X286146368Y-59111431D01*
X286184789Y-59121445D01*
X286223145Y-59131463D01*
X286261444Y-59141486D01*
X286299679Y-59151514D01*
X286337857Y-59161547D01*
X286375969Y-59171583D01*
X286414024Y-59181625D01*
X286452014Y-59191671D01*
X286489946Y-59201722D01*
X286527812Y-59211776D01*
X286565621Y-59221836D01*
X286603363Y-59231898D01*
X286641048Y-59241966D01*
X286678666Y-59252037D01*
X286716226Y-59262113D01*
X286753719Y-59272192D01*
X286791154Y-59282276D01*
X286828522Y-59292362D01*
X286865831Y-59302454D01*
X286903073Y-59312547D01*
X286940257Y-59322646D01*
X286977372Y-59332747D01*
X287014429Y-59342853D01*
X287051417Y-59352961D01*
X287088348Y-59363073D01*
X287125209Y-59373187D01*
X287162011Y-59383307D01*
X287198744Y-59393427D01*
X287235419Y-59403553D01*
X287272023Y-59413679D01*
X287308570Y-59423811D01*
X287345045Y-59433943D01*
X287381463Y-59444080D01*
X287417809Y-59454218D01*
X287454097Y-59464361D01*
X287490313Y-59474504D01*
X287526471Y-59484651D01*
X287562557Y-59494800D01*
X287598584Y-59504952D01*
X287634539Y-59515105D01*
X287670436Y-59525262D01*
X287706260Y-59535420D01*
X287742025Y-59545581D01*
X287777717Y-59555743D01*
X287813351Y-59565908D01*
X287848911Y-59576074D01*
X287884412Y-59586243D01*
X287919839Y-59596412D01*
X287955208Y-59606585D01*
X287990502Y-59616757D01*
X288025737Y-59626934D01*
X288060898Y-59637109D01*
X288095999Y-59647288D01*
X288131026Y-59657466D01*
X288165993Y-59667648D01*
X288200885Y-59677829D01*
X288235718Y-59688014D01*
X288270476Y-59698197D01*
X288305174Y-59708383D01*
X288339795Y-59718568D01*
X288374358Y-59728756D01*
X288408844Y-59738943D01*
X288443271Y-59749133D01*
X288477621Y-59759321D01*
X288511912Y-59769513D01*
X288546125Y-59779702D01*
X288580279Y-59789894D01*
X288614355Y-59800084D01*
X288648372Y-59810278D01*
X288682311Y-59820468D01*
X288716190Y-59830662D01*
X288749991Y-59840853D01*
X288783733Y-59851047D01*
X288817396Y-59861238D01*
X288850999Y-59871432D01*
X288884523Y-59881623D01*
X288917988Y-59891817D01*
X288951373Y-59902007D01*
X288984698Y-59912200D01*
X289017944Y-59922390D01*
X289051130Y-59932582D01*
X289084236Y-59942770D01*
X289117282Y-59952961D01*
X289150248Y-59963148D01*
X289183154Y-59973338D01*
X289215979Y-59983523D01*
X289248744Y-59993711D01*
X289281428Y-60003895D01*
X289314053Y-60014081D01*
X289346596Y-60024262D01*
X289379079Y-60034446D01*
X289411480Y-60044625D01*
X289443822Y-60054806D01*
X289476081Y-60064982D01*
X289508281Y-60075160D01*
X289540398Y-60085333D01*
X289572455Y-60095509D01*
X289604429Y-60105678D01*
X289636344Y-60115850D01*
X289668175Y-60126017D01*
X289699947Y-60136185D01*
X289731635Y-60146347D01*
X289763263Y-60156511D01*
X289794808Y-60166670D01*
X289826292Y-60176830D01*
X289857693Y-60186984D01*
X289889033Y-60197139D01*
X289920289Y-60207289D01*
X289951486Y-60217439D01*
X289989998Y-60230000D01*
D10*
X290593808Y-122063307D02*
G75*
G02*
X289593809Y-123063308I-1000008J7D01*
G01*
X245016954Y-138796631D02*
G75*
G02*
X244282616Y-139885316I-993354J-121969D01*
G01*
X50814508Y-71159600D02*
G75*
G02*
X50993839Y-70559333I1094292J0D01*
G01*
X181003525Y-154680930D02*
G75*
G02*
X180615221Y-153853577I706175J836230D01*
G01*
D11*
X69035211Y-101748242D02*
X69035215Y-95748244D01*
X69035209Y-73748246D02*
X69035211Y-67748247D01*
X291481641Y-87748244D02*
X291481642Y-81748247D01*
D10*
X69035211Y-121615897D02*
G75*
G02*
X69835201Y-121612838I399989J3097D01*
G01*
D11*
X291481647Y-101748245D02*
X291481646Y-95748247D01*
X69089999Y-114840000D02*
X69090000Y-108840000D01*
X179780000Y-87390000D02*
G75*
G02*
X180580000Y-87390000I400000J19D01*
G01*
X180603632Y-107578248D02*
G75*
G02*
X179803592Y-107578249I-400020J59D01*
G01*
X69835210Y-73748243D02*
G75*
G02*
X69035176Y-73748246I-400017J-44D01*
G01*
X69035209Y-87748242D02*
X69035210Y-81748243D01*
D10*
X291600003Y-60750000D02*
X291600000Y-62550901D01*
D12*
X180214491Y-84261199D02*
X180157724Y-84201886D01*
X180100904Y-84142633D01*
X180044030Y-84083439D01*
X179987102Y-84024305D01*
X179930121Y-83965230D01*
X179873085Y-83906215D01*
X179815996Y-83847259D01*
X179758854Y-83788363D01*
X179701657Y-83729526D01*
X179644406Y-83670748D01*
X179587102Y-83612030D01*
X179529744Y-83553371D01*
X179472332Y-83494772D01*
X179414866Y-83436231D01*
X179357346Y-83377750D01*
X179299773Y-83319329D01*
X179242145Y-83260966D01*
X179184464Y-83202663D01*
X179126728Y-83144419D01*
X179068939Y-83086234D01*
X179011096Y-83028108D01*
X178953199Y-82970042D01*
X178895248Y-82912034D01*
X178837243Y-82854086D01*
X178779183Y-82796197D01*
X178721070Y-82738367D01*
X178662903Y-82680596D01*
X178604682Y-82622884D01*
X178546407Y-82565231D01*
X178488078Y-82507637D01*
X178429694Y-82450102D01*
X178371257Y-82392627D01*
X178312765Y-82335210D01*
X178254220Y-82277852D01*
X178195620Y-82220553D01*
X178136966Y-82163313D01*
X178078258Y-82106131D01*
X178019496Y-82049009D01*
X177960679Y-81991946D01*
X177901809Y-81934941D01*
X177842884Y-81877995D01*
X177783905Y-81821108D01*
X177724872Y-81764280D01*
X177665784Y-81707511D01*
X177606642Y-81650800D01*
X177547446Y-81594149D01*
X177488196Y-81537556D01*
X177428892Y-81481021D01*
X177369533Y-81424546D01*
X177310119Y-81368129D01*
X177250652Y-81311771D01*
X177191130Y-81255471D01*
X177131554Y-81199230D01*
X177071923Y-81143048D01*
X177012238Y-81086924D01*
X176952498Y-81030859D01*
X176892705Y-80974853D01*
X176832856Y-80918905D01*
X176772953Y-80863016D01*
X176712996Y-80807185D01*
X176652984Y-80751413D01*
X176592918Y-80695700D01*
X176532797Y-80640045D01*
X176472622Y-80584448D01*
X176412392Y-80528910D01*
X176352108Y-80473430D01*
X176291769Y-80418009D01*
X176231375Y-80362647D01*
X176170927Y-80307342D01*
X176110424Y-80252097D01*
X176049867Y-80196909D01*
X175989255Y-80141780D01*
X175928588Y-80086710D01*
X175867866Y-80031697D01*
X175807090Y-79976743D01*
X175746259Y-79921848D01*
X175685374Y-79867011D01*
X175624434Y-79812232D01*
X175563438Y-79757511D01*
X175502389Y-79702849D01*
X175441284Y-79648245D01*
X175380125Y-79593700D01*
X175318910Y-79539212D01*
X175257641Y-79484783D01*
X175196317Y-79430412D01*
X175134939Y-79376100D01*
X175073505Y-79321845D01*
X175012016Y-79267649D01*
X174950473Y-79213511D01*
X174888874Y-79159431D01*
X174827221Y-79105410D01*
X174765513Y-79051446D01*
X174703749Y-78997541D01*
X174641931Y-78943694D01*
X174580058Y-78889905D01*
X174518129Y-78836174D01*
X174456146Y-78782501D01*
X174394107Y-78728887D01*
X174332014Y-78675330D01*
X174269865Y-78621832D01*
X174207662Y-78568392D01*
X174145403Y-78515009D01*
X174083089Y-78461685D01*
X174020720Y-78408419D01*
X173958295Y-78355211D01*
X173895816Y-78302061D01*
X173833281Y-78248969D01*
X173770691Y-78195935D01*
X173708046Y-78142959D01*
X173645345Y-78090041D01*
X173582589Y-78037181D01*
X173519778Y-77984379D01*
X173456912Y-77931635D01*
X173393990Y-77878949D01*
X173331013Y-77826321D01*
X173267981Y-77773751D01*
X173204893Y-77721239D01*
X173141750Y-77668785D01*
X173078551Y-77616389D01*
X173015297Y-77564050D01*
X172951988Y-77511770D01*
X172888623Y-77459547D01*
X172825202Y-77407383D01*
X172761726Y-77355276D01*
X172698195Y-77303227D01*
X172634608Y-77251237D01*
X172570965Y-77199304D01*
X172507267Y-77147428D01*
X172443513Y-77095611D01*
X172379704Y-77043852D01*
X172315839Y-76992150D01*
X172251918Y-76940507D01*
X172187942Y-76888921D01*
X172123910Y-76837393D01*
X172059823Y-76785923D01*
X171995679Y-76734510D01*
X171931480Y-76683156D01*
X171867225Y-76631859D01*
X171802915Y-76580620D01*
X171738548Y-76529439D01*
X171674126Y-76478316D01*
X171609648Y-76427250D01*
X171545114Y-76376243D01*
X171480524Y-76325293D01*
X171415879Y-76274401D01*
X171351177Y-76223566D01*
X171286420Y-76172790D01*
X171221607Y-76122071D01*
X171156737Y-76071410D01*
X171091812Y-76020807D01*
X171026831Y-75970261D01*
X170961793Y-75919774D01*
X170896700Y-75869344D01*
X170831551Y-75818971D01*
X170766345Y-75768657D01*
X170701084Y-75718400D01*
X170635766Y-75668201D01*
X170570393Y-75618060D01*
X170504963Y-75567977D01*
X170439477Y-75517951D01*
X170373935Y-75467983D01*
X170308336Y-75418072D01*
X170242682Y-75368220D01*
X170176971Y-75318425D01*
X170111204Y-75268688D01*
X170045381Y-75219008D01*
X169979501Y-75169387D01*
X169913565Y-75119823D01*
X169847573Y-75070316D01*
X169781525Y-75020868D01*
X169715420Y-74971477D01*
X169649258Y-74922144D01*
X169583041Y-74872868D01*
X169516767Y-74823651D01*
X169450436Y-74774491D01*
X169384049Y-74725388D01*
X169317606Y-74676344D01*
X169251106Y-74627357D01*
X169184549Y-74578428D01*
X169117936Y-74529556D01*
X169051267Y-74480742D01*
X168984541Y-74431986D01*
X168917758Y-74383288D01*
X168850919Y-74334647D01*
X168784023Y-74286064D01*
X168717070Y-74237539D01*
X168650061Y-74189071D01*
X168582995Y-74140661D01*
X168515872Y-74092309D01*
X168448693Y-74044015D01*
X168381457Y-73995778D01*
X168314164Y-73947599D01*
X168246815Y-73899478D01*
X168179408Y-73851414D01*
X168111945Y-73803408D01*
X168044425Y-73755460D01*
X167976848Y-73707569D01*
X167909214Y-73659737D01*
X167841523Y-73611961D01*
X167773776Y-73564244D01*
X167705971Y-73516584D01*
X167638110Y-73468983D01*
X167570191Y-73421438D01*
X167502216Y-73373952D01*
X167434183Y-73326523D01*
X167366094Y-73279152D01*
X167297947Y-73231839D01*
X167229743Y-73184583D01*
X167161483Y-73137386D01*
X167093165Y-73090246D01*
X167024790Y-73043163D01*
X166956358Y-72996139D01*
X166887869Y-72949172D01*
X166819322Y-72902263D01*
X166750718Y-72855412D01*
X166682057Y-72808618D01*
X166613339Y-72761882D01*
X166544564Y-72715205D01*
X166475731Y-72668584D01*
X166406841Y-72622022D01*
X166337894Y-72575517D01*
X166268889Y-72529071D01*
X166199827Y-72482681D01*
X166130708Y-72436350D01*
X166061531Y-72390077D01*
X165992297Y-72343861D01*
X165923005Y-72297703D01*
X165853656Y-72251603D01*
X165784250Y-72205561D01*
X165714785Y-72159577D01*
X165645264Y-72113650D01*
X165575685Y-72067782D01*
X165506048Y-72021971D01*
X165436354Y-71976218D01*
X165366602Y-71930523D01*
X165296792Y-71884886D01*
X165226925Y-71839306D01*
X165157000Y-71793785D01*
X165087018Y-71748321D01*
X165016978Y-71702916D01*
X164946880Y-71657568D01*
X164876724Y-71612278D01*
X164806511Y-71567046D01*
X164736240Y-71521872D01*
X164665911Y-71476756D01*
X164595524Y-71431697D01*
X164525080Y-71386697D01*
X164454577Y-71341755D01*
X164384017Y-71296870D01*
X164313399Y-71252044D01*
X164242723Y-71207276D01*
X164171989Y-71162565D01*
X164101197Y-71117913D01*
X164030347Y-71073318D01*
X163959439Y-71028782D01*
X163888474Y-70984303D01*
X163817450Y-70939883D01*
X163746368Y-70895520D01*
X163675228Y-70851216D01*
X163604030Y-70806969D01*
X163532773Y-70762781D01*
X163461459Y-70718651D01*
X163390087Y-70674579D01*
X163318656Y-70630565D01*
X163247167Y-70586609D01*
X163175620Y-70542711D01*
X163104015Y-70498871D01*
X163032352Y-70455089D01*
X162960630Y-70411366D01*
X162888850Y-70367700D01*
X162817012Y-70324093D01*
X162745116Y-70280544D01*
X162673161Y-70237053D01*
X162601148Y-70193620D01*
X162529076Y-70150246D01*
X162456946Y-70106930D01*
X162384758Y-70063671D01*
X162312511Y-70020472D01*
X162240206Y-69977330D01*
X162167842Y-69934247D01*
X162095420Y-69891221D01*
X162022939Y-69848254D01*
X161950400Y-69805346D01*
X161877802Y-69762496D01*
X161805146Y-69719704D01*
X161732431Y-69676970D01*
X161659658Y-69634295D01*
X161586826Y-69591678D01*
X161513935Y-69549119D01*
X161440986Y-69506619D01*
X161367978Y-69464177D01*
X161294911Y-69421793D01*
X161221786Y-69379468D01*
X161148602Y-69337201D01*
X161075359Y-69294993D01*
X161002057Y-69252843D01*
X160928697Y-69210752D01*
X160855278Y-69168719D01*
X160781800Y-69126744D01*
X160708263Y-69084829D01*
X160634667Y-69042971D01*
X160561013Y-69001172D01*
X160487299Y-68959432D01*
X160413527Y-68917750D01*
X160339696Y-68876127D01*
X160265806Y-68834562D01*
X160191856Y-68793056D01*
X160117848Y-68751609D01*
X160043781Y-68710220D01*
X159969655Y-68668890D01*
X159895470Y-68627618D01*
X159821226Y-68586405D01*
X159746922Y-68545251D01*
X159672560Y-68504155D01*
X159598139Y-68463119D01*
X159523658Y-68422141D01*
X159449118Y-68381221D01*
X159374520Y-68340361D01*
X159299861Y-68299559D01*
X159225144Y-68258816D01*
X159150368Y-68218132D01*
X159075532Y-68177506D01*
X159000637Y-68136940D01*
X158925683Y-68096432D01*
X158850670Y-68055983D01*
X158775597Y-68015593D01*
X158700465Y-67975262D01*
X158625274Y-67934990D01*
X158550023Y-67894777D01*
X158474713Y-67854623D01*
X158399343Y-67814528D01*
X158323915Y-67774491D01*
X158248426Y-67734514D01*
X158172879Y-67694596D01*
X158097272Y-67654737D01*
X158021605Y-67614937D01*
X157945879Y-67575196D01*
X157870094Y-67535514D01*
X157794248Y-67495891D01*
X157718344Y-67456327D01*
X157642380Y-67416823D01*
X157566356Y-67377377D01*
X157490273Y-67337991D01*
X157414130Y-67298664D01*
X157337928Y-67259397D01*
X157261666Y-67220188D01*
X157185344Y-67181039D01*
X157108962Y-67141949D01*
X157032521Y-67102918D01*
X156956021Y-67063947D01*
X156879460Y-67025035D01*
X156802840Y-66986182D01*
X156726160Y-66947389D01*
X156649421Y-66908655D01*
X156572621Y-66869981D01*
X156495762Y-66831366D01*
X156418843Y-66792810D01*
X156341864Y-66754314D01*
X156264826Y-66715877D01*
X156187727Y-66677500D01*
X156110569Y-66639183D01*
X156033351Y-66600925D01*
X155956073Y-66562727D01*
X155878735Y-66524588D01*
X155801337Y-66486509D01*
X155723879Y-66448489D01*
X155646362Y-66410529D01*
X155568784Y-66372629D01*
X155491146Y-66334789D01*
X155413449Y-66297008D01*
X155335691Y-66259287D01*
X155257874Y-66221626D01*
X155179996Y-66184024D01*
X155102058Y-66146483D01*
X155024060Y-66109001D01*
X154946003Y-66071579D01*
X154867885Y-66034217D01*
X154789707Y-65996915D01*
X154711469Y-65959673D01*
X154633170Y-65922491D01*
X154554812Y-65885369D01*
X154476393Y-65848306D01*
X154397915Y-65811304D01*
X154319376Y-65774362D01*
X154240777Y-65737480D01*
X154162118Y-65700658D01*
X154083398Y-65663896D01*
X154004618Y-65627194D01*
X153925778Y-65590553D01*
X153846878Y-65553971D01*
X153767918Y-65517450D01*
X153688897Y-65480989D01*
X153609816Y-65444588D01*
X153530675Y-65408248D01*
X153451473Y-65371968D01*
X153372211Y-65335748D01*
X153292889Y-65299589D01*
X153213506Y-65263490D01*
X153134063Y-65227451D01*
X153054560Y-65191473D01*
X152974996Y-65155555D01*
X152895372Y-65119698D01*
X152815687Y-65083901D01*
X152735942Y-65048165D01*
X152656137Y-65012489D01*
X152576271Y-64976874D01*
X152496345Y-64941319D01*
X152416358Y-64905825D01*
X152336311Y-64870392D01*
X152256203Y-64835020D01*
X152176035Y-64799708D01*
X152095806Y-64764457D01*
X152015517Y-64729266D01*
X151935167Y-64694137D01*
X151854757Y-64659068D01*
X151774286Y-64624060D01*
X151693755Y-64589113D01*
X151613163Y-64554227D01*
X151532511Y-64519402D01*
X151451797Y-64484638D01*
X151371024Y-64449935D01*
X151290190Y-64415292D01*
X151209295Y-64380711D01*
X151128339Y-64346191D01*
X151047323Y-64311732D01*
X150966247Y-64277334D01*
X150885109Y-64242997D01*
X150803911Y-64208722D01*
X150722653Y-64174507D01*
X150641333Y-64140354D01*
X150559953Y-64106262D01*
X150478513Y-64072231D01*
X150397011Y-64038262D01*
X150315449Y-64004354D01*
X150233826Y-63970507D01*
X150152143Y-63936722D01*
X150070399Y-63902998D01*
X149988594Y-63869336D01*
X149906728Y-63835735D01*
X149824802Y-63802196D01*
X149742815Y-63768718D01*
X149660767Y-63735302D01*
X149578659Y-63701947D01*
X149496489Y-63668654D01*
X149414259Y-63635423D01*
X149331968Y-63602254D01*
X149249616Y-63569146D01*
X149167204Y-63536100D01*
X149084731Y-63503115D01*
X149002197Y-63470193D01*
X148919602Y-63437332D01*
X148836946Y-63404533D01*
X148754230Y-63371796D01*
X148671453Y-63339121D01*
X148588615Y-63306508D01*
X148505716Y-63273957D01*
X148422756Y-63241468D01*
X148339735Y-63209042D01*
X148256654Y-63176677D01*
X148173512Y-63144374D01*
X148090309Y-63112134D01*
X148007045Y-63079955D01*
X147923720Y-63047839D01*
X147840334Y-63015785D01*
X147756888Y-62983794D01*
X147673381Y-62951865D01*
X147589813Y-62919998D01*
X147506184Y-62888193D01*
X147422494Y-62856451D01*
X147338743Y-62824771D01*
X147254931Y-62793154D01*
X147171059Y-62761600D01*
X147087126Y-62730107D01*
X147003131Y-62698678D01*
X146919076Y-62667311D01*
X146834960Y-62636007D01*
X146750783Y-62604765D01*
X146666546Y-62573586D01*
X146582247Y-62542470D01*
X146497888Y-62511417D01*
X146413467Y-62480426D01*
X146328986Y-62449498D01*
X146244444Y-62418633D01*
X146159841Y-62387831D01*
X146075178Y-62357092D01*
X145990453Y-62326416D01*
X145905667Y-62295803D01*
X145820821Y-62265253D01*
X145735914Y-62234766D01*
X145650946Y-62204343D01*
X145565917Y-62173982D01*
X145480827Y-62143685D01*
X145395676Y-62113450D01*
X145310464Y-62083279D01*
X145225192Y-62053172D01*
X145139859Y-62023127D01*
X145054465Y-61993146D01*
X144969010Y-61963229D01*
X144883494Y-61933374D01*
X144797917Y-61903584D01*
X144712280Y-61873857D01*
X144626582Y-61844193D01*
X144540822Y-61814593D01*
X144455003Y-61785056D01*
X144369122Y-61755583D01*
X144283180Y-61726174D01*
X144197178Y-61696829D01*
X144111115Y-61667547D01*
X144024991Y-61638329D01*
X143938806Y-61609175D01*
X143852561Y-61580085D01*
X143766254Y-61551058D01*
X143679887Y-61522096D01*
X143593460Y-61493198D01*
X143506971Y-61464363D01*
X143420422Y-61435593D01*
X143333812Y-61406886D01*
X143247141Y-61378244D01*
X143160410Y-61349666D01*
X143073617Y-61321152D01*
X142986764Y-61292703D01*
X142899851Y-61264318D01*
X142812877Y-61235996D01*
X142725842Y-61207740D01*
X142638746Y-61179548D01*
X142551590Y-61151420D01*
X142464373Y-61123356D01*
X142377095Y-61095357D01*
X142289757Y-61067423D01*
X142202358Y-61039553D01*
X142114899Y-61011748D01*
X142027379Y-60984007D01*
X141939798Y-60956331D01*
X141852157Y-60928720D01*
X141764455Y-60901174D01*
X141676693Y-60873692D01*
X141588870Y-60846275D01*
X141500987Y-60818924D01*
X141413043Y-60791637D01*
X141325039Y-60764415D01*
X141236974Y-60737258D01*
X141148849Y-60710166D01*
X141060663Y-60683139D01*
X140972417Y-60656177D01*
X140884110Y-60629280D01*
X140795743Y-60602449D01*
X140707316Y-60575683D01*
X140618828Y-60548982D01*
X140530280Y-60522346D01*
X140441671Y-60495776D01*
X140353003Y-60469271D01*
X140264273Y-60442832D01*
X140175484Y-60416458D01*
X140086634Y-60390150D01*
X139997724Y-60363907D01*
X139908754Y-60337729D01*
X139819724Y-60311618D01*
X139730633Y-60285572D01*
X139641482Y-60259592D01*
X139552271Y-60233677D01*
X139463000Y-60207828D01*
X139373668Y-60182046D01*
X139284277Y-60156329D01*
X139194825Y-60130678D01*
X139105314Y-60105093D01*
X139015742Y-60079574D01*
X138926111Y-60054120D01*
X138836419Y-60028734D01*
X138746667Y-60003413D01*
X138656855Y-59978158D01*
X138566984Y-59952970D01*
X138477052Y-59927848D01*
X138387061Y-59902792D01*
X138297010Y-59877802D01*
X138206899Y-59852879D01*
X138116728Y-59828022D01*
X138026497Y-59803232D01*
X137936206Y-59778508D01*
X137845856Y-59753851D01*
X137755446Y-59729260D01*
X137664976Y-59704736D01*
X137574447Y-59680279D01*
X137483858Y-59655889D01*
X137393209Y-59631565D01*
X137302501Y-59607308D01*
X137211733Y-59583118D01*
X137120905Y-59558994D01*
X137030019Y-59534938D01*
X136939072Y-59510948D01*
X136848066Y-59487026D01*
X136757001Y-59463171D01*
X136665876Y-59439383D01*
X136574692Y-59415662D01*
X136483449Y-59392008D01*
X136392146Y-59368421D01*
X136300784Y-59344902D01*
X136209363Y-59321450D01*
X136117883Y-59298065D01*
X136026343Y-59274748D01*
X135934744Y-59251498D01*
X135843087Y-59228316D01*
X135751370Y-59205201D01*
X135659594Y-59182154D01*
X135567759Y-59159174D01*
X135475865Y-59136262D01*
X135383912Y-59113418D01*
X135291900Y-59090642D01*
X135199829Y-59067933D01*
X135107700Y-59045292D01*
X135015511Y-59022720D01*
X134923264Y-59000215D01*
X134830958Y-58977778D01*
X134738594Y-58955409D01*
X134646171Y-58933108D01*
X134553689Y-58910875D01*
X134461148Y-58888711D01*
X134368549Y-58866614D01*
X134275892Y-58844586D01*
X134183176Y-58822626D01*
X134090402Y-58800735D01*
X133997569Y-58778912D01*
X133904678Y-58757157D01*
X133811729Y-58735471D01*
X133718721Y-58713853D01*
X133625656Y-58692304D01*
X133532532Y-58670824D01*
X133439350Y-58649412D01*
X133346109Y-58628069D01*
X133252811Y-58606795D01*
X133159455Y-58585589D01*
X133066041Y-58564452D01*
X132972569Y-58543385D01*
X132879039Y-58522386D01*
X132785452Y-58501456D01*
X132691806Y-58480595D01*
X132598103Y-58459803D01*
X132504342Y-58439080D01*
X132410524Y-58418427D01*
X132316648Y-58397842D01*
X132222714Y-58377327D01*
X132128723Y-58356881D01*
X132034675Y-58336505D01*
X131940569Y-58316198D01*
X131846406Y-58295960D01*
X131752186Y-58275792D01*
X131657909Y-58255693D01*
X131563574Y-58235664D01*
X131469182Y-58215705D01*
X131374733Y-58195815D01*
X131280227Y-58175995D01*
X131185665Y-58156245D01*
X131091045Y-58136564D01*
X130996369Y-58116954D01*
X130901635Y-58097413D01*
X130806845Y-58077942D01*
X130711999Y-58058541D01*
X130617095Y-58039210D01*
X130522136Y-58019950D01*
X130427119Y-58000759D01*
X130332047Y-57981639D01*
X130236918Y-57962589D01*
X130141732Y-57943609D01*
X130046491Y-57924699D01*
X129951193Y-57905860D01*
X129855839Y-57887091D01*
X129760429Y-57868393D01*
X129664963Y-57849765D01*
X129569441Y-57831208D01*
X129473864Y-57812722D01*
X129378230Y-57794306D01*
X129282541Y-57775960D01*
X129186796Y-57757686D01*
X129090995Y-57739482D01*
X128995139Y-57721349D01*
X128899227Y-57703287D01*
X128803261Y-57685296D01*
X128707238Y-57667376D01*
X128611161Y-57649527D01*
X128515028Y-57631749D01*
X128418840Y-57614042D01*
X128322597Y-57596406D01*
X128226299Y-57578842D01*
X128129946Y-57561349D01*
X128033539Y-57543927D01*
X127937076Y-57526576D01*
X127840559Y-57509297D01*
X127743987Y-57492090D01*
X127647361Y-57474953D01*
X127550681Y-57457889D01*
X127453945Y-57440896D01*
X127357156Y-57423974D01*
X127260312Y-57407125D01*
X127163415Y-57390347D01*
X127066463Y-57373641D01*
X126969457Y-57357006D01*
X126872397Y-57340444D01*
X126775284Y-57323953D01*
X126678116Y-57307535D01*
X126580895Y-57291188D01*
X126483621Y-57274914D01*
X126386293Y-57258712D01*
X126288911Y-57242581D01*
X126191477Y-57226524D01*
X126093988Y-57210538D01*
X125996447Y-57194625D01*
X125898853Y-57178784D01*
X125801206Y-57163015D01*
X125703506Y-57147319D01*
X125605753Y-57131695D01*
X125507947Y-57116144D01*
X125410089Y-57100666D01*
X125312178Y-57085260D01*
X125214215Y-57069927D01*
X125116199Y-57054666D01*
X125018131Y-57039479D01*
X124920011Y-57024364D01*
X124821839Y-57009322D01*
X124723615Y-56994353D01*
X124625339Y-56979457D01*
X124527012Y-56964634D01*
X124428632Y-56949884D01*
X124330201Y-56935207D01*
X124231719Y-56920604D01*
X124133185Y-56906073D01*
X124034600Y-56891616D01*
X123935964Y-56877232D01*
X123837277Y-56862922D01*
X123738538Y-56848685D01*
X123639749Y-56834521D01*
X123540909Y-56820431D01*
X123442019Y-56806415D01*
X123343077Y-56792472D01*
X123244086Y-56778602D01*
X123145044Y-56764807D01*
X123045952Y-56751085D01*
X122946810Y-56737437D01*
X122847617Y-56723862D01*
X122748375Y-56710362D01*
X122649083Y-56696935D01*
X122549742Y-56683583D01*
X122450351Y-56670304D01*
X122350910Y-56657100D01*
X122251420Y-56643969D01*
X122151881Y-56630913D01*
X122052293Y-56617931D01*
X121952655Y-56605023D01*
X121852969Y-56592190D01*
X121753235Y-56579431D01*
X121653451Y-56566746D01*
X121553619Y-56554136D01*
X121453739Y-56541600D01*
X121353810Y-56529139D01*
X121253834Y-56516752D01*
X121153809Y-56504440D01*
X121053736Y-56492202D01*
X120953616Y-56480040D01*
X120853448Y-56467952D01*
X120753233Y-56455939D01*
X120652970Y-56444000D01*
X120552660Y-56432137D01*
X120452303Y-56420348D01*
X120351899Y-56408635D01*
X120251448Y-56396997D01*
X120150950Y-56385433D01*
X120050406Y-56373945D01*
X119949815Y-56362532D01*
X119849178Y-56351194D01*
X119748495Y-56339931D01*
X119647766Y-56328744D01*
X119546991Y-56317632D01*
X119446170Y-56306596D01*
X119345304Y-56295635D01*
X119244392Y-56284749D01*
X119143435Y-56273939D01*
X119042433Y-56263204D01*
X118941385Y-56252545D01*
X118840293Y-56241962D01*
X118739156Y-56231455D01*
X118637975Y-56221023D01*
X118536749Y-56210667D01*
X118435478Y-56200387D01*
X118334164Y-56190183D01*
X118232806Y-56180054D01*
X118131404Y-56170002D01*
X118029958Y-56160026D01*
X117928469Y-56150125D01*
X117826936Y-56140301D01*
X117725360Y-56130553D01*
X117623741Y-56120881D01*
X117522079Y-56111286D01*
X117420375Y-56101766D01*
X117318628Y-56092323D01*
X117216839Y-56082957D01*
X117115007Y-56073667D01*
X117013133Y-56064453D01*
X116911218Y-56055316D01*
X116809260Y-56046255D01*
X116707262Y-56037271D01*
X116605221Y-56028363D01*
X116503140Y-56019532D01*
X116401017Y-56010778D01*
X116298854Y-56002101D01*
X116196650Y-55993500D01*
X116094406Y-55984976D01*
X115992121Y-55976529D01*
X115889796Y-55968159D01*
X115787431Y-55959866D01*
X115685026Y-55951650D01*
X115582582Y-55943511D01*
X115480098Y-55935449D01*
X115377575Y-55927464D01*
X115275013Y-55919556D01*
X115172412Y-55911725D01*
X115069772Y-55903972D01*
X114967094Y-55896296D01*
X114864377Y-55888697D01*
X114761623Y-55881176D01*
X114658830Y-55873732D01*
X114556000Y-55866365D01*
X114453133Y-55859076D01*
X114350228Y-55851864D01*
X114247285Y-55844730D01*
X114144306Y-55837674D01*
X114041290Y-55830695D01*
X113938238Y-55823794D01*
X113835149Y-55816970D01*
X113732025Y-55810225D01*
X113628864Y-55803557D01*
X113525668Y-55796966D01*
X113422436Y-55790454D01*
X113319169Y-55784020D01*
X113215866Y-55777663D01*
X113112529Y-55771384D01*
X113009158Y-55765184D01*
X112905752Y-55759061D01*
X112802311Y-55753017D01*
X112698837Y-55747050D01*
X112595329Y-55741162D01*
X112491787Y-55735352D01*
X112388212Y-55729620D01*
X112284604Y-55723966D01*
X112180963Y-55718391D01*
X112077290Y-55712894D01*
X111973584Y-55707475D01*
X111869846Y-55702135D01*
X111766076Y-55696873D01*
X111662274Y-55691689D01*
X111558441Y-55686584D01*
X111454576Y-55681558D01*
X111350681Y-55676610D01*
X111246754Y-55671740D01*
X111142798Y-55666950D01*
X111038811Y-55662237D01*
X110934793Y-55657604D01*
X110830747Y-55653049D01*
X110726670Y-55648573D01*
X110622564Y-55644176D01*
X110518430Y-55639857D01*
X110414266Y-55635618D01*
X110310074Y-55631457D01*
X110205854Y-55627375D01*
X110101605Y-55623372D01*
X109997329Y-55619448D01*
X109893025Y-55615603D01*
X109788694Y-55611836D01*
X109684337Y-55608149D01*
X109579952Y-55604541D01*
X109475541Y-55601012D01*
X109371104Y-55597562D01*
X109266641Y-55594192D01*
X109162152Y-55590900D01*
X109057638Y-55587688D01*
X108953098Y-55584554D01*
X108848534Y-55581500D01*
X108743946Y-55578526D01*
X108639333Y-55575630D01*
X108534696Y-55572814D01*
X108430036Y-55570077D01*
X108325352Y-55567420D01*
X108220645Y-55564842D01*
X108115915Y-55562343D01*
X108011163Y-55559924D01*
X107906389Y-55557585D01*
X107801592Y-55555324D01*
X107696774Y-55553144D01*
X107591935Y-55551042D01*
X107487074Y-55549021D01*
X107382193Y-55547078D01*
X107277291Y-55545216D01*
X107172370Y-55543433D01*
X107067428Y-55541730D01*
X106962467Y-55540106D01*
X106857487Y-55538562D01*
X106752488Y-55537097D01*
X106647470Y-55535713D01*
X106542434Y-55534408D01*
X106437380Y-55533183D01*
X106332309Y-55532037D01*
X106227220Y-55530971D01*
X106122114Y-55529985D01*
X106016992Y-55529079D01*
X105911853Y-55528253D01*
X105806699Y-55527506D01*
X105701529Y-55526840D01*
X105596343Y-55526253D01*
X105491143Y-55525746D01*
X105385928Y-55525318D01*
X105280698Y-55524971D01*
X105175455Y-55524704D01*
X105070198Y-55524516D01*
X104964928Y-55524409D01*
X104859645Y-55524381D01*
X104754350Y-55524434D01*
X104649042Y-55524566D01*
X104543722Y-55524778D01*
X104438392Y-55525070D01*
X104333049Y-55525442D01*
X104227697Y-55525895D01*
X104122334Y-55526427D01*
X104016961Y-55527039D01*
X103911578Y-55527731D01*
X103806186Y-55528503D01*
X103700785Y-55529355D01*
X103595376Y-55530287D01*
X103489958Y-55531299D01*
X103384533Y-55532392D01*
X103279100Y-55533564D01*
X103173661Y-55534816D01*
X103068215Y-55536148D01*
X102962762Y-55537560D01*
X102857304Y-55539053D01*
X102751841Y-55540625D01*
X102646372Y-55542277D01*
X102540899Y-55544010D01*
X102435422Y-55545822D01*
X102329941Y-55547714D01*
X102224456Y-55549687D01*
X102118969Y-55551739D01*
X102013479Y-55553872D01*
X101907987Y-55556084D01*
X101802493Y-55558376D01*
X101696998Y-55560749D01*
X101591501Y-55563201D01*
X101486005Y-55565733D01*
X101380508Y-55568346D01*
X101275012Y-55571038D01*
X101169517Y-55573810D01*
X101064023Y-55576662D01*
X100958530Y-55579594D01*
X100853040Y-55582606D01*
X100747553Y-55585698D01*
X100642068Y-55588870D01*
X100536587Y-55592121D01*
X100431110Y-55595453D01*
X100325637Y-55598864D01*
X100220169Y-55602355D01*
X100114706Y-55605926D01*
X100009249Y-55609577D01*
X99903799Y-55613307D01*
X99798355Y-55617117D01*
X99692918Y-55621007D01*
X99587489Y-55624977D01*
X99482068Y-55629026D01*
X99376655Y-55633155D01*
X99271252Y-55637364D01*
X99165858Y-55641652D01*
X99060474Y-55646020D01*
X98955101Y-55650467D01*
X98849739Y-55654994D01*
X98744388Y-55659600D01*
X98639050Y-55664286D01*
X98533723Y-55669052D01*
X98428410Y-55673897D01*
X98323111Y-55678821D01*
X98217825Y-55683824D01*
X98112554Y-55688907D01*
X98007298Y-55694069D01*
X97902058Y-55699311D01*
X97796833Y-55704632D01*
X97691626Y-55710031D01*
X97586435Y-55715510D01*
X97481262Y-55721069D01*
X97376108Y-55726706D01*
X97270972Y-55732422D01*
X97165856Y-55738217D01*
X97060759Y-55744092D01*
X96955682Y-55750045D01*
X96850627Y-55756077D01*
X96745593Y-55762188D01*
X96640581Y-55768377D01*
X96535592Y-55774646D01*
X96430626Y-55780993D01*
X96325683Y-55787419D01*
X96220765Y-55793923D01*
X96115872Y-55800506D01*
X96011004Y-55807167D01*
X95906162Y-55813907D01*
X95801347Y-55820725D01*
X95696559Y-55827621D01*
X95591799Y-55834596D01*
X95487067Y-55841649D01*
X95382364Y-55848780D01*
X95277690Y-55855990D01*
X95173047Y-55863277D01*
X95068434Y-55870642D01*
X94963853Y-55878085D01*
X94859304Y-55885607D01*
X94754787Y-55893205D01*
X94650303Y-55900882D01*
X94545854Y-55908636D01*
X94441438Y-55916468D01*
X94337058Y-55924377D01*
X94232713Y-55932364D01*
X94128405Y-55940428D01*
X94024134Y-55948570D01*
X93919900Y-55956789D01*
X93815705Y-55965084D01*
X93711548Y-55973457D01*
X93607431Y-55981907D01*
X93503354Y-55990434D01*
X93399318Y-55999038D01*
X93295323Y-56007719D01*
X93191371Y-56016476D01*
X93087461Y-56025310D01*
X92983595Y-56034220D01*
X92879773Y-56043207D01*
X92775996Y-56052270D01*
X92672265Y-56061409D01*
X92568580Y-56070625D01*
X92464941Y-56079916D01*
X92361351Y-56089284D01*
X92257808Y-56098727D01*
X92154315Y-56108247D01*
X92050871Y-56117841D01*
X91947478Y-56127512D01*
X91844136Y-56137258D01*
X91740846Y-56147079D01*
X91637608Y-56156976D01*
X91534423Y-56166948D01*
X91431293Y-56176995D01*
X91328217Y-56187117D01*
X91225197Y-56197313D01*
X91122233Y-56207585D01*
X91019326Y-56217931D01*
X90916477Y-56228352D01*
X90813686Y-56238847D01*
X90710954Y-56249416D01*
X90608282Y-56260060D01*
X90505671Y-56270777D01*
X90403122Y-56281569D01*
X90300635Y-56292434D01*
X90198210Y-56303373D01*
X90095850Y-56314386D01*
X89993554Y-56325472D01*
X89891323Y-56336631D01*
X89789159Y-56347864D01*
X89687061Y-56359170D01*
X89585032Y-56370548D01*
X89483070Y-56381999D01*
X89381178Y-56393523D01*
X89279356Y-56405120D01*
X89177606Y-56416788D01*
X89075926Y-56428529D01*
X88974320Y-56440343D01*
X88872787Y-56452227D01*
X88771327Y-56464184D01*
X88669944Y-56476213D01*
X88568635Y-56488313D01*
X88467404Y-56500484D01*
X88366250Y-56512726D01*
X88265175Y-56525039D01*
X88164178Y-56537424D01*
X88063262Y-56549879D01*
X87962427Y-56562404D01*
X87861674Y-56575000D01*
X87761003Y-56587666D01*
X87660416Y-56600402D01*
X87559913Y-56613208D01*
X87459495Y-56626084D01*
X87359164Y-56639029D01*
X87258920Y-56652043D01*
X87158763Y-56665127D01*
X87058696Y-56678280D01*
X86958718Y-56691501D01*
X86858830Y-56704792D01*
X86759035Y-56718150D01*
X86659331Y-56731577D01*
X86559721Y-56745072D01*
X86460206Y-56758635D01*
X86360785Y-56772265D01*
X86261460Y-56785963D01*
X86162233Y-56799728D01*
X86063103Y-56813561D01*
X85964072Y-56827460D01*
X85865142Y-56841426D01*
X85766311Y-56855458D01*
X85667583Y-56869557D01*
X85568957Y-56883722D01*
X85470435Y-56897953D01*
X85372017Y-56912249D01*
X85273705Y-56926611D01*
X85175499Y-56941037D01*
X85077400Y-56955529D01*
X84979410Y-56970086D01*
X84881530Y-56984707D01*
X84783759Y-56999393D01*
X84686101Y-57014143D01*
X84588554Y-57028956D01*
X84491121Y-57043833D01*
X84393802Y-57058774D01*
X84296598Y-57073777D01*
X84199510Y-57088844D01*
X84102540Y-57103973D01*
X84005688Y-57119165D01*
X83908956Y-57134419D01*
X83812344Y-57149734D01*
X83715853Y-57165112D01*
X83619484Y-57180551D01*
X83523239Y-57196051D01*
X83427118Y-57211612D01*
X83331123Y-57227233D01*
X83235254Y-57242915D01*
X83139513Y-57258657D01*
X83043900Y-57274459D01*
X82948417Y-57290321D01*
X82853064Y-57306241D01*
X82757843Y-57322221D01*
X82662755Y-57338260D01*
X82567801Y-57354357D01*
X82472981Y-57370512D01*
X82378298Y-57386725D01*
X82283751Y-57402996D01*
X82189343Y-57419324D01*
X82095074Y-57435709D01*
X82000944Y-57452151D01*
X81953927Y-57460394D01*
X81906957Y-57468649D01*
X81860011Y-57476920D01*
X81813111Y-57485204D01*
X81766237Y-57493503D01*
X81719409Y-57501814D01*
X81672607Y-57510141D01*
X81625851Y-57518480D01*
X81579122Y-57526834D01*
X81532439Y-57535201D01*
X81485783Y-57543583D01*
X81439174Y-57551977D01*
X81392592Y-57560386D01*
X81346057Y-57568807D01*
X81299549Y-57577244D01*
X81253088Y-57585692D01*
X81206655Y-57594156D01*
X81160270Y-57602631D01*
X81113912Y-57611121D01*
X81067602Y-57619623D01*
X81021321Y-57628141D01*
X80975087Y-57636669D01*
X80928882Y-57645213D01*
X80882725Y-57653768D01*
X80836598Y-57662338D01*
X80790518Y-57670920D01*
X80744468Y-57679516D01*
X80698466Y-57688123D01*
X80652494Y-57696746D01*
X80606571Y-57705379D01*
X80560678Y-57714027D01*
X80514833Y-57722687D01*
X80469020Y-57731361D01*
X80423255Y-57740046D01*
X80377521Y-57748745D01*
X80331836Y-57757456D01*
X80286183Y-57766180D01*
X80240579Y-57774916D01*
X80195007Y-57783666D01*
X80149483Y-57792427D01*
X80103993Y-57801202D01*
X80058551Y-57809988D01*
X80013143Y-57818788D01*
X79967784Y-57827598D01*
X79922459Y-57836423D01*
X79877182Y-57845258D01*
X79831940Y-57854107D01*
X79786747Y-57862966D01*
X79741589Y-57871840D01*
X79696480Y-57880724D01*
X79651407Y-57889621D01*
X79606382Y-57898529D01*
X79561394Y-57907450D01*
X79516455Y-57916382D01*
X79471551Y-57925327D01*
X79426698Y-57934283D01*
X79381881Y-57943251D01*
X79337114Y-57952230D01*
X79292384Y-57961222D01*
X79247704Y-57970225D01*
X79203061Y-57979240D01*
X79158468Y-57988265D01*
X79113913Y-57997304D01*
X79069408Y-58006352D01*
X79024942Y-58015413D01*
X78980525Y-58024484D01*
X78936148Y-58033568D01*
X78891821Y-58042662D01*
X78847533Y-58051768D01*
X78803296Y-58060884D01*
X78759098Y-58070013D01*
X78714951Y-58079151D01*
X78670844Y-58088301D01*
X78626788Y-58097462D01*
X78582772Y-58106634D01*
X78538807Y-58115816D01*
X78494883Y-58125010D01*
X78451011Y-58134214D01*
X78407179Y-58143429D01*
X78363399Y-58152654D01*
X78319661Y-58161891D01*
X78275974Y-58171137D01*
X78232330Y-58180395D01*
X78188737Y-58189662D01*
X78145186Y-58198941D01*
X78101687Y-58208229D01*
X78058232Y-58217528D01*
X78014828Y-58226837D01*
X77971467Y-58236157D01*
X77928159Y-58245486D01*
X77884895Y-58254826D01*
X77841683Y-58264175D01*
X77798515Y-58273535D01*
X77755399Y-58282904D01*
X77712328Y-58292284D01*
X77669310Y-58301673D01*
X77626337Y-58311072D01*
X77583416Y-58320481D01*
X77540541Y-58329899D01*
X77497719Y-58339327D01*
X77454943Y-58348765D01*
X77412220Y-58358212D01*
X77369543Y-58367669D01*
X77326920Y-58377135D01*
X77284343Y-58386611D01*
X77241819Y-58396095D01*
X77199343Y-58405590D01*
X77156920Y-58415093D01*
X77114545Y-58424605D01*
X77072224Y-58434127D01*
X77029950Y-58443657D01*
X76987731Y-58453197D01*
X76945560Y-58462745D01*
X76903442Y-58472302D01*
X76861374Y-58481869D01*
X76819360Y-58491444D01*
X76777395Y-58501027D01*
X76735484Y-58510619D01*
X76693624Y-58520220D01*
X76651817Y-58529830D01*
X76610061Y-58539448D01*
X76568359Y-58549074D01*
X76526708Y-58558709D01*
X76485111Y-58568352D01*
X76443566Y-58578003D01*
X76402075Y-58587662D01*
X76360636Y-58597330D01*
X76319252Y-58607005D01*
X76277920Y-58616689D01*
X76236643Y-58626381D01*
X76195418Y-58636080D01*
X76154248Y-58645788D01*
X76113132Y-58655503D01*
X76072070Y-58665226D01*
X76031062Y-58674957D01*
X75990109Y-58684695D01*
X75949210Y-58694441D01*
X75908366Y-58704194D01*
X75867577Y-58713955D01*
X75826843Y-58723723D01*
X75786165Y-58733498D01*
X75745541Y-58743281D01*
X75704973Y-58753071D01*
X75664461Y-58762868D01*
X75624004Y-58772672D01*
X75583603Y-58782483D01*
X75543258Y-58792301D01*
X75502969Y-58802127D01*
X75462737Y-58811958D01*
X75422561Y-58821797D01*
X75382442Y-58831642D01*
X75342379Y-58841495D01*
X75302374Y-58851353D01*
X75262424Y-58861218D01*
X75222533Y-58871090D01*
X75182698Y-58880968D01*
X75142922Y-58890853D01*
X75103202Y-58900744D01*
X75063541Y-58910640D01*
X75023936Y-58920544D01*
X74984391Y-58930453D01*
X74944902Y-58940368D01*
X74905474Y-58950289D01*
X74866101Y-58960217D01*
X74826790Y-58970150D01*
X74787534Y-58980089D01*
X74748340Y-58990033D01*
X74709203Y-58999984D01*
X74670126Y-59009940D01*
X74631107Y-59019901D01*
X74592149Y-59029868D01*
X74553249Y-59039841D01*
X74514410Y-59049818D01*
X74475629Y-59059802D01*
X74436910Y-59069789D01*
X74398248Y-59079783D01*
X74359649Y-59089781D01*
X74321108Y-59099785D01*
X74282630Y-59109793D01*
X74244209Y-59119807D01*
X74205853Y-59129825D01*
X74167554Y-59139849D01*
X74129319Y-59149876D01*
X74091141Y-59159909D01*
X74053029Y-59169946D01*
X74014974Y-59179988D01*
X73976984Y-59190033D01*
X73939052Y-59200084D01*
X73901186Y-59210138D01*
X73863377Y-59220198D01*
X73825635Y-59230261D01*
X73787950Y-59240329D01*
X73750332Y-59250400D01*
X73712772Y-59260476D01*
X73675279Y-59270554D01*
X73637844Y-59280638D01*
X73600476Y-59290725D01*
X73563167Y-59300816D01*
X73525925Y-59310910D01*
X73488741Y-59321009D01*
X73451626Y-59331109D01*
X73414569Y-59341215D01*
X73377581Y-59351323D01*
X73340650Y-59361436D01*
X73303790Y-59371550D01*
X73266987Y-59381669D01*
X73230254Y-59391790D01*
X73193579Y-59401915D01*
X73156975Y-59412042D01*
X73120429Y-59422173D01*
X73083953Y-59432306D01*
X73047536Y-59442443D01*
X73011189Y-59452581D01*
X72974902Y-59462723D01*
X72938685Y-59472866D01*
X72902527Y-59483014D01*
X72866441Y-59493162D01*
X72830414Y-59503315D01*
X72794459Y-59513468D01*
X72758562Y-59523625D01*
X72722738Y-59533782D01*
X72686973Y-59543944D01*
X72651281Y-59554105D01*
X72615647Y-59564271D01*
X72580087Y-59574436D01*
X72544586Y-59584606D01*
X72509159Y-59594775D01*
X72473791Y-59604948D01*
X72438496Y-59615120D01*
X72403261Y-59625296D01*
X72368101Y-59635472D01*
X72332999Y-59645651D01*
X72297973Y-59655829D01*
X72263005Y-59666011D01*
X72228113Y-59676192D01*
X72193280Y-59686376D01*
X72158523Y-59696559D01*
X72123825Y-59706746D01*
X72089203Y-59716931D01*
X72054640Y-59727119D01*
X72020154Y-59737306D01*
X71985727Y-59747496D01*
X71951377Y-59757684D01*
X71917087Y-59767875D01*
X71882873Y-59778064D01*
X71848719Y-59788257D01*
X71814643Y-59798447D01*
X71780626Y-59808640D01*
X71746687Y-59818831D01*
X71712808Y-59829025D01*
X71679007Y-59839216D01*
X71645266Y-59849410D01*
X71611603Y-59859601D01*
X71578000Y-59869795D01*
X71544475Y-59879986D01*
X71511011Y-59890179D01*
X71477626Y-59900369D01*
X71444300Y-59910563D01*
X71411055Y-59920752D01*
X71377869Y-59930944D01*
X71344763Y-59941133D01*
X71311716Y-59951324D01*
X71278751Y-59961511D01*
X71245845Y-59971700D01*
X71213020Y-59981886D01*
X71180254Y-59992074D01*
X71147570Y-60002257D01*
X71114945Y-60012443D01*
X71082403Y-60022624D01*
X71049919Y-60032808D01*
X71017518Y-60042987D01*
X70985176Y-60053168D01*
X70952917Y-60063344D01*
X70920718Y-60073523D01*
X70888601Y-60083696D01*
X70856543Y-60093871D01*
X70824569Y-60104041D01*
X70792654Y-60114213D01*
X70760823Y-60124379D01*
X70729052Y-60134547D01*
X70697364Y-60144710D01*
X70665735Y-60154874D01*
X70634191Y-60165032D01*
X70602706Y-60175192D01*
X70571306Y-60185346D01*
X70539965Y-60195502D01*
X70508709Y-60205651D01*
X70477513Y-60215802D01*
X70439002Y-60228362D01*
D10*
X179815223Y-152894799D02*
G75*
G02*
X180615177Y-152894827I399977J-1D01*
G01*
D11*
X180603634Y-135578246D02*
G75*
G02*
X179803680Y-135578246I-399977J-35D01*
G01*
D10*
X309435193Y-70560963D02*
G75*
G02*
X309614495Y-71162838I-914986J-600225D01*
G01*
X69824491Y-61148308D02*
X69814369Y-62561015D01*
D11*
X291536433Y-114840002D02*
X291536432Y-108840005D01*
X290681642Y-67748250D02*
G75*
G02*
X291481624Y-67748250I399991J-11D01*
G01*
X291481644Y-73748248D02*
G75*
G02*
X290681624Y-73748249I-400010J44D01*
G01*
D10*
X70835211Y-123063248D02*
G75*
G02*
X69835142Y-122063246I-40J1000029D01*
G01*
D11*
X69890000Y-114839999D02*
G75*
G02*
X69090062Y-114840000I-399969J-49D01*
G01*
X69835210Y-87748243D02*
X69835210Y-81748243D01*
D10*
X69035208Y-123062837D02*
X69035211Y-121615897D01*
X289990000Y-60230000D02*
G75*
G02*
X290604510Y-61150242I-365700J-909500D01*
G01*
X290593811Y-121609573D02*
G75*
G02*
X291393802Y-121612838I399989J-3227D01*
G01*
X116146412Y-139885279D02*
G75*
G02*
X160765525Y-166695142I-12135874J-70731765D01*
G01*
X309614509Y-122063300D02*
G75*
G02*
X308641799Y-123062839I-999909J0D01*
G01*
D12*
X244670665Y-132447965D02*
X244677915Y-132440523D01*
X244685371Y-132432984D01*
X244693036Y-132425349D01*
X244700913Y-132417615D01*
X244709006Y-132409783D01*
X244717316Y-132401851D01*
X244725849Y-132393818D01*
X244734606Y-132385684D01*
X244743592Y-132377447D01*
X244752809Y-132369108D01*
X244762260Y-132360664D01*
X244771950Y-132352115D01*
X244781880Y-132343460D01*
X244792055Y-132334699D01*
X244802478Y-132325830D01*
X244813152Y-132316853D01*
X244824080Y-132307767D01*
X244835266Y-132298572D01*
X244846713Y-132289265D01*
X244858424Y-132279847D01*
X244870402Y-132270318D01*
X244882652Y-132260675D01*
X244895175Y-132250918D01*
X244907976Y-132241047D01*
X244921057Y-132231062D01*
X244934422Y-132220960D01*
X244948075Y-132210742D01*
X244962018Y-132200406D01*
X244976254Y-132189953D01*
X244990788Y-132179382D01*
X245005621Y-132168691D01*
X245020759Y-132157880D01*
X245036202Y-132146949D01*
X245051956Y-132135897D01*
X245068023Y-132124724D01*
X245084405Y-132113428D01*
X245101107Y-132102010D01*
X245118132Y-132090468D01*
X245135482Y-132078803D01*
X245153161Y-132067013D01*
X245171171Y-132055099D01*
X245189516Y-132043059D01*
X245208199Y-132030893D01*
X245227223Y-132018601D01*
X245246591Y-132006183D01*
X245266305Y-131993638D01*
X245286370Y-131980965D01*
X245306786Y-131968164D01*
X245327559Y-131955235D01*
X245348689Y-131942178D01*
X245370181Y-131928992D01*
X245392036Y-131915676D01*
X245414258Y-131902231D01*
X245436850Y-131888657D01*
X245459814Y-131874952D01*
X245483152Y-131861118D01*
X245506868Y-131847153D01*
X245530963Y-131833057D01*
X245555441Y-131818830D01*
X245580304Y-131804473D01*
X245605554Y-131789985D01*
X245631194Y-131775365D01*
X245657225Y-131760614D01*
X245683652Y-131745732D01*
X245710475Y-131730718D01*
X245737697Y-131715573D01*
X245765320Y-131700297D01*
X245793347Y-131684889D01*
X245821779Y-131669350D01*
X245850618Y-131653680D01*
X245879867Y-131637879D01*
X245909527Y-131621946D01*
X245939600Y-131605883D01*
X245970089Y-131589688D01*
X246000994Y-131573363D01*
X246032319Y-131556908D01*
X246064063Y-131540322D01*
X246096230Y-131523606D01*
X246128820Y-131506761D01*
X246161835Y-131489786D01*
X246195277Y-131472682D01*
X246229147Y-131455449D01*
X246263447Y-131438088D01*
X246298177Y-131420598D01*
X246333339Y-131402981D01*
X246368935Y-131385236D01*
X246404965Y-131367365D01*
X246441430Y-131349367D01*
X246478332Y-131331243D01*
X246515671Y-131312993D01*
X246553448Y-131294619D01*
X246591665Y-131276120D01*
X246630321Y-131257497D01*
X246669419Y-131238751D01*
X246708957Y-131219882D01*
X246748938Y-131200891D01*
X246789361Y-131181779D01*
X246830228Y-131162546D01*
X246871538Y-131143193D01*
X246913292Y-131123720D01*
X246955490Y-131104129D01*
X246998133Y-131084419D01*
X247041220Y-131064593D01*
X247084752Y-131044650D01*
X247128730Y-131024591D01*
X247173152Y-131004418D01*
X247218019Y-130984131D01*
X247263331Y-130963730D01*
X247309088Y-130943217D01*
X247355290Y-130922593D01*
X247401936Y-130901858D01*
X247449026Y-130881013D01*
X247496560Y-130860060D01*
X247544537Y-130838999D01*
X247592956Y-130817832D01*
X247641818Y-130796558D01*
X247691122Y-130775180D01*
X247740867Y-130753697D01*
X247791052Y-130732112D01*
X247841677Y-130710425D01*
X247892741Y-130688638D01*
X247944243Y-130666750D01*
X247996182Y-130644764D01*
X248048557Y-130622680D01*
X248101368Y-130600500D01*
X248154613Y-130578225D01*
X248208291Y-130555855D01*
X248262401Y-130533392D01*
X248316942Y-130510837D01*
X248371912Y-130488191D01*
X248427311Y-130465455D01*
X248483137Y-130442631D01*
X248539388Y-130419719D01*
X248596064Y-130396721D01*
X248653163Y-130373638D01*
X248710684Y-130350471D01*
X248768624Y-130327221D01*
X248826983Y-130303890D01*
X248885758Y-130280479D01*
X248944949Y-130256988D01*
X249004553Y-130233420D01*
X249064569Y-130209775D01*
X249124995Y-130186055D01*
X249185829Y-130162260D01*
X249247070Y-130138393D01*
X249308715Y-130114454D01*
X249370763Y-130090445D01*
X249433212Y-130066366D01*
X249464592Y-130054300D01*
X249496060Y-130042220D01*
X249527638Y-130030120D01*
X249559306Y-130018007D01*
X249591081Y-130005874D01*
X249622946Y-129993728D01*
X249654918Y-129981563D01*
X249686979Y-129969386D01*
X249719147Y-129957189D01*
X249751403Y-129944981D01*
X249783765Y-129932753D01*
X249816216Y-129920514D01*
X249848772Y-129908256D01*
X249881416Y-129895986D01*
X249914164Y-129883699D01*
X249947001Y-129871400D01*
X249979940Y-129859084D01*
X250012968Y-129846756D01*
X250046098Y-129834411D01*
X250079316Y-129822055D01*
X250112635Y-129809683D01*
X250146042Y-129797299D01*
X250179549Y-129784900D01*
X250213144Y-129772489D01*
X250246838Y-129760063D01*
X250280619Y-129747626D01*
X250314499Y-129735175D01*
X250348467Y-129722712D01*
X250382531Y-129710235D01*
X250416684Y-129697748D01*
X250450932Y-129685247D01*
X250485267Y-129672735D01*
X250519698Y-129660209D01*
X250554216Y-129647674D01*
X250588828Y-129635125D01*
X250623527Y-129622566D01*
X250658319Y-129609995D01*
X250693198Y-129597414D01*
X250728169Y-129584820D01*
X250763227Y-129572217D01*
X250798376Y-129559602D01*
X250833611Y-129546978D01*
X250868937Y-129534342D01*
X250904349Y-129521697D01*
X250939850Y-129509041D01*
X250975437Y-129496376D01*
X251011112Y-129483701D01*
X251046873Y-129471017D01*
X251082721Y-129458322D01*
X251118655Y-129445619D01*
X251154676Y-129432906D01*
X251190781Y-129420185D01*
X251226972Y-129407455D01*
X251263248Y-129394716D01*
X251299608Y-129381968D01*
X251336054Y-129369213D01*
X251372582Y-129356449D01*
X251409195Y-129343676D01*
X251445891Y-129330897D01*
X251482671Y-129318109D01*
X251519532Y-129305314D01*
X251556477Y-129292511D01*
X251593503Y-129279701D01*
X251630613Y-129266883D01*
X251667802Y-129254060D01*
X251705074Y-129241228D01*
X251742425Y-129228391D01*
X251779860Y-129215546D01*
X251817372Y-129202696D01*
X251854967Y-129189839D01*
X251892639Y-129176976D01*
X251930393Y-129164107D01*
X251968223Y-129151232D01*
X252006136Y-129138351D01*
X252044122Y-129125466D01*
X252082192Y-129112574D01*
X252120335Y-129099678D01*
X252158560Y-129086776D01*
X252196857Y-129073870D01*
X252235237Y-129060958D01*
X252273687Y-129048042D01*
X252312220Y-129035121D01*
X252350823Y-129022197D01*
X252389507Y-129009267D01*
X252428261Y-128996335D01*
X252467096Y-128983396D01*
X252505999Y-128970457D01*
X252544983Y-128957511D01*
X252584035Y-128944564D01*
X252623168Y-128931611D01*
X252662366Y-128918658D01*
X252701646Y-128905699D01*
X252740990Y-128892739D01*
X252780415Y-128879774D01*
X252819904Y-128866809D01*
X252859474Y-128853839D01*
X252899106Y-128840869D01*
X252938819Y-128827895D01*
X252978594Y-128814920D01*
X253018448Y-128801941D01*
X253058364Y-128788963D01*
X253098359Y-128775981D01*
X253138414Y-128762999D01*
X253178548Y-128750014D01*
X253218742Y-128737030D01*
X253259015Y-128724041D01*
X253299346Y-128711055D01*
X253339755Y-128698065D01*
X253380222Y-128685077D01*
X253420767Y-128672085D01*
X253461369Y-128659096D01*
X253502048Y-128646103D01*
X253542784Y-128633113D01*
X253583596Y-128620120D01*
X253624464Y-128607130D01*
X253665409Y-128594137D01*
X253706407Y-128581147D01*
X253747483Y-128568155D01*
X253788611Y-128555166D01*
X253829816Y-128542175D01*
X253871073Y-128529188D01*
X253912406Y-128516197D01*
X253953791Y-128503212D01*
X253995251Y-128490224D01*
X254036762Y-128477241D01*
X254078348Y-128464256D01*
X254119984Y-128451276D01*
X254161695Y-128438294D01*
X254203455Y-128425317D01*
X254245289Y-128412338D01*
X254287171Y-128399366D01*
X254329128Y-128386391D01*
X254371132Y-128373422D01*
X254413210Y-128360452D01*
X254455333Y-128347489D01*
X254497531Y-128334523D01*
X254539774Y-128321565D01*
X254582091Y-128308605D01*
X254624451Y-128295653D01*
X254666886Y-128282699D01*
X254709363Y-128269753D01*
X254751914Y-128256805D01*
X254794506Y-128243865D01*
X254837172Y-128230925D01*
X254879879Y-128217992D01*
X254922659Y-128205059D01*
X254965480Y-128192134D01*
X255008373Y-128179208D01*
X255051305Y-128166292D01*
X255094309Y-128153374D01*
X255137353Y-128140466D01*
X255180468Y-128127557D01*
X255223621Y-128114658D01*
X255266845Y-128101758D01*
X255310107Y-128088868D01*
X255353440Y-128075977D01*
X255396809Y-128063097D01*
X255440249Y-128050217D01*
X255483724Y-128037347D01*
X255527270Y-128024477D01*
X255570851Y-128011618D01*
X255614502Y-127998758D01*
X255658187Y-127985910D01*
X255701942Y-127973062D01*
X255745729Y-127960225D01*
X255789587Y-127947389D01*
X255833476Y-127934564D01*
X255877435Y-127921740D01*
X255921426Y-127908927D01*
X255965485Y-127896115D01*
X256009575Y-127883315D01*
X256053734Y-127870516D01*
X256097923Y-127857729D01*
X256142180Y-127844944D01*
X256186466Y-127832170D01*
X256230820Y-127819398D01*
X256275203Y-127806639D01*
X256319653Y-127793881D01*
X256364131Y-127781135D01*
X256408677Y-127768392D01*
X256453249Y-127755661D01*
X256497889Y-127742932D01*
X256542554Y-127730217D01*
X256587287Y-127717503D01*
X256632044Y-127704803D01*
X256676868Y-127692105D01*
X256721717Y-127679421D01*
X256766632Y-127666738D01*
X256811571Y-127654070D01*
X256856576Y-127641404D01*
X256901604Y-127628753D01*
X256946698Y-127616103D01*
X256991814Y-127603469D01*
X257036995Y-127590836D01*
X257082198Y-127578219D01*
X257127467Y-127565604D01*
X257172756Y-127553004D01*
X257218109Y-127540407D01*
X257263483Y-127527825D01*
X257308922Y-127515246D01*
X257354380Y-127502682D01*
X257399902Y-127490122D01*
X257445443Y-127477577D01*
X257491048Y-127465035D01*
X257536671Y-127452509D01*
X257582358Y-127439986D01*
X257628061Y-127427479D01*
X257673829Y-127414976D01*
X257719613Y-127402489D01*
X257765460Y-127390005D01*
X257811323Y-127377538D01*
X257857249Y-127365074D01*
X257903190Y-127352627D01*
X257949193Y-127340184D01*
X257995212Y-127327758D01*
X258041292Y-127315336D01*
X258087387Y-127302930D01*
X258133543Y-127290529D01*
X258179713Y-127278145D01*
X258225944Y-127265765D01*
X258272188Y-127253402D01*
X258318493Y-127241044D01*
X258364811Y-127228703D01*
X258411189Y-127216367D01*
X258457579Y-127204049D01*
X258504029Y-127191735D01*
X258550491Y-127179438D01*
X258597012Y-127167147D01*
X258643544Y-127154874D01*
X258690136Y-127142605D01*
X258736738Y-127130355D01*
X258783399Y-127118110D01*
X258830070Y-127105883D01*
X258876800Y-127093661D01*
X258923538Y-127081457D01*
X258970335Y-127069259D01*
X259017141Y-127057080D01*
X259064005Y-127044906D01*
X259110877Y-127032750D01*
X259157807Y-127020600D01*
X259204743Y-127008470D01*
X259251738Y-126996344D01*
X259298740Y-126984238D01*
X259345799Y-126972138D01*
X259392863Y-126960057D01*
X259439986Y-126947982D01*
X259487113Y-126935926D01*
X259534298Y-126923876D01*
X259581487Y-126911846D01*
X259628733Y-126899821D01*
X259675983Y-126887817D01*
X259723290Y-126875819D01*
X259770601Y-126863840D01*
X259817967Y-126851868D01*
X259865337Y-126839916D01*
X259912763Y-126827970D01*
X259960191Y-126816045D01*
X260007675Y-126804126D01*
X260055160Y-126792227D01*
X260102702Y-126780335D01*
X260150244Y-126768463D01*
X260197842Y-126756598D01*
X260245441Y-126744753D01*
X260293094Y-126732916D01*
X260340748Y-126721099D01*
X260388457Y-126709289D01*
X260436165Y-126697500D01*
X260483927Y-126685718D01*
X260531689Y-126673957D01*
X260579505Y-126662203D01*
X260627320Y-126650470D01*
X260675189Y-126638744D01*
X260723056Y-126627040D01*
X260770976Y-126615343D01*
X260818894Y-126603667D01*
X260866866Y-126591999D01*
X260914834Y-126580352D01*
X260962856Y-126568713D01*
X261010875Y-126557095D01*
X261058946Y-126545485D01*
X261107013Y-126533897D01*
X261155133Y-126522317D01*
X261203249Y-126510758D01*
X261251417Y-126499207D01*
X261299581Y-126487678D01*
X261347796Y-126476157D01*
X261396006Y-126464658D01*
X261444268Y-126453167D01*
X261492524Y-126441698D01*
X261540832Y-126430237D01*
X261589133Y-126418799D01*
X261637486Y-126407369D01*
X261685832Y-126395961D01*
X261734229Y-126384562D01*
X261782619Y-126373184D01*
X261831060Y-126361816D01*
X261879493Y-126350470D01*
X261927977Y-126339132D01*
X261976453Y-126327817D01*
X262024978Y-126316511D01*
X262073496Y-126305228D01*
X262122063Y-126293953D01*
X262170622Y-126282701D01*
X262219230Y-126271458D01*
X262267830Y-126260238D01*
X262316478Y-126249026D01*
X262365117Y-126237838D01*
X262413805Y-126226659D01*
X262462483Y-126215503D01*
X262511209Y-126204356D01*
X262559926Y-126193232D01*
X262608691Y-126182117D01*
X262657445Y-126171026D01*
X262706247Y-126159944D01*
X262755038Y-126148885D01*
X262803877Y-126137836D01*
X262852705Y-126126809D01*
X262901580Y-126115793D01*
X262950444Y-126104800D01*
X262999355Y-126093817D01*
X263048253Y-126082857D01*
X263097199Y-126071907D01*
X263146132Y-126060980D01*
X263195112Y-126050063D01*
X263244079Y-126039170D01*
X263293092Y-126028287D01*
X263342092Y-126017427D01*
X263391139Y-126006578D01*
X263440172Y-125995752D01*
X263489250Y-125984937D01*
X263538315Y-125974145D01*
X263587426Y-125963364D01*
X263636522Y-125952606D01*
X263685664Y-125941859D01*
X263734791Y-125931135D01*
X263783963Y-125920422D01*
X263833120Y-125909733D01*
X263882322Y-125899055D01*
X263931509Y-125888400D01*
X263980740Y-125877757D01*
X264029956Y-125867137D01*
X264079216Y-125856528D01*
X264128460Y-125845943D01*
X264177749Y-125835369D01*
X264227021Y-125824819D01*
X264276336Y-125814280D01*
X264325636Y-125803765D01*
X264374978Y-125793261D01*
X264424304Y-125782781D01*
X264473673Y-125772313D01*
X264523025Y-125761869D01*
X264572420Y-125751436D01*
X264621798Y-125741027D01*
X264671218Y-125730630D01*
X264720621Y-125720257D01*
X264770066Y-125709895D01*
X264819493Y-125699558D01*
X264868962Y-125689232D01*
X264918413Y-125678931D01*
X264967905Y-125668641D01*
X265017379Y-125658376D01*
X265066895Y-125648122D01*
X265116392Y-125637893D01*
X265165931Y-125627676D01*
X265215450Y-125617483D01*
X265265010Y-125607302D01*
X265314551Y-125597145D01*
X265364133Y-125587001D01*
X265413695Y-125576881D01*
X265463298Y-125566773D01*
X265512880Y-125556690D01*
X265562504Y-125546619D01*
X265612106Y-125536572D01*
X265661750Y-125526538D01*
X265711372Y-125516528D01*
X265761034Y-125506531D01*
X265810676Y-125496558D01*
X265860357Y-125486598D01*
X265910017Y-125476663D01*
X265959717Y-125466740D01*
X266009395Y-125456841D01*
X266059113Y-125446955D01*
X266108809Y-125437094D01*
X266158544Y-125427246D01*
X266208257Y-125417423D01*
X266258009Y-125407612D01*
X266307738Y-125397826D01*
X266357507Y-125388052D01*
X266407252Y-125378304D01*
X266457036Y-125368568D01*
X266506798Y-125358858D01*
X266556597Y-125349160D01*
X266606374Y-125339487D01*
X266656188Y-125329827D01*
X266705980Y-125320192D01*
X266755809Y-125310571D01*
X266805614Y-125300974D01*
X266855457Y-125291390D01*
X266905276Y-125281831D01*
X266955133Y-125272286D01*
X267004965Y-125262765D01*
X267054835Y-125253258D01*
X267104680Y-125243776D01*
X267154563Y-125234307D01*
X267204421Y-125224863D01*
X267254315Y-125215433D01*
X267304185Y-125206027D01*
X267354091Y-125196635D01*
X267403972Y-125187269D01*
X267453890Y-125177915D01*
X267503782Y-125168587D01*
X267553710Y-125159273D01*
X267603613Y-125149983D01*
X267653552Y-125140708D01*
X267703465Y-125131457D01*
X267753414Y-125122221D01*
X267803336Y-125113009D01*
X267853295Y-125103811D01*
X267903227Y-125094638D01*
X267953194Y-125085480D01*
X268003135Y-125076346D01*
X268053111Y-125067227D01*
X268103061Y-125058132D01*
X268153045Y-125049052D01*
X268203002Y-125039997D01*
X268252995Y-125030956D01*
X268302960Y-125021940D01*
X268352959Y-125012938D01*
X268402932Y-125003962D01*
X268452938Y-124994999D01*
X268502918Y-124986062D01*
X268552931Y-124977139D01*
X268602917Y-124968242D01*
X268652936Y-124959359D01*
X268702928Y-124950501D01*
X268752953Y-124941657D01*
X268802950Y-124932839D01*
X268852981Y-124924035D01*
X268902984Y-124915257D01*
X268953019Y-124906493D01*
X269003027Y-124897754D01*
X269053067Y-124889030D01*
X269103079Y-124880331D01*
X269153124Y-124871647D01*
X269203140Y-124862988D01*
X269253188Y-124854344D01*
X269303208Y-124845725D01*
X269353260Y-124837120D01*
X269403283Y-124828542D01*
X269453338Y-124819977D01*
X269503364Y-124811439D01*
X269553422Y-124802915D01*
X269603450Y-124794416D01*
X269653511Y-124785933D01*
X269703541Y-124777474D01*
X269753604Y-124769031D01*
X269803636Y-124760613D01*
X269853700Y-124752210D01*
X269903734Y-124743832D01*
X269953800Y-124735469D01*
X270003835Y-124727132D01*
X270053901Y-124718810D01*
X270103937Y-124710513D01*
X270154004Y-124702231D01*
X270204040Y-124693975D01*
X270254107Y-124685734D01*
X270304143Y-124677518D01*
X270354210Y-124669317D01*
X270404247Y-124661142D01*
X270454313Y-124652982D01*
X270504348Y-124644848D01*
X270554414Y-124636729D01*
X270604449Y-124628635D01*
X270654513Y-124620557D01*
X270704546Y-124612504D01*
X270754610Y-124604466D01*
X270804641Y-124596454D01*
X270854702Y-124588457D01*
X270904732Y-124580486D01*
X270954791Y-124572530D01*
X271004819Y-124564600D01*
X271054875Y-124556685D01*
X271104900Y-124548795D01*
X271154954Y-124540921D01*
X271204976Y-124533073D01*
X271255026Y-124525240D01*
X271305045Y-124517433D01*
X271355092Y-124509641D01*
X271405107Y-124501875D01*
X271455151Y-124494124D01*
X271505162Y-124486399D01*
X271555201Y-124478689D01*
X271605208Y-124471005D01*
X271655243Y-124463337D01*
X271705245Y-124455694D01*
X271755276Y-124448067D01*
X271805273Y-124440465D01*
X271855299Y-124432880D01*
X271905291Y-124425319D01*
X271955311Y-124417775D01*
X272005298Y-124410256D01*
X272055313Y-124402753D01*
X272105294Y-124395275D01*
X272155303Y-124387813D01*
X272205278Y-124380377D01*
X272255281Y-124372957D01*
X272305249Y-124365562D01*
X272355245Y-124358183D01*
X272405208Y-124350830D01*
X272455197Y-124343492D01*
X272505152Y-124336180D01*
X272555134Y-124328884D01*
X272605083Y-124321614D01*
X272655057Y-124314360D01*
X272704998Y-124307131D01*
X272754965Y-124299918D01*
X272804898Y-124292731D01*
X272854858Y-124285560D01*
X272904783Y-124278414D01*
X272954734Y-124271285D01*
X273004650Y-124264180D01*
X273054593Y-124257093D01*
X273104501Y-124250030D01*
X273154435Y-124242984D01*
X273204334Y-124235963D01*
X273254259Y-124228959D01*
X273304149Y-124221980D01*
X273354065Y-124215017D01*
X273403945Y-124208080D01*
X273453851Y-124201159D01*
X273503723Y-124194263D01*
X273553619Y-124187384D01*
X273603480Y-124180531D01*
X273653366Y-124173693D01*
X273703217Y-124166881D01*
X273753093Y-124160086D01*
X273802933Y-124153316D01*
X273852799Y-124146562D01*
X273902629Y-124139834D01*
X273952483Y-124133122D01*
X274002302Y-124126436D01*
X274052145Y-124119766D01*
X274101953Y-124113122D01*
X274151785Y-124106494D01*
X274201581Y-124099891D01*
X274251401Y-124093305D01*
X274301186Y-124086745D01*
X274350994Y-124080201D01*
X274400767Y-124073682D01*
X274450563Y-124067180D01*
X274500324Y-124060703D01*
X274550108Y-124054244D01*
X274599856Y-124047809D01*
X274649627Y-124041391D01*
X274699363Y-124034998D01*
X274749121Y-124028622D01*
X274798844Y-124022271D01*
X274848589Y-124015938D01*
X274898299Y-124009629D01*
X274948031Y-124003337D01*
X274997727Y-123997070D01*
X275047446Y-123990821D01*
X275097128Y-123984596D01*
X275146833Y-123978389D01*
X275196502Y-123972206D01*
X275246193Y-123966041D01*
X275295847Y-123959900D01*
X275345524Y-123953777D01*
X275395164Y-123947678D01*
X275444827Y-123941597D01*
X275494453Y-123935541D01*
X275544100Y-123929502D01*
X275593711Y-123923488D01*
X275643344Y-123917491D01*
X275692940Y-123911519D01*
X275742558Y-123905564D01*
X275792139Y-123899634D01*
X275841741Y-123893722D01*
X275891307Y-123887834D01*
X275940894Y-123881964D01*
X275990444Y-123876118D01*
X276040015Y-123870290D01*
X276089549Y-123864486D01*
X276139105Y-123858701D01*
X276188623Y-123852939D01*
X276238162Y-123847196D01*
X276287664Y-123841476D01*
X276337187Y-123835775D01*
X276386672Y-123830098D01*
X276436178Y-123824439D01*
X276485647Y-123818804D01*
X276535137Y-123813187D01*
X276584589Y-123807594D01*
X276634061Y-123802020D01*
X276683496Y-123796469D01*
X276732951Y-123790937D01*
X276782369Y-123785429D01*
X276831807Y-123779938D01*
X276881207Y-123774473D01*
X276930628Y-123769025D01*
X276980010Y-123763601D01*
X277029413Y-123758195D01*
X277078778Y-123752814D01*
X277128162Y-123747450D01*
X277177509Y-123742111D01*
X277226876Y-123736790D01*
X277276204Y-123731493D01*
X277325552Y-123726214D01*
X277374863Y-123720959D01*
X277424192Y-123715722D01*
X277473484Y-123710509D01*
X277522795Y-123705315D01*
X277572068Y-123700145D01*
X277621360Y-123694992D01*
X277670614Y-123689864D01*
X277719887Y-123684754D01*
X277769121Y-123679669D01*
X277818375Y-123674601D01*
X277867590Y-123669557D01*
X277916825Y-123664532D01*
X277966021Y-123659530D01*
X278015235Y-123654547D01*
X278064412Y-123649588D01*
X278113606Y-123644647D01*
X278162763Y-123639730D01*
X278211938Y-123634832D01*
X278261074Y-123629957D01*
X278310229Y-123625100D01*
X278359345Y-123620268D01*
X278408479Y-123615454D01*
X278457575Y-123610664D01*
X278506689Y-123605892D01*
X278555764Y-123601144D01*
X278604857Y-123596414D01*
X278653912Y-123591708D01*
X278702984Y-123587021D01*
X278752018Y-123582357D01*
X278801069Y-123577712D01*
X278850082Y-123573090D01*
X278899112Y-123568488D01*
X278948104Y-123563908D01*
X278997112Y-123559348D01*
X279046082Y-123554811D01*
X279095070Y-123550292D01*
X279144018Y-123545797D01*
X279192984Y-123541321D01*
X279241911Y-123536868D01*
X279290855Y-123532434D01*
X279339760Y-123528024D01*
X279388682Y-123523632D01*
X279437565Y-123519264D01*
X279486464Y-123514914D01*
X279535325Y-123510588D01*
X279584203Y-123506280D01*
X279633041Y-123501996D01*
X279681896Y-123497731D01*
X279730712Y-123493489D01*
X279779545Y-123489266D01*
X279828338Y-123485066D01*
X279877148Y-123480885D01*
X279925918Y-123476728D01*
X279974705Y-123472589D01*
X280023453Y-123468473D01*
X280072217Y-123464377D01*
X280120941Y-123460303D01*
X280169682Y-123456249D01*
X280218383Y-123452218D01*
X280267101Y-123448205D01*
X280315779Y-123444216D01*
X280364473Y-123440246D01*
X280413127Y-123436299D01*
X280461797Y-123432371D01*
X280510428Y-123428466D01*
X280559075Y-123424579D01*
X280607682Y-123420717D01*
X280656304Y-123416873D01*
X280704887Y-123413052D01*
X280753486Y-123409250D01*
X280802045Y-123405471D01*
X280850619Y-123401711D01*
X280899154Y-123397974D01*
X280947704Y-123394256D01*
X280996215Y-123390562D01*
X281044740Y-123386886D01*
X281093226Y-123383233D01*
X281141727Y-123379599D01*
X281190188Y-123375988D01*
X281238665Y-123372397D01*
X281287101Y-123368828D01*
X281335553Y-123365278D01*
X281383965Y-123361751D01*
X281432391Y-123358243D01*
X281480778Y-123354758D01*
X281529179Y-123351293D01*
X281577541Y-123347850D01*
X281625917Y-123344426D01*
X281674253Y-123341025D01*
X281722604Y-123337643D01*
X281770915Y-123334284D01*
X281819240Y-123330944D01*
X281867525Y-123327626D01*
X281915825Y-123324328D01*
X281964085Y-123321053D01*
X282012358Y-123317797D01*
X282060592Y-123314563D01*
X282108840Y-123311349D01*
X282157048Y-123308157D01*
X282205270Y-123304985D01*
X282253452Y-123301835D01*
X282301648Y-123298704D01*
X282349804Y-123295596D01*
X282397974Y-123292507D01*
X282446104Y-123289441D01*
X282494247Y-123286394D01*
X282542350Y-123283370D01*
X282590467Y-123280365D01*
X282638544Y-123277382D01*
X282686634Y-123274419D01*
X282734684Y-123271478D01*
X282782748Y-123268556D01*
X282830771Y-123265657D01*
X282878808Y-123262777D01*
X282926805Y-123259920D01*
X282974815Y-123257081D01*
X283022784Y-123254266D01*
X283070767Y-123251469D01*
X283118710Y-123248695D01*
X283166665Y-123245940D01*
X283214581Y-123243208D01*
X283262509Y-123240495D01*
X283310398Y-123237804D01*
X283358298Y-123235133D01*
X283406159Y-123232483D01*
X283454033Y-123229854D01*
X283501866Y-123227246D01*
X283549712Y-123224658D01*
X283597518Y-123222092D01*
X283645336Y-123219545D01*
X283693114Y-123217021D01*
X283740905Y-123214516D01*
X283788655Y-123212033D01*
X283836417Y-123209570D01*
X283884140Y-123207128D01*
X283931874Y-123204706D01*
X283979569Y-123202306D01*
X284027275Y-123199926D01*
X284074941Y-123197568D01*
X284122619Y-123195229D01*
X284170258Y-123192912D01*
X284217907Y-123190615D01*
X284265517Y-123188339D01*
X284313139Y-123186083D01*
X284360720Y-123183849D01*
X284408313Y-123181635D01*
X284455866Y-123179442D01*
X284503430Y-123177269D01*
X284550954Y-123175118D01*
X284598490Y-123172986D01*
X284645985Y-123170876D01*
X284693492Y-123168786D01*
X284740959Y-123166717D01*
X284788437Y-123164668D01*
X284835875Y-123162641D01*
X284883324Y-123160633D01*
X284930733Y-123158647D01*
X284978152Y-123156681D01*
X285025532Y-123154736D01*
X285072923Y-123152811D01*
X285120274Y-123150908D01*
X285167635Y-123149024D01*
X285214956Y-123147162D01*
X285262288Y-123145319D01*
X285309580Y-123143498D01*
X285356883Y-123141697D01*
X285404146Y-123139917D01*
X285451419Y-123138157D01*
X285498652Y-123136418D01*
X285545895Y-123134699D01*
X285593099Y-123133002D01*
X285640312Y-123131324D01*
X285687486Y-123129668D01*
X285734670Y-123128031D01*
X285781814Y-123126416D01*
X285828968Y-123124820D01*
X285876082Y-123123246D01*
X285923206Y-123121691D01*
X285970290Y-123120158D01*
X286017384Y-123118645D01*
X286064439Y-123117152D01*
X286111502Y-123115680D01*
X286158526Y-123114229D01*
X286205560Y-123112797D01*
X286252554Y-123111387D01*
X286299557Y-123109997D01*
X286346521Y-123108627D01*
X286393494Y-123107278D01*
X286440427Y-123105950D01*
X286487370Y-123104641D01*
X286534272Y-123103354D01*
X286581184Y-123102086D01*
X286628057Y-123100839D01*
X286674938Y-123099612D01*
X286721780Y-123098407D01*
X286768630Y-123097221D01*
X286815441Y-123096056D01*
X286862261Y-123094911D01*
X286909041Y-123093787D01*
X286955831Y-123092682D01*
X287002580Y-123091599D01*
X287049338Y-123090535D01*
X287096057Y-123089493D01*
X287142784Y-123088470D01*
X287189471Y-123087468D01*
X287236167Y-123086486D01*
X287282824Y-123085525D01*
X287329489Y-123084584D01*
X287376114Y-123083663D01*
X287422748Y-123082762D01*
X287469342Y-123081882D01*
X287515945Y-123081022D01*
X287562508Y-123080183D01*
X287609079Y-123079364D01*
X287655610Y-123078565D01*
X287702150Y-123077786D01*
X287748650Y-123077028D01*
X287795159Y-123076290D01*
X287841627Y-123075572D01*
X287888104Y-123074875D01*
X287934541Y-123074198D01*
X287980986Y-123073540D01*
X288027392Y-123072904D01*
X288073805Y-123072287D01*
X288120179Y-123071691D01*
X288166561Y-123071115D01*
X288212903Y-123070559D01*
X288259253Y-123070023D01*
X288305563Y-123069508D01*
X288351881Y-123069013D01*
X288398159Y-123068538D01*
X288444445Y-123068083D01*
X288490692Y-123067648D01*
X288536946Y-123067234D01*
X288583160Y-123066839D01*
X288629382Y-123066465D01*
X288675565Y-123066111D01*
X288721754Y-123065777D01*
X288767905Y-123065463D01*
X288814062Y-123065169D01*
X288860180Y-123064896D01*
X288906306Y-123064643D01*
X288952392Y-123064409D01*
X288998485Y-123064196D01*
X289044538Y-123064003D01*
X289090599Y-123063830D01*
X289136620Y-123063677D01*
X289182648Y-123063544D01*
X289228637Y-123063431D01*
X289274633Y-123063338D01*
X289320589Y-123063266D01*
X289366552Y-123063213D01*
X289412476Y-123063180D01*
X289458406Y-123063168D01*
X289504298Y-123063175D01*
X289550195Y-123063202D01*
X289593809Y-123063247D01*
D10*
X51786183Y-123062840D02*
G75*
G02*
X50814511Y-122073398I28317J999640D01*
G01*
X50814512Y-122073398D02*
X50814508Y-71159600D01*
D11*
X69090000Y-108840000D02*
G75*
G02*
X69889920Y-108840001I399960J18D01*
G01*
X180603632Y-107578248D02*
X180603631Y-101578250D01*
X69035215Y-95748244D02*
G75*
G02*
X69835169Y-95748244I399977J28D01*
G01*
D10*
X291393810Y-123062838D02*
X291393809Y-121612838D01*
D11*
X291481647Y-101748245D02*
G75*
G02*
X290681709Y-101748245I-399969J-50D01*
G01*
X179803630Y-115578244D02*
G75*
G02*
X180603638Y-115578246I400004J-48D01*
G01*
X69035211Y-67748247D02*
G75*
G02*
X69835225Y-67748247I400007J0D01*
G01*
M02*
